<?xml version="1.0" encoding="utf-8"?>
<!-- Generator: Adobe Illustrator 25.0.1, SVG Export Plug-In . SVG Version: 6.00 Build 0)  -->
<svg version="1.1" id="Layer_1" xmlns="http://www.w3.org/2000/svg" xmlns:xlink="http://www.w3.org/1999/xlink" x="0px" y="0px"
	 viewBox="0 0 100 100" style="enable-background:new 0 0 100 100;" xml:space="preserve">
<style type="text/css">
	.st0{fill:#80B8F2;}
	.st1{fill:#357AF6;}
	.st2{fill:#0E2BB1;}
</style>
<path class="st0" d="M82.2,26.5c-0.5,0-1.1,0.1-1.6,0.4c-1.7,0.9-2.4,3-1.5,4.7c2.9,5.7,4.4,11.9,4.4,18.4c0,6.5-1.5,12.7-4.4,18.4
	c-0.4,0.8-0.5,1.8-0.2,2.7c0.3,0.9,0.9,1.6,1.7,2c0.5,0.3,1,0.4,1.6,0.4c1.3,0,2.5-0.7,3.1-1.9c3.4-6.7,5.2-14,5.2-21.6
	c0-7.6-1.7-14.9-5.2-21.6c-0.4-0.8-1.2-1.4-2-1.7C82.9,26.6,82.6,26.5,82.2,26.5z"/>
<path class="st1" d="M43,85C23.7,85,8,69.3,8,50s15.7-35,35-35c7.8,0,15.3,2.5,21.5,7.4c1.7,1.4,2.1,3.9,0.7,5.6
	c-1.4,1.7-3.9,2.1-5.6,0.7C54.8,25,49,23,43,23c-14.9,0-27,12.1-27,27s12.1,27,27,27c6,0,11.8-2,16.5-5.7c1.7-1.4,4.3-1,5.6,0.7
	c1.4,1.7,1,4.3-0.7,5.6C58.3,82.5,50.8,85,43,85z"/>
<path class="st0" d="M71.1,33.5c-0.5,0-1,0.1-1.5,0.3c-1.8,0.8-2.5,2.9-1.7,4.6c1.7,3.6,2.5,7.5,2.5,11.5s-0.9,7.9-2.5,11.5
	c-0.8,1.8,0,3.8,1.7,4.6c0.5,0.2,1,0.3,1.5,0.3c1.4,0,2.6-0.8,3.2-2c2.1-4.6,3.2-9.4,3.2-14.5s-1.1-9.9-3.2-14.5
	c-0.4-0.8-1.1-1.5-2-1.8C72,33.6,71.5,33.5,71.1,33.5z"/>
<path class="st2" d="M43,28c-12.1,0-22,9.9-22,22s9.9,22,22,22s22-9.9,22-22c0-2.1-1.7-3.8-3.8-3.8H48.4c-2.1,0-3.8,1.7-3.8,3.8
	s1.7,3.8,3.8,3.8H57l-0.2,0.7c-1.9,6-7.5,10-13.8,10c-8,0-14.5-6.5-14.5-14.5S35,35.5,43,35.5c3.1,0,6,1,8.5,2.8
	c0.8,0.6,1.8,0.8,2.8,0.7c1-0.2,1.9-0.7,2.5-1.5c1.2-1.7,0.9-4-0.8-5.3C52.2,29.4,47.7,28,43,28z"/>
</svg>
