<?xml version="1.0" encoding="utf-8"?>
<!-- Generator: Adobe Illustrator 25.0.1, SVG Export Plug-In . SVG Version: 6.00 Build 0)  -->
<svg version="1.1" id="Layer_1" xmlns="http://www.w3.org/2000/svg" xmlns:xlink="http://www.w3.org/1999/xlink" x="0px" y="0px"
	 viewBox="0 0 100 100" style="enable-background:new 0 0 100 100;" xml:space="preserve">
<style type="text/css">
	.st0{fill:#357AF5;}
	.st1{fill:#102CB1;}
	.st2{fill:#80B8F1;}
	.st3{fill:#FEFEFE;}
</style>
<g>
	<path class="st0" d="M45.7,12.1c5.5,0,10.5,1.7,15,4.9c1.9,1.4,2.1,3.6,0.5,4.9c-1.1,0.9-2.4,0.9-3.8-0.2
		c-3.7-2.7-7.8-3.9-12.3-3.8c-9.4,0.2-17.7,8-18.6,17.3c-1,10.3,6.1,19.1,15.3,21c5.4,1.1,10.3,0.1,14.9-2.9
		c0.3-0.2,0.6-0.5,0.9-0.7c1.6-1.1,3.2-0.8,4.2,0.6c1,1.3,0.6,3-0.8,4.2c-8.7,6.7-21.7,6.7-30.4-0.1c-6.3-4.9-9.7-11.3-9.9-19.2
		c-0.5-13.8,10-24.2,21.6-25.7C43.3,12.2,44.5,12,45.7,12.1z"/>
	<path class="st1" d="M55.3,40.2c-2.2,0-4.3,0-6.3,0c-2,0-3.2-1.2-3.2-2.9c0-1.7,1.2-2.9,3.2-2.9c3.2,0,6.4,0,9.6,0
		c2,0,3.2,1.3,3.2,3.3c-0.2,8.1-6.7,14.9-14.8,15.5c-8.1,0.6-15.7-5.3-16.9-13.3c-0.9-6.3,1-11.7,6.2-15.5c5.3-3.8,11-4,16.9-1.3
		c1,0.5,2,1.1,2.3,2.2c0.3,1.2,0,2.3-1,3.1c-1,0.8-2.2,0.9-3.4,0.2c-1.7-1-3.6-1.5-5.6-1.5c-4.8,0.1-9.2,3.9-9.7,8.6
		c-0.6,5.5,2.6,10.2,7.6,11.3C48.6,48.3,53.7,45.4,55.3,40.2z"/>
	<path class="st1" d="M19.3,81.7c-1.8,0-3.5,0-5.2,0c-1.3,0-1.6-0.6-1.6-1.8c0-1.2,0.3-1.8,1.6-1.8c2.5,0.1,4.9,0,7.4,0
		c1.2,0,1.8,0.5,1.8,1.7c0.1,5.7-4,10.3-9.7,10.8c-5.9,0.5-11-3.4-11.8-9c-0.7-5,1.6-9.5,6-11.6c4.4-2.1,9.7-1.1,12.8,2.4
		c0.6,0.6,1.4,1.3,0.4,2.2c-1.2,1.2-2.4,1.3-3.3,0.3c-2.8-2.9-7.6-2.9-10.3,0C4.7,78,5,82.9,8,85.4c3.2,2.6,8.2,1.9,10.5-1.4
		C19,83.3,19.3,82.7,19.3,81.7z"/>
	<path class="st2" d="M80.3,37.2c-0.2,5.3-1.2,10.3-3.4,14.9c-0.9,1.8-1.7,2.4-3.3,2.2c-2-0.2-3.1-2.2-2.1-4.2
		c1.3-2.6,2.1-5.3,2.6-8.2c1-5.7,0.2-11.2-2.1-16.5c-0.2-0.5-0.5-1-0.6-1.5c-0.6-1.5,0-3,1.4-3.6c1.4-0.7,3-0.1,3.8,1.3
		c1.3,2.4,2.2,5,2.8,7.7C80,32,80.3,34.7,80.3,37.2z"/>
	<path class="st1" d="M60.5,76.2c0-0.2,0-0.3,0-0.3c0-2.2,1.1-2.9,3.2-2.2c0.6,0.2,0.7,0.6,0.7,1.1c0,4.9,0,9.7,0,14.6
		c0,0.8-0.4,1.1-1.2,1.1c-0.2,0-0.5,0-0.7,0c-1.9,0-1.9,0-2.1-2.1c-1.4,1.1-2.8,2.2-4.6,2.3c-3.5,0.3-6.5-1.4-7.8-4.7
		c-1.4-3.3-1.2-6.6,0.9-9.6C51.3,73.2,57.3,71.8,60.5,76.2z M55.9,87.3c2.7,0,4.7-2.2,4.7-5.2c0-2.9-2-5.2-4.7-5.2
		c-2.7,0-4.7,2.2-4.6,5.2C51.3,85.1,53.2,87.3,55.9,87.3z"/>
	<path class="st1" d="M25.6,79.9c0-4.7,2.7-8.6,6.9-10.2c4.4-1.6,9.2-0.4,12.1,3c1.1,1.3,1.1,1.6-0.4,2.4c-1.7,1-1.7,1-3-0.4
		c-1.9-1.9-5.1-2.5-7.8-1.3c-2.5,1.1-4.1,3.8-3.9,6.7c0.2,3.1,1.8,5.4,4.4,6.3c2.9,1,5.7,0.3,7.8-2.1c0.5-0.6,0.9-0.6,1.6-0.3
		c2.5,1.3,2.6,1.9,0.5,3.8c-3.5,3.1-7.5,3.7-11.8,2C28,88.3,25.6,84.4,25.6,79.9z"/>
	<path class="st1" d="M87.6,75.4c1.7-1.3,3.5-1.8,5.4-1.6c3.7,0.4,6,2.8,6.1,6.8c0.1,2.9,0,5.8,0,8.7c0,0.9-0.3,1.4-1.3,1.3
		c-0.4,0-0.9,0-1.3,0c-1.1,0.1-1.4-0.5-1.4-1.5c0-2.8,0-5.6-0.1-8.4c-0.1-1.9-1.1-3.1-2.6-3.6c-2.6-0.7-4.8,1-4.9,4
		c-0.1,2.6-0.1,5.2,0,7.8c0,1.3-0.4,1.7-1.7,1.6c-2.3-0.1-2.3,0-2.3-2.3c0-6.1,0-12.2,0-18.2c0-0.6-0.2-1.6,0.6-1.8
		c1-0.2,2-0.3,3,0.1c0.5,0.2,0.4,0.7,0.4,1.2C87.6,71.4,87.6,73.3,87.6,75.4z"/>
	<path class="st1" d="M74.2,90.8c-2.8-0.1-5.1-0.9-6.5-3.5c-0.9-1.7-0.5-2.3,1.4-2.4c1.1,0,1.9,0.2,2.6,1.3c0.7,1.3,3.2,1.6,4.4,0.7
		c1-0.7,1-1.6-0.1-2.3c-1-0.6-2.2-0.8-3.3-1.1c-1.2-0.3-2.3-0.7-3.3-1.3c-2.4-1.5-2.7-4.8-0.7-6.9c2.3-2.3,7.4-2.5,9.9-0.4
		c0.4,0.3,0.8,0.7,1,1.2c0.5,0.9,1.3,1.9,0.5,2.8c-0.7,0.8-2,0.3-3.1,0.2c-0.4,0-0.5-0.5-0.7-0.9c-0.8-1.4-3.1-2-4.4-1
		c-0.9,0.6-0.8,1.6,0.1,2.2c0.8,0.6,1.9,0.8,2.8,1.1c1.1,0.3,2.2,0.6,3.2,1.2c3.3,1.8,3.4,6,0.2,8C77.1,90.5,75.7,90.8,74.2,90.8z"
		/>
	<path class="st2" d="M71,37c-0.2,3.7-0.7,7.2-2.2,10.4c-0.8,1.8-2.3,2.4-3.9,1.8c-1.5-0.7-2.2-2.2-1.4-4c2.2-5.4,2.2-10.7-0.1-16.1
		c-0.7-1.6,0.1-3.2,1.5-3.9c1.5-0.6,3.1,0,3.8,1.6c1.1,2.5,1.9,5.1,2.1,7.9C70.8,35.6,70.9,36.4,71,37z"/>
	<path class="st3" d="M55.9,87.3c-2.7,0-4.6-2.2-4.6-5.2c0-3,2-5.2,4.6-5.2c2.6,0,4.7,2.3,4.7,5.2C60.6,85.1,58.6,87.3,55.9,87.3z"
		/>
</g>
</svg>
