<?xml version="1.0" encoding="utf-8"?>
<!-- Generator: Adobe Illustrator 25.0.1, SVG Export Plug-In . SVG Version: 6.00 Build 0)  -->
<svg version="1.1" id="Layer_1" xmlns="http://www.w3.org/2000/svg" xmlns:xlink="http://www.w3.org/1999/xlink" x="0px" y="0px"
	 viewBox="0 0 100 100" style="enable-background:new 0 0 100 100;" xml:space="preserve">
<style type="text/css">
	.st0{fill:#00AF4E;}
</style>
<g>
	<path class="st0" d="M87.5,72c0,3.7,0,7.4,0,11.2c0,2.1-0.4,4.1-1.3,5.9c-1.2,2.3-3.2,3.8-5.7,4.6c-3.1,1-6.2,0.9-9.4,0
		c-1.2-0.4-2.3-0.9-3.4-1.6c-0.2-0.2-0.4-0.3-0.4-0.6c0-1.3,0-2.7,0-4c0-0.5,0.1-0.6,0.5-0.3c1.8,1.1,3.7,1.9,5.9,2.2
		c1.6,0.2,3.2,0.2,4.8-0.2c2.2-0.7,3.5-2.2,3.9-4.4c0.3-1.3,0.2-2.6,0.1-3.9c0-0.1,0-0.2-0.1-0.2c-0.1,0-0.2,0.1-0.2,0.2
		c-1.8,3.2-4.6,4-8,3.7c-1.7-0.1-3.3-0.6-4.7-1.5c-2.1-1.4-3.3-3.5-3.8-5.9c-0.3-1.2-0.3-2.5-0.3-3.8c0-4.4,0-8.9,0-13.3
		c0-0.4,0.1-0.6,0.6-0.6c1.3,0,2.6,0,4,0c0.5,0,0.6,0.2,0.6,0.6c0,4.4,0,8.9,0,13.3c0,0.8,0,1.7,0.3,2.5c0.5,1.8,1.5,3,3.4,3.5
		c1.7,0.5,3.4,0.4,5-0.3c1.9-0.9,2.7-2.5,3-4.5c0.2-1.1,0.1-2.2,0.1-3.2c0-3.8,0-7.5,0-11.3c0-0.5,0.1-0.6,0.6-0.6c1.3,0,2.6,0,4,0
		c0.4,0,0.5,0.1,0.5,0.6C87.5,64,87.5,68,87.5,72z"/>
	<path class="st0" d="M12.5,68c0-5.1,0-10.2,0-15.2c0-0.7,0-0.7,0.7-0.7c3.5,0,7,0,10.5,0c2.2,0,4.3,0.4,6.2,1.5
		c2.8,1.4,4.3,3.7,4.8,6.8c0.4,2.6,0.3,5.1-0.8,7.4c-1.6,3.5-4.6,5.3-8.3,5.9c-1.6,0.3-3.2,0.2-4.8,0.2c-0.9,0-1.7,0-2.6,0
		c-0.4,0-0.6,0.1-0.6,0.5c0,3,0,5.9,0,8.9c0,0.6,0,0.6-0.6,0.6c-1.3,0-2.6,0-4,0c-0.4,0-0.6-0.1-0.6-0.6
		C12.5,78.2,12.5,73.1,12.5,68z M17.7,63c0,1.9,0,3.8,0,5.6c0,0.4,0.1,0.5,0.5,0.5c1.7,0,3.5,0,5.2,0c1.3,0,2.5-0.3,3.6-0.9
		c3-1.8,3.4-6,2-8.4c-1-1.8-2.7-2.6-4.7-2.8c-2-0.2-4.1,0-6.1-0.1c-0.4,0-0.5,0.1-0.5,0.5C17.7,59.2,17.7,61.1,17.7,63z"/>
	<path class="st0" d="M56.6,79.7c-0.3,0.5-0.5,0.9-0.7,1.3c-1.5,2.2-3.5,3.3-6.1,3.5c-3.4,0.3-6.5-0.6-9-2.9c-2-1.8-3.1-4.1-3.6-6.7
		c-0.6-3.2-0.4-6.3,0.9-9.2c1.9-4.1,5.1-6.3,9.6-6.8c3-0.3,5.9,0.1,8.5,1.7c2.4,1.4,3.9,3.5,4.8,6c0.6,1.7,0.7,3.4,0.7,5.2
		c0,3.9,0,7.7,0,11.6c0,0.4-0.1,0.6-0.6,0.6c-1.3,0-2.6,0-3.9,0c-0.4,0-0.5-0.1-0.5-0.5c0-1,0-2.1,0-3.1
		C56.7,80.2,56.8,80,56.6,79.7z M56.6,71.6c0-0.3,0-0.6,0-0.8c0-0.3,0-0.6-0.1-0.8c-0.5-2.9-1.8-5.1-4.7-6c-2.6-0.8-5.1-0.5-7.2,1.3
		c-1.5,1.3-2.3,3-2.5,4.9c-0.3,2.3,0,4.5,1.3,6.5c1.6,2.4,4,3.3,6.9,3c2.1-0.3,3.8-1.2,5-3C56.2,75.1,56.6,73.4,56.6,71.6z"/>
	<path class="st0" d="M26.8,18c-1-0.6-1.9-1.1-2.8-1.5c-4.2-1.5-8.5-1.9-12.8,0c-4.6,2-7.4,5.5-8.2,10.5c-0.7,4,0.2,7.7,2.6,10.9
		c2.2,2.9,5.1,4.7,8.8,5.2c2.6,0.4,5.1,0.2,7.6-0.8c3.7-1.5,5.5-4.4,6.1-8.3c0.2-1.3,0.1-2.6,0.1-3.9c0-0.4-0.2-0.4-0.5-0.4
		c-2.4,0-4.8,0-7.1,0c-1,0-2,0-3,0c-0.4,0-0.5-0.1-0.5-0.5c0-0.5,0-1,0-1.5c0-0.4,0.1-0.6,0.6-0.6c3.2,0,6.5,0,9.7,0c1,0,2,0,2.9,0
		c0.2,0,0.4,0,0.4,0.3c-0.1,2.4,0.2,4.9-0.2,7.3c-0.4,2.5-1.3,4.8-3,6.7c-1.7,2-4,3.3-6.6,3.9C17.9,46,14.9,46,12,45.2
		C6.2,43.6,2.4,39.8,0.7,34c-1.1-3.8-0.9-7.5,0.6-11.2c1.2-2.9,3.1-5.3,5.8-7.1c2.3-1.6,4.9-2.6,7.6-2.9c4-0.4,7.8,0,11.3,2
		c0.7,0.4,0.9,0.8,0.8,1.5C26.8,16.9,26.8,17.4,26.8,18z"/>
	<path class="st0" d="M64.2,41.9c0,0.8,0,1.6,0,2.3c0,0.3-0.2,0.4-0.4,0.5c-1.4,0.8-2.9,1.1-4.5,1.1c-3.9-0.1-7.2-1.5-9.7-4.5
		c-2.1-2.5-2.9-5.5-2.9-8.8c0.1-3.9,1.5-7.3,4.4-9.9c2.4-2.1,5.1-3.1,8.3-3.1c3.8,0,7,1.2,9.5,4.1c2.1,2.4,3,5.3,3,8.5
		c0,4.1,0,8.2,0,12.3c0,0.5-0.1,0.6-0.6,0.6c-0.5,0-1,0-1.6,0c-0.4,0-0.5-0.1-0.5-0.5c0-2.3,0-4.7,0-7c0-2,0.1-4,0-6
		c-0.2-2.9-1.3-5.3-3.5-7.1c-1.5-1.2-3.2-1.9-5.1-2.1c-3-0.3-5.6,0.4-7.9,2.4c-1.7,1.5-2.7,3.4-3.1,5.6c-0.6,3-0.2,6,1.5,8.6
		c1.4,2.2,3.4,3.5,5.9,4c2.1,0.4,4.2,0.3,6.2-0.6C63.5,42.2,63.8,42,64.2,41.9z"/>
	<path class="st0" d="M21.9,31c1.5,0,3,0,4.5,0c0.3,0,0.5,0.1,0.5,0.5c0,1.7,0,3.3-0.7,4.9c-1.4,3.3-4.1,5-7.6,5.4
		c-2,0.3-4,0.1-6-0.5c-2.7-0.9-4.9-2.6-6.3-5C3.9,32.6,3.4,28.6,5,24.6c1.8-4.7,5.5-7.3,10.4-7.9c3.9-0.5,7.6,0.4,11,2.5
		c0.3,0.2,0.4,0.4,0.4,0.7c0,0.6,0,1.2,0,1.8c0,0.4-0.1,0.5-0.4,0.2c-1.8-1.2-3.8-2.1-5.9-2.4c-2.4-0.4-4.8-0.5-7.1,0.4
		C10,21.1,8,23.5,7.3,27c-0.6,3.2-0.1,6.2,1.9,8.8c1.5,2,3.6,3.1,6.1,3.4c2.1,0.3,4.1,0,6-1.1c1.5-0.9,2.4-2.1,2.7-3.8
		c0.1-0.6,0.1-0.7-0.6-0.7c-2,0-4,0-6,0c-0.5,0-0.6-0.1-0.6-0.6c0-0.5,0-0.9,0-1.4c0-0.6,0-0.6,0.6-0.6C19,31,20.4,31,21.9,31z"/>
	<path class="st0" d="M78.1,35.8c0.4,1.3,0.8,2.5,1.6,3.5c2.5,3.1,5.8,4.4,9.7,3.7c4-0.7,6.4-3.3,7.5-7.2c0.7-2.7,0.6-5.3-0.5-7.8
		c-1.5-3.4-4.2-5.2-7.8-5.7c-3.8-0.4-6.8,1.1-9.4,3.8c-2,2.1-3.7,4.4-5.4,6.8c-0.2,0.2-0.3,0.4-0.5,0.6c-0.2-0.1-0.1-0.3-0.1-0.4
		c0-0.3,0-0.7,0-1c-0.2-1.5,0.2-2.8,1.1-4c1.3-1.6,2.5-3.4,4.1-4.8c3.2-3.1,7.1-4.3,11.4-3.4c5.2,1,8.4,4.2,9.7,9.2
		c1.1,4.2,0.4,8.2-2.1,11.8c-1.9,2.7-4.6,4.3-7.9,4.8c-3.3,0.5-6.5-0.2-9.3-2.1c-1.8-1.3-3.1-2.9-3.9-5c-0.1-0.1-0.1-0.3,0-0.4
		C76.9,37.4,77.5,36.6,78.1,35.8z"/>
	<path class="st0" d="M81.3,31.8c0,1,0.1,1.9,0.4,2.8c0.9,2.8,3.3,4.8,6.2,4.7c2.8-0.1,4.8-2.1,5.4-4.8c0.4-1.7,0.3-3.4-0.5-5
		c-1.1-2.3-3.7-3.7-6.3-3.3c-2.1,0.3-3.6,1.5-4.9,3c-2.9,3.3-5.6,6.7-8.1,10.3c-0.1,0.1-0.2,0.2-0.3,0.4c0-0.9,0.1-1.6,0-2.4
		c-0.1-1.3,0.3-2.3,1.1-3.3c1.7-2.1,3.3-4.4,5.1-6.5c1.7-2,3.6-3.5,6.2-4c5.3-1,9.8,2.3,10.5,7.5c0.3,2.5-0.1,4.9-1.5,7.1
		c-1.7,2.7-5.2,4.2-8.3,3.5c-3.5-0.7-5.7-3-6.8-6.3c-0.2-0.6-0.2-1.1,0.3-1.6c0.6-0.6,1-1.4,1.5-2.1C81.2,31.8,81.2,31.8,81.3,31.8z
		"/>
	<path class="st0" d="M64.2,37.9c0,0.9,0,1.7,0,2.4c0,0.3-0.2,0.4-0.4,0.5c-1.9,0.9-3.9,1.3-6,1c-3.8-0.6-6.5-3.6-7-7.5
		c-0.4-2.5,0-4.9,1.4-7c1.7-2.6,4.2-3.8,7.3-3.8c3.7,0,6.7,2,8,5.5c0.4,1.1,0.6,2.3,0.6,3.6c0,4,0,8,0,12c0,0.5-0.1,0.6-0.6,0.6
		c-0.5,0-1.1,0-1.6,0c-0.3,0-0.5-0.1-0.4-0.4c0-0.1,0-0.3,0-0.4c0-3.9,0-7.8,0-11.7c0-1.5-0.3-2.9-1.2-4.1c-1.5-1.9-3.5-2.6-5.8-2.2
		c-2.8,0.4-4.8,2.7-5,5.7c-0.2,1.8,0.1,3.5,1.2,5c1.5,2,3.6,2.6,6,2.3C61.9,39.1,63,38.7,64.2,37.9z"/>
	<path class="st0" d="M32.3,36.8c0.1-2-0.1-4.4,0.1-6.8c0.3-3.1,1.5-5.9,4-7.9c1.7-1.4,3.7-2,5.9-2.2c2.4-0.2,4.7,0.1,6.8,1.3
		c0.8,0.4,0.8,0.4,0.2,1c-0.1,0.1-0.2,0.2-0.3,0.2c-0.3,0.3-0.5,0.9-0.9,0.9c-0.4,0-0.8-0.3-1.2-0.4c-2.7-0.9-5.3-0.7-7.8,0.6
		c-2.3,1.3-3.5,3.3-4,5.8c-0.1,0.8-0.2,1.5-0.2,2.3c0,4.3,0,8.6,0,12.8c0,0.5-0.1,0.6-0.6,0.6c-0.5,0-1.1,0-1.6,0
		c-0.4,0-0.4-0.2-0.4-0.5C32.3,42.1,32.3,39.7,32.3,36.8z"/>
	<path class="st0" d="M36.2,37.6c0-2.1,0-4.2,0-6.3c0-2.5,0.8-4.6,2.8-6.2c2.4-1.8,5.1-2,7.9-0.8c0.4,0.2,0.5,0.4,0.2,0.8
		c-0.3,0.4-0.5,0.9-0.7,1.4c-0.1,0.3-0.2,0.3-0.5,0.2c-1.3-0.5-2.6-0.6-4-0.1c-1.6,0.6-2.5,1.7-2.9,3.3c-0.2,0.6-0.2,1.2-0.2,1.8
		c0,4.3,0,8.5,0,12.8c0,0.4-0.1,0.6-0.6,0.6c-0.5,0-1.1,0-1.6,0c-0.4,0-0.4-0.2-0.4-0.5C36.2,42.2,36.2,39.9,36.2,37.6z"/>
	<path class="st0" d="M74.9,25.3c-0.2-0.2-0.1-0.4-0.1-0.5c0-4.6,0-9.2,0-13.8c0-0.4,0.1-0.6,0.5-0.6c0.6,0,1.1,0,1.7,0
		c0.3,0,0.4,0.1,0.4,0.4c0,3.8,0,7.5,0,11.3c0,0.1,0,0.3-0.1,0.4C76.4,23.3,75.6,24.3,74.9,25.3z"/>
	<path class="st0" d="M78.6,15.8c0-1.6,0-3.3,0-4.9c0-0.4,0.1-0.6,0.5-0.5c0.6,0,1.2,0,1.8,0c0.3,0,0.4,0.1,0.4,0.4
		c0,2.9,0,5.8,0,8.6c0,0.2,0,0.3-0.2,0.4c-0.7,0.3-1.4,0.8-2,1.4c-0.1,0.1-0.2,0.2-0.3,0.1c-0.2-0.1-0.1-0.2-0.1-0.3
		C78.6,19.2,78.6,17.5,78.6,15.8z"/>
</g>
</svg>
