<?xml version="1.0" encoding="utf-8"?>
<!-- Generator: Adobe Illustrator 25.0.1, SVG Export Plug-In . SVG Version: 6.00 Build 0)  -->
<svg version="1.1"
	 id="svg8" xmlns:cc="http://creativecommons.org/ns#" xmlns:dc="http://purl.org/dc/elements/1.1/" xmlns:inkscape="http://www.inkscape.org/namespaces/inkscape" xmlns:rdf="http://www.w3.org/1999/02/22-rdf-syntax-ns#" xmlns:sodipodi="http://sodipodi.sourceforge.net/DTD/sodipodi-0.dtd" xmlns:svg="http://www.w3.org/2000/svg"
	 xmlns="http://www.w3.org/2000/svg" xmlns:xlink="http://www.w3.org/1999/xlink" x="0px" y="0px" viewBox="0 0 375.4 304.8"
	 style="enable-background:new 0 0 375.4 304.8;" xml:space="preserve">
<style type="text/css">
	.st0{fill:url(#path69_1_);}
	.st1{fill:url(#path77_1_);}
	.st2{fill:url(#path968_1_);}
</style>
<sodipodi:namedview  bordercolor="#666666" borderopacity="1.0" fit-margin-bottom="0" fit-margin-left="0" fit-margin-right="0" fit-margin-top="0" id="base" inkscape:current-layer="layer1-5" inkscape:cx="1312.4877" inkscape:cy="-247.50916" inkscape:document-units="mm" inkscape:pageopacity="0.0" inkscape:pageshadow="2" inkscape:window-height="745" inkscape:window-maximized="1" inkscape:window-width="1366" inkscape:window-x="-8" inkscape:window-y="-8" inkscape:zoom="0.175" pagecolor="#ffffff" showgrid="false" showguides="false">
	</sodipodi:namedview>
<g id="layer1" transform="translate(805.60654,100.39806)" inkscape:groupmode="layer" inkscape:label="Layer 1">
	<g id="g975">
		<g id="layer1-5" transform="translate(-482.6338,-315.5882)" inkscape:label="Layer 1">
			<g id="layer1-2" transform="matrix(0.43272125,0,0,0.43272125,12.094952,193.20654)" inkscape:label="Layer 1">
				<g id="g942" transform="matrix(1.3719271,0,0,1.3719271,169.4857,-38.493576)">
					<g id="g71" transform="matrix(3.3097462,0,0,3.3097462,-688.02908,65.088537)">
						
							<linearGradient id="path69_1_" gradientUnits="userSpaceOnUse" x1="-157.2903" y1="303.3141" x2="-90.5315" y2="303.8311" gradientTransform="matrix(5.5697 0 0 -5.5697 876.6081 1767.4512)">
							<stop  offset="9.999999e-08" style="stop-color:#FFB900"/>
							<stop  offset="0.3376" style="stop-color:#F38000"/>
							<stop  offset="0.5673" style="stop-color:#F83C72"/>
							<stop  offset="0.78" style="stop-color:#FC1CBE"/>
							<stop  offset="0.93" style="stop-color:#FE08ED"/>
							<stop  offset="1" style="stop-color:#FF00FF"/>
						</linearGradient>
						<path id="path69" inkscape:connector-curvature="0" class="st0" d="M95.6,155.1c-1.4,0-2.7-0.3-3.9-1
							c-10.1-5.8-84.9-52.8-87.8-54.2c-2.2-1-3.6-3.1-3.9-5.4V28.7c-0.1-2.5,1.2-4.8,3.2-6.1l0.5-0.3c7.2-4.5,31.5-19.3,35.3-21.4
							C40,0.3,41,0,42,0c1,0,1.9,0.2,2.7,0.7c0,0,33.9,22.1,39.1,24.1c3.6,1.7,7.6,2.5,11.6,2.4c4.5,0.1,9-1,13-3.2
							c5.1-2.7,37.5-23.2,37.8-23.2c0.8-0.5,1.8-0.7,2.7-0.7c1,0,2,0.3,2.9,0.8c4.4,2.4,34.5,20.8,35.7,21.6c2.1,1.3,3.4,3.6,3.4,6
							v65.8c-0.2,2.4-1.7,4.4-3.9,5.4c-2.8,1.5-77.4,48.5-87.7,54.2C98.3,154.7,96.9,155.1,95.6,155.1"/>
					</g>
					<g id="g79" transform="matrix(3.3097462,0,0,3.3097462,-688.02908,65.088537)">
						
							<linearGradient id="path77_1_" gradientUnits="userSpaceOnUse" x1="-147.742" y1="292.1927" x2="-79.6783" y2="329.8791" gradientTransform="matrix(5.5697 0 0 -5.5697 876.6081 1767.4512)">
							<stop  offset="0" style="stop-color:#EE0A3F"/>
							<stop  offset="1" style="stop-color:#EE0A3F;stop-opacity:0"/>
						</linearGradient>
						<path id="path77" inkscape:connector-curvature="0" class="st1" d="M95.2,155.1l0.4,0c1.4,0,2.7-0.3,3.9-1
							c10.1-5.8,84.9-52.8,87.7-54.2c2.2-1,3.6-3.1,3.9-5.4V28.7c0-1.1-0.2-2.2-0.7-3.2L95.2,77.7V155.1"/>
					</g>
					<g id="g970" transform="matrix(-3.2744849,0,0,3.2744849,-467.18522,65.934126)">
						
							<linearGradient id="path968_1_" gradientUnits="userSpaceOnUse" x1="275.4308" y1="300.3366" x2="308.6748" y2="327.1165" gradientTransform="matrix(-5.5104 0 0 -5.5104 1510.4119 1764.3809)">
							<stop  offset="0" style="stop-color:#ED6600"/>
							<stop  offset="1" style="stop-color:#F98200"/>
						</linearGradient>
						<path id="path968" inkscape:connector-curvature="0" class="st2" d="M-28.4,155.6l0.4,0c1.4,0,2.7-0.3,3.9-1
							c10.1-5.8,84.9-52.8,87.7-54.2c2.2-1,3.6-3.1,3.9-5.4V29.1c0-1.1-0.2-2.2-0.7-3.2l-95.1,52.2V155.6"/>
					</g>
				</g>
			</g>
		</g>
	</g>
</g>
</svg>
