<?xml version="1.0" encoding="utf-8"?>
<!-- Generator: Adobe Illustrator 25.0.1, SVG Export Plug-In . SVG Version: 6.00 Build 0)  -->
<svg version="1.1" id="Layer_1" xmlns="http://www.w3.org/2000/svg" xmlns:xlink="http://www.w3.org/1999/xlink" x="0px" y="0px"
	 viewBox="0 0 170 50" style="enable-background:new 0 0 170 50;" xml:space="preserve">
<style type="text/css">
	.st0{fill:#4974B9;}
	.st1{fill:#2D2D2D;}
	.st2{fill:#E3702A;}
	.st3{fill:#2DA34D;}
	.st4{fill:#E53F2B;}
	.st5{fill:#5B4595;}
	.st6{fill:#FAB418;}
	.st7{fill:#EFB609;}
	.st8{enable-background:new    ;}
	.st9{fill:#3F3F3E;}
</style>
<g>
	<path class="st0" d="M55.5,6.9c-1,0-2-0.1-2.9,0c-5.6,0.4-10.1,3.4-12.1,9.3c-1,3-1.3,6.1-1.1,9.3c0.1,1.5,0.2,3,0.3,4.5
		c-5.3,0-10.7,0-16.2,0c0.4-1.5,0.7-3,1.1-4.5c1.2-4.3,2.8-8.4,5.3-12.1c1.9-2.9,4.2-5.4,7.3-7.1c2.8-1.6,5.9-2.2,9.1-2
		c3.1,0.2,6.1,1.1,8.9,2.4C55.3,6.8,55.3,6.8,55.5,6.9z"/>
	<path class="st1" d="M18,38.9c-0.5,0-1,0-1.5,0c0-0.7,0-1.3,0-2c10.4,0,20.8,0,31.3,0c0,0.6,0,1.3,0,2c-0.6,0-1.2,0-1.7,0
		c-0.1,0.9-0.2,1.8-0.4,2.7c-0.6,2.4-2.4,3.8-4.9,4.1c-1.4,0.1-2.7,0-4-0.5c-2.1-0.9-3.1-2.6-3.6-4.7c-0.1-0.5-0.2-1.1-0.3-1.6
		c-0.6,0-1.2,0-1.8,0c-0.1,0.6-0.2,1.3-0.4,1.9c-0.7,2.7-2.3,4.3-5.1,4.8c-1.3,0.2-2.6,0.2-3.9-0.3c-2.2-0.7-3.2-2.4-3.6-4.6
		C18.1,40.1,18,39.5,18,38.9z"/>
	<path class="st2" d="M16.5,31.2c10.4,0,20.8,0,31.3,0c0,1.5,0,3,0,4.5c-10.4,0-20.8,0-31.3,0C16.5,34.2,16.5,32.7,16.5,31.2z"/>
	<path class="st3" d="M16.5,30.1c0.1-7-3.2-11.9-9.3-15c3.1-1.1,14.5,1.1,18.5,3.6c-0.6,1.9-1.3,3.7-1.9,5.6s-1,3.8-1.5,5.8
		C20.5,30.1,18.5,30.1,16.5,30.1z"/>
	<path class="st4" d="M41.2,17.5c3.2-1.8,11.7-3.1,15.9-2.5c-6.2,3.1-9.5,8-9.4,15c-2.3,0-4.5,0-6.9,0
		C40.3,25.9,40.1,21.7,41.2,17.5z"/>
	<path class="st5" d="M7.8,6.8C8.9,6.4,10,6,11.1,5.6c2.2-0.8,4.4-1.2,6.7-1.3c4.8-0.1,8.9,1.7,12.3,5c0.3,0.3,0.6,0.5,0.9,0.8
		c-2,2.4-3.5,4.9-4.7,7.6c-1.2-0.5-2.3-1-3.5-1.5C20.2,9.2,14.9,6.6,7.8,6.8z"/>
	<path class="st6" d="M4.8,4.3c1.4,0,2.5,1.1,2.5,2.5S6.2,9.3,4.8,9.3S2.3,8.2,2.3,6.8S3.4,4.3,4.8,4.3z"/>
	<path class="st6" d="M61.1,6.8c0,1.4-1.1,2.5-2.5,2.5s-2.5-1.1-2.5-2.5s1.1-2.5,2.5-2.4C60,4.3,61.1,5.4,61.1,6.8z"/>
	<path class="st7" d="M57.7,14.5c0-1.4,1.1-2.5,2.5-2.5s2.5,1.1,2.5,2.5S61.6,17,60.2,17S57.7,15.9,57.7,14.5z"/>
	<path class="st6" d="M6.7,14.7c0,1.4-1.1,2.5-2.5,2.5s-2.5-1.1-2.5-2.5s1.1-2.5,2.5-2.5C5.6,12.2,6.7,13.3,6.7,14.7z"/>
</g>
<g class="st8">
	<path class="st9" d="M70.9,40.5c-0.5,0.4-1,0.7-1.5,0.9s-1,0.4-1.5,0.5c-0.5,0.1-1,0.1-1.5,0.1c-1.1,0-2.2-0.3-3.1-0.9
		c-1-0.6-1.8-1.4-2.5-2.5c-0.7-1-1.3-2.3-1.7-3.7s-0.6-2.9-0.6-4.5c0-1.9,0.2-3.6,0.6-5.1c0.4-1.5,1-2.8,1.7-3.8
		c0.7-1,1.6-1.8,2.6-2.4c1-0.6,2.1-0.8,3.3-0.8c1.2,0,2.2,0.3,3.1,0.9c0.9,0.6,1.6,1.2,2.2,1.8l-3.3,6.7c-0.2-0.3-0.5-0.5-0.8-0.7
		c-0.3-0.2-0.6-0.3-0.9-0.4c-0.3-0.1-0.6-0.1-0.9-0.1c-0.3,0-0.5,0.1-0.7,0.3c-0.3,0.3-0.6,0.6-0.8,0.9s-0.4,0.7-0.5,1.1
		C64,29.3,64,29.7,64,30.2s0.1,1,0.3,1.5c0.3,1,0.8,1.7,1.4,1.9c0.6,0.2,1.3,0.1,1.9-0.4l1.3-1l3.4,7C71.8,39.7,71.4,40.1,70.9,40.5
		z"/>
	<path class="st9" d="M87.4,28.5c0.2,1.8,0.1,3.4-0.2,5s-0.7,2.9-1.3,4.1c-0.6,1.2-1.4,2.1-2.3,2.9c-0.9,0.8-1.9,1.3-3,1.5
		c-1.1,0.2-2.2,0.2-3.2-0.2c-1-0.3-1.9-0.9-2.7-1.8s-1.5-2-2-3.3c-0.5-1.4-0.9-2.9-1-4.7c-0.2-1.8-0.1-3.4,0.2-5
		c0.3-1.5,0.7-2.9,1.3-4.1c0.6-1.2,1.4-2.2,2.3-2.9c0.9-0.8,1.9-1.3,3-1.5c1.1-0.2,2.2-0.2,3.2,0.2c1,0.3,1.9,0.9,2.7,1.8
		c0.8,0.9,1.5,2,2,3.3C86.9,25.2,87.2,26.7,87.4,28.5z M76.9,31.8c0.3,1,0.7,1.7,1.3,2c0.6,0.3,1.3,0.2,2.1-0.3
		c0.8-0.5,1.3-1.2,1.6-2.1s0.3-1.8,0-2.8c-0.3-1-0.7-1.6-1.3-2s-1.3-0.2-2.1,0.3c-0.8,0.5-1.3,1.2-1.6,2.1
		C76.7,29.9,76.7,30.8,76.9,31.8z"/>
	<path class="st9" d="M103.5,28.1c0-0.5-0.1-0.9-0.3-1.2s-0.5-0.5-0.9-0.5c-0.4,0-0.7,0.2-0.9,0.6c-0.2,0.4-0.3,0.8-0.3,1.2
		l0.1,13.2l-5.4,0.7l0.1-14c0-0.5-0.1-0.9-0.3-1.3c-0.2-0.3-0.6-0.5-1-0.5c-0.3,0-0.6,0.2-0.9,0.5s-0.4,0.7-0.4,1.3l0.2,14l-5.2-0.7
		l-0.3-22l5.1-0.7v3.6h0c0.5-1.1,1.1-2,1.8-2.6c0.7-0.6,1.5-0.9,2.4-0.9c0.8,0,1.4,0.2,2,0.6c0.5,0.4,1,1,1.4,1.8
		c0.4-0.7,0.9-1.3,1.5-1.7s1.2-0.6,1.8-0.6c0.7,0,1.4,0.2,2,0.6c0.6,0.4,1.1,1,1.4,1.7c0.4,0.7,0.7,1.6,0.9,2.5c0.2,1,0.3,2,0.3,3.1
		l0.1,14.7l-5.4,0.7L103.5,28.1z"/>
	<path class="st9" d="M110.4,10.1l5.7-0.4l-0.3,6.8l-5.4,0.6L110.4,10.1z M110.4,19.9l5.5-0.7l-0.3,22.3l-5.3,0.7V19.9z"/>
	<path class="st9" d="M129.1,40.5c-0.5,0.4-1,0.7-1.5,0.9c-0.5,0.2-1,0.4-1.5,0.5c-0.5,0.1-1,0.1-1.5,0.1c-1.1,0-2.2-0.3-3.1-0.9
		c-1-0.6-1.8-1.4-2.5-2.5c-0.7-1-1.3-2.3-1.7-3.7s-0.6-2.9-0.6-4.5c0-1.9,0.2-3.6,0.6-5.1c0.4-1.5,1-2.8,1.7-3.8
		c0.7-1,1.6-1.8,2.6-2.4c1-0.6,2.1-0.8,3.3-0.8s2.2,0.3,3.1,0.9c0.9,0.6,1.6,1.2,2.2,1.8l-3.3,6.7c-0.2-0.3-0.5-0.5-0.8-0.7
		c-0.3-0.2-0.6-0.3-0.9-0.4c-0.3-0.1-0.6-0.1-0.9-0.1c-0.3,0-0.5,0.1-0.7,0.3c-0.3,0.3-0.6,0.6-0.8,0.9s-0.4,0.7-0.5,1.1
		c-0.1,0.4-0.2,0.9-0.2,1.3c0,0.5,0.1,1,0.3,1.5c0.3,1,0.8,1.7,1.4,1.9c0.6,0.2,1.3,0.1,1.9-0.4l1.3-1l3.4,7
		C130.1,39.7,129.6,40.1,129.1,40.5z"/>
	<path class="st9" d="M145.6,28.5c0.2,1.8,0.1,3.4-0.2,5s-0.7,2.9-1.3,4.1c-0.6,1.2-1.4,2.1-2.3,2.9c-0.9,0.8-1.9,1.3-3,1.5
		c-1.1,0.2-2.2,0.2-3.2-0.2c-1-0.3-1.9-0.9-2.7-1.8s-1.5-2-2-3.3c-0.5-1.4-0.9-2.9-1-4.7c-0.2-1.8-0.1-3.4,0.2-5s0.7-2.9,1.3-4.1
		c0.6-1.2,1.4-2.2,2.3-2.9c0.9-0.8,1.9-1.3,3-1.5c1.1-0.2,2.2-0.2,3.2,0.2c1,0.3,1.9,0.9,2.7,1.8c0.8,0.9,1.5,2,2,3.3
		S145.5,26.7,145.6,28.5z M135.2,31.8c0.3,1,0.7,1.7,1.3,2c0.6,0.3,1.3,0.2,2.1-0.3c0.8-0.5,1.3-1.2,1.6-2.1s0.3-1.8,0-2.8
		c-0.3-1-0.7-1.6-1.3-2c-0.6-0.3-1.3-0.2-2.1,0.3c-0.8,0.5-1.3,1.2-1.6,2.1C134.9,29.9,134.9,30.8,135.2,31.8z"/>
	<path class="st9" d="M161,28.5c0.2,1.8,0.1,3.4-0.2,5s-0.7,2.9-1.3,4.1s-1.4,2.1-2.3,2.9c-0.9,0.8-1.9,1.3-3,1.5
		c-1.1,0.2-2.2,0.2-3.2-0.2c-1-0.3-1.9-0.9-2.7-1.8s-1.5-2-2-3.3c-0.5-1.4-0.9-2.9-1-4.7c-0.2-1.8-0.1-3.4,0.2-5
		c0.3-1.5,0.7-2.9,1.3-4.1c0.6-1.2,1.4-2.2,2.3-2.9c0.9-0.8,1.9-1.3,3-1.5s2.2-0.2,3.2,0.2c1,0.3,1.9,0.9,2.7,1.8
		c0.8,0.9,1.5,2,2,3.3S160.8,26.7,161,28.5z M150.5,31.8c0.3,1,0.7,1.7,1.3,2c0.6,0.3,1.3,0.2,2.1-0.3c0.8-0.5,1.3-1.2,1.6-2.1
		s0.3-1.8,0-2.8c-0.3-1-0.7-1.6-1.3-2c-0.6-0.3-1.3-0.2-2.1,0.3c-0.8,0.5-1.3,1.2-1.6,2.1C150.3,29.9,150.3,30.8,150.5,31.8z"/>
	<path class="st9" d="M161.7,11.1l5.6-0.7l-0.2,31.1l-5.2,0.7L161.7,11.1z"/>
</g>
</svg>
