<?xml version="1.0" encoding="utf-8"?>
<!-- Generator: Adobe Illustrator 25.0.1, SVG Export Plug-In . SVG Version: 6.00 Build 0)  -->
<svg version="1.1" id="svg14" xmlns="http://www.w3.org/2000/svg" xmlns:xlink="http://www.w3.org/1999/xlink" x="0px" y="0px"
	 viewBox="0 0 238 274.2" style="enable-background:new 0 0 238 274.2;" xml:space="preserve">

<path id="path2" class="st0" d="M162.6,203.1c-1.5,12.9-9.3,23.3-21.4,28.4c-6.8,2.9-15.8,4.4-23.1,4c-11.2-0.5-21.6-3.2-31.4-8.1
	c-3.4-1.9-8.6-5.3-12.6-8.6c-1-0.9-1.1-1.4-0.4-2.4c0.3-0.6,1-1.6,2.4-3.7c2.2-3.1,2.4-3.5,2.6-3.9c0.7-1,1.8-1.1,2.9-0.3
	c0.2,0.2,0.2,0.2,0.2,0.2c0.1,0.2,0.1,0.2,0.5,0.5c0.4,0.3,0.7,0.5,0.8,0.6c10.5,8.2,22.6,12.8,34.9,13.3
	c17.1-0.2,29.3-7.9,31.6-19.8c2.3-12.9-7.8-24.2-27.7-30.4c-6.3-1.9-22-8.2-24.9-9.9c-13.6-8-20-18.5-19.1-31.5
	c1.4-18,18.1-31.3,39.2-31.4c9.4,0,18.8,2,27.7,5.7c3.2,1.4,9,4.5,10.9,6c1.1,0.9,1.4,1.8,0.7,2.8c-0.2,0.6-0.9,1.6-2.1,3.6l0,0
	c-1.7,2.7-1.8,2.8-2.1,3.4c-0.6,1-1.5,1.1-2.7,0.4c-9.6-6.5-20.4-9.8-32.1-10c-14.6,0.2-25.7,9-26.4,20.9
	c-0.1,10.7,7.9,18.6,25.3,24.5C151.7,168.8,165.1,182.1,162.6,203.1 M119,17.7c23,0,41.7,21.8,42.6,49.1H76.4
	C77.2,39.5,96,17.7,119,17.7 M238,72c0-2.8-2.2-5.2-5-5.2h-0.2h-55.1C176.3,30.8,150.5,2,119,2C87.5,2,61.7,30.8,60.4,66.8H5
	c-2.8,0.1-5,2.3-5,5.2c0,0.2,0,0.2,0,0.4H0l7.9,173.8c0,0.5,0.1,0.9,0.1,1.5c0,0.1,0,0.1,0,0.4v0.3l0.1,0.1
	c1.2,12.1,9.9,21.8,21.9,22.3v0.1h175.5c0.1,0,0.1,0,0.2,0c0.1,0,0.1,0,0.2,0h0.4v-0.1c12.1-0.3,22.1-10.1,23-22.4l0,0l0.1-0.2
	c0-0.1,0-0.2,0-0.4c0-0.4,0.1-0.6,0.1-0.9L238,72.2l0,0C238,72.2,238,72.1,238,72"/>
</svg>
