<?xml version="1.0" encoding="utf-8"?>
<!-- Generator: Adobe Illustrator 25.0.1, SVG Export Plug-In . SVG Version: 6.00 Build 0)  -->
<svg version="1.1" id="Layer_1" xmlns="http://www.w3.org/2000/svg" xmlns:xlink="http://www.w3.org/1999/xlink" x="0px" y="0px"
	 viewBox="0 0 342.8 507" style="enable-background:new 0 0 342.8 507;" xml:space="preserve">
<style type="text/css">
	.st0{fill:#EA501F;}
	.st1{fill:#FFFFFF;}
</style>
<path class="st0" d="M-1.4,467.9c-1.6-1.1-2.1-3.3-1-5c1.1-1.6,3.3-2.1,5-1c1,0.7,2.1,1.4,3.3,2.1c8.2,5,15.9,7.5,22.2,7.5
	c5.7,0,10.4-2.2,13.3-6.5l0,0c0.2-0.3,0.4-0.5,0.4-0.7c0.8-1.4,1.5-2.8,1.9-4.2c0.8-2.9,0.7-5.9-0.5-8.6c-1.2-2.9-3.7-5.6-7.5-7.9
	l0,0c-2.5-1.5-5.7-2.9-9.5-4c-9.7-2.7-16.8-6.6-20.7-11.7c-4.2-5.7-4.5-12.5,0-20.8c3-5.5,9.1-8.9,16.9-9.5c6.7-0.5,14.8,1.1,23,5.3
	c1.8,0.9,2.5,3.1,1.6,4.8c-0.9,1.8-3.1,2.5-4.8,1.6c-7-3.6-13.7-4.9-19.2-4.5c-5.3,0.4-9.4,2.5-11.1,5.8c-3,5.5-3,9.8-0.5,13.1
	c2.8,3.8,8.7,6.8,16.8,9.1c4.4,1.2,8.1,2.9,11.2,4.8l0,0c5.1,3.1,8.5,7,10.3,11.2c1.9,4.3,2.1,9,0.8,13.4c-0.6,2-1.5,4.1-2.7,6
	c-0.3,0.4-0.5,0.8-0.6,1l0,0c-4.3,6.4-11.1,9.6-19.3,9.6c-7.6,0-16.5-2.8-25.9-8.5C1.1,469.5-0.1,468.8-1.4,467.9z"/>
<path class="st0" d="M62.5,401c0-1.9,1.6-3.4,3.6-3.4s3.6,1.5,3.6,3.4v74.3c0,1.9-1.6,3.4-3.6,3.4s-3.6-1.5-3.6-3.4V401z"/>
<path class="st0" d="M69.9,447.3c-1.3,1.5-3.5,1.8-5.1,0.5c-1.5-1.3-1.8-3.5-0.5-5.1c5.5-6.7,11.7-10.8,17.8-12.6
	c4.4-1.3,8.7-1.4,12.4-0.4c3.9,1.1,7.3,3.3,9.7,6.7c2.3,3.2,3.6,7.3,3.6,12.2v26.6c0,2-1.6,3.6-3.6,3.6s-3.6-1.6-3.6-3.6v-26.6
	c0-3.4-0.8-6.1-2.2-8.1c-1.4-1.9-3.3-3.2-5.7-3.9c-2.5-0.7-5.4-0.6-8.5,0.3C79.4,438.4,74.4,441.8,69.9,447.3z"/>
<path class="st0" d="M143.1,429c6.9,0,13.1,2.8,17.6,7.3l0,0c4.5,4.5,7.3,10.7,7.3,17.6s-2.8,13.1-7.3,17.6s-10.7,7.3-17.6,7.3
	s-13.1-2.8-17.6-7.3l0,0c-4.5-4.5-7.3-10.7-7.3-17.6s2.8-13.1,7.3-17.6l0,0C130,431.8,136.3,429,143.1,429L143.1,429z M155.7,441.3
	c-3.2-3.2-7.7-5.2-12.6-5.2c-4.9,0-9.3,2-12.6,5.2l0,0c-3.2,3.2-5.2,7.7-5.2,12.6s2,9.4,5.2,12.6l0,0c3.2,3.2,7.7,5.2,12.6,5.2
	s9.3-2,12.6-5.2c3.2-3.2,5.2-7.7,5.2-12.6S158.9,444.5,155.7,441.3z"/>
<path class="st0" d="M178.2,432.6c0-2,1.6-3.6,3.6-3.6s3.6,1.6,3.6,3.6v4.5c0.3-0.3,0.5-0.6,0.8-0.8l0,0c4.5-4.5,10.7-7.3,17.6-7.3
	c6.9,0,13.1,2.8,17.6,7.3l0,0c4.5,4.5,7.3,10.7,7.3,17.6s-2.8,13.1-7.3,17.6s-10.7,7.3-17.6,7.3s-13.1-2.8-17.6-7.3l0,0
	c-0.3-0.3-0.5-0.6-0.8-0.8v32.7c0,2-1.6,3.6-3.6,3.6s-3.6-1.6-3.6-3.6V432.6L178.2,432.6z M216.3,441.3c-3.2-3.2-7.7-5.2-12.6-5.2
	c-4.9,0-9.3,2-12.6,5.2l0,0c-3.2,3.2-5.2,7.7-5.2,12.6s2,9.4,5.2,12.6l0,0c3.2,3.2,7.7,5.2,12.6,5.2c4.9,0,9.3-2,12.6-5.2
	c3.2-3.2,5.2-7.7,5.2-12.6C221.5,449,219.5,444.5,216.3,441.3z"/>
<path class="st0" d="M262.5,429c6.1,0,11.7,2.4,15.8,6.6c3.4,3.4,4.8,6.8,6,10.4c3.1,10.1-2.8,9.7-4.6,9.7h-33.1
	c0.3,2.4,0.9,4.6,1.6,6.6c1.3,3.1,3.2,5.4,5.6,7c2.5,1.6,5.7,2.4,9.4,2.4c4,0,8.7-1.1,13.9-3.3c1.8-0.8,3.9,0.1,4.7,1.9
	s-0.1,3.9-1.9,4.7c-6,2.5-11.6,3.7-16.6,3.8c-5.1,0.1-9.6-1.1-13.3-3.5c-3.7-2.4-6.9-5.7-8.4-10.3c-3.4-10.1-3.5-20.1,5.1-29.4
	C250.7,431.3,256.4,429,262.5,429L262.5,429z M273.3,440.7c-2.9-2.8-6.7-4.5-10.8-4.5c-4.1,0-7.9,1.7-10.8,4.5
	c-2.1,2.1-3.8,4.7-4.7,7.7h31.1C277,445.4,275.4,442.8,273.3,440.7z"/>
<path class="st0" d="M317.1,429c6.1,0,11.7,2.4,15.8,6.6c3.4,3.4,4.8,6.8,6,10.4c3.1,10.1-2.8,9.7-4.6,9.7h-33.1
	c0.3,2.4,0.9,4.6,1.6,6.6c1.3,3.1,3.2,5.4,5.6,7c2.5,1.6,5.7,2.4,9.4,2.4c4,0,8.7-1.1,13.9-3.3c1.8-0.8,3.9,0.1,4.7,1.9
	c0.8,1.8-0.1,3.9-1.9,4.7c-6,2.5-11.6,3.7-16.6,3.8c-5.1,0.1-9.6-1.1-13.3-3.5c-3.7-2.4-6.9-5.7-8.4-10.3
	c-3.4-10.1-3.5-20.1,5.1-29.4C305.3,431.3,311,429,317.1,429L317.1,429z M327.9,440.7c-2.9-2.8-6.7-4.5-10.8-4.5
	c-4.1,0-7.9,1.7-10.8,4.5c-2.1,2.1-3.8,4.7-4.7,7.7h31.1C331.6,445.4,330,442.8,327.9,440.7z"/>
<path class="st0" d="M23.9,103.9h75.3c2.3-25.5,9.4-48.4,19.6-66.1C132.3,14.4,151.5,0,173.2,0s40.8,14.5,54.4,37.8
	c10.2,17.6,17.3,40.6,19.6,66.1h75.2c8.9,0,16.9,7.3,16.2,16.2l-15.1,210.7c-1.9,26.4-18.5,41.5-42.6,41.5H65.5
	c-26.8,0-41-18.7-42.6-41.5L7.7,120.2C7.1,111.3,15,103.9,23.9,103.9L23.9,103.9z M118,103.9h110.2c-2.2-22.1-8.3-41.7-17-56.7
	c-10-17.5-23.6-28.4-38-28.4c-14.5,0-28,10.9-38.2,28.5C126.3,62.2,120.3,81.9,118,103.9z"/>
<path class="st1" d="M118.5,298.4c-3.5-2.4-4.4-7.1-2-10.6c2.4-3.5,7.1-4.4,10.6-2c2.2,1.5,4.5,3,7,4.5c17.6,10.7,33.8,16,47.3,16
	c12.2,0,22.1-4.6,28.4-13.9l0,0c0.4-0.7,0.8-1.1,0.9-1.4c1.8-2.9,3.1-6,4-9c1.8-6.2,1.5-12.6-1-18.4c-2.7-6.1-7.9-12-16-16.9l0,0
	c-5.4-3.3-12.1-6.2-20.2-8.4c-20.6-5.8-35.8-14-44-25c-9-12.1-9.7-26.7-0.1-44.4c6.4-11.7,19.5-19,36.1-20.3
	c14.3-1.1,31.5,2.3,49,11.2c3.8,1.9,5.3,6.5,3.3,10.3s-6.5,5.3-10.3,3.3c-14.9-7.6-29.1-10.5-40.9-9.6c-11.3,0.9-19.9,5.3-23.7,12.3
	c-6.4,11.7-6.3,20.9-1.1,27.9c6,8.1,18.5,14.4,35.9,19.3c9.4,2.7,17.4,6.1,24,10.1l0,0c10.9,6.6,18.2,14.9,22.1,23.9
	c4,9.3,4.5,19.1,1.8,28.7c-1.2,4.3-3.1,8.6-5.7,12.8c-0.6,0.9-1,1.6-1.3,2.1l0,0c-9.3,13.7-23.6,20.5-41,20.6
	c-16.3,0-35.3-6-55.3-18.2C123.8,301.9,121.2,300.3,118.5,298.4z"/>
</svg>
