<?xml version="1.0" standalone="no"?>
<!DOCTYPE svg PUBLIC "-//W3C//DTD SVG 1.1//EN" "http://www.w3.org/Graphics/SVG/1.1/DTD/svg11.dtd" >
<svg xmlns="http://www.w3.org/2000/svg">
<metadata><json><![CDATA[{
	"author": "lineicons.com",
	"description": "Handcrafted Line Icons for Modern User Interfaces of Web, Android, iOS, and Desktop App Projects",
	"version": "3.0",
	"copyright": "https://lineicons.com/license/",
	"license": "CreativeCommons",
	"url": "https://lineicons.com/"
}]]></json></metadata>
<defs>
  <font id="LineIcons" horiz-adv-x="256">
    <font-face font-family="LineIcons"
      units-per-em="256" ascent="256"
      descent="0" />
    <missing-glyph horiz-adv-x="0" />
   
    <glyph glyph-name="angle-double-down"
      unicode="&#xEA11;"
      horiz-adv-x="256" d="M238.8 148.8L133.6 49.2C130.8 46.4 126 46.4 123.2 49.2L16.8 148.8C14 151.6 9.6 151.2 6.8 148.4S4.4 141.2 7.2 138.4L113.6 38.8C117.6 34.8 123.2 33.2 128.4 33.2C133.6 33.2 139.2 35.2 143.2 39.2L248.4000000000001 138.8C251.2000000000001 141.6 251.2000000000001 146 248.8000000000001 148.8C246.0000000000001 151.2 241.6000000000001 151.6 238.8000000000001 148.8zM114 111.2C118 107.2 123.6 105.6 128.8 105.6C134 105.6 139.6 107.6 143.6 111.6L248.8 211.2C251.6 214 251.6 218.4 249.2 221.2C246.4 224 242.0000000000001 224 239.2 221.6L134 121.2C131.2 118.4 126.4 118.4 123.6 121.2L17.2 220.8C14.4 223.6 10 223.6 7.2 220.8S4.8 213.6 7.6 210.8L114 111.2z" />
    <glyph glyph-name="angle-double-left"
      unicode="&#xEA12;"
      horiz-adv-x="256" d="M49.2 122.4C46.4 125.2 46.4 130 49.2 132.8L148.8 239.2C151.6 242 151.2 246.4 148.4 249.2S141.2 251.6 138.4 248.8L38.8 142.4C31.2 134.4 31.2 120.8 38.8 112.8L138.4 7.6C139.6 6 141.6 5.6 143.6 5.6C145.2 5.6 147.2 6.4 148.4 7.6C151.2 10.4 151.2 14.8 148.8 17.6L49.2 122.4zM220.8 16.8L121.2 122C118.4 124.8 118.4 129.6 121.2 132.4L220.8 238.8C223.6 241.6 223.2 246 220.4 248.8S213.2 251.2 210.4 248.4L111.2 142C103.6 134 103.6 120.4 111.2 112.4L210.8 7.2C212 5.6 214 5.2 216 5.2C217.6 5.2 219.6 6 220.8 7.2C223.6 9.6 223.6 14 220.8 16.8z" />
    <glyph glyph-name="angle-double-right"
      unicode="&#xEA13;"
      horiz-adv-x="256" d="M144.8 143.6L45.2 248.8C42.4 251.6 38 251.6 35.2 249.2C32.4 246.4 32.4 242 35.2 239.2L134.8 134C137.6 131.2 137.6 126.4 134.8 123.6L35.2 17.2C32.4 14.4 32.8 10 35.6 7.2C36.8 6 38.8 5.2 40.4 5.2C42.4 5.2 44 6 45.6 7.6L145.2 114C152.8 122 152.8 135.2 144.8 143.6zM217.2 143.2L117.2 248.4C114.4 251.2 110 251.2 107.2 248.8C104.4 246 104.4 241.6 106.8 238.8L206.4 133.6C209.2 130.8 209.2 126 206.4 123.2L107.2 16.8C104.4 14 104.8 9.6 107.6 6.8C108.8 5.6 110.8 4.8 112.4 4.8C114.4 4.8 116 5.6 117.6 7.2L217.2 113.6C224.8 121.6 224.8 134.8 217.2 143.2z" />
    <glyph glyph-name="angle-double-up"
      unicode="&#xEA14;"
      horiz-adv-x="256" d="M17.2 107.2L122.4 206.8C125.2 209.6 130 209.6 132.8 206.8L239.2 107.2C240.4 106 242.4 105.2 244.0000000000001 105.2C246.0000000000001 105.2 247.6 106 249.2 107.6C252.0000000000001 110.4 251.6 114.8 248.8 117.6L142.4 217.2C134.4 224.8 120.8 224.8 112.8 217.2L7.6 117.2C4.8 114.4 4.8 110 7.2 107.2C10 104.8 14.4 104.4 17.2 107.2zM142 144.8C134 152.4 120.4 152.4 112.4 144.8L7.2 45.2C4.4 42.4 4.4 38 6.8 35.2C9.6 32.4 14 32.4 16.8 34.8L122 134.4C124.8 137.2 129.6 137.2 132.4 134.4L238.8 34.8C240 33.6 242 32.8 243.6 32.8C245.6 32.8 247.2 33.6 248.8 35.2C251.6 38 251.2 42.4 248.4 45.2L142 144.8z" />
 
    <glyph glyph-name="arrow-down-circle"
      unicode="&#xEA1B;"
      horiz-adv-x="256" d="M128 4.8C60.4 4.8 5.2 60 5.2 128S60.4 250.8 128 250.8S250.8 196 250.8 128S195.6 4.8 128 4.8zM128 236.8C68 236.8 19.2 188 19.2 128S68 18.8 128 18.8S236.8 68 236.8 128S188 236.8 128 236.8zM128 54.8C122.8 54.8 118 56.8 114 60.4L91.6 82.4C88.8 85.2 88.8 89.6 91.6 92.4S98.8 95.2 101.6 92.4L121.2 73.2V191.2C121.2 195.2 124.4 198.4 128.4 198.4S135.6 195.2 135.6 191.2V73.2L155.2 92.4C158 95.2 162.4 95.2 165.2 92.4S168 85.2 165.2 82.4L142.8 60.4C138 56.8 132.8 54.8 128 54.8z" />
    <glyph glyph-name="arrow-down"
      unicode="&#xEA1C;"
      horiz-adv-x="256" d="M175.6 47.6C173.2 50.4 168.8 50.8 165.6 48.4L134.8 22.4V244C134.8 248 131.6 251.2 127.6 251.2S120.4 248 120.4 244V22.4L89.6 48.4C86.8 50.8 82.4 50.4 79.6 47.6C77.2 44.8 77.6 40.4 80.4 37.6L113.2 10C117.2 6.4 122.4 4.8 127.2 4.8S137.2 6.4 141.2 10L174 37.6C177.6 40 178 44.4 175.6 47.6z" />
    <glyph glyph-name="arrow-left-circle"
      unicode="&#xEA1D;"
      horiz-adv-x="256" d="M128 5.2C60 5.2 5.2 60.4 5.2 128S60 250.8 128 250.8S251.2 195.6 251.2 128S196 5.2 128 5.2zM128 236.8C68 236.8 19.2 188 19.2 128S68 19.2 128 19.2S237.2 68 237.2 128S188 236.8 128 236.8zM87.6 89.6C85.6 89.6 84 90.4 82.8 91.6L60.8 114C53.2 121.6 53.2 134 60.8 141.6L82.8 164C85.6 166.8 90 166.8 92.8 164S95.6 156.8 92.8 154L73.6 134.4H191.6C195.6 134.4 198.8 131.2 198.8 127.2S195.6 120 191.6 120H73.6L92.8 100.4C95.6 97.6 95.6 93.2000000000001 92.8 90.4C91.2 90.4 89.2 89.6 87.6 89.6z" />
    <glyph glyph-name="arrow-left"
      unicode="&#xEA1E;"
      horiz-adv-x="256" d="M42.8 78.8C40.8 78.8 38.8 79.6 37.6 81.2L10 114C3.2 122 3.2 134 10 142L37.6 174.8C40 177.6 44.4 178 47.6 175.6C50.4 173.2 50.8 168.8 48.4 165.6L22.4 134.8H244C248 134.8 251.2 131.6 251.2 127.6S248 120.4 244 120.4H22.4L48.4 89.6C50.8 86.8 50.4 82.4 47.6 79.6C46 79.2 44.4 78.8 42.8 78.8z" />
    <glyph glyph-name="arrow-right-circle"
      unicode="&#xEA20;"
      horiz-adv-x="256" d="M173.6 164.4C170.8 167.2 166.4 167.2 163.6 164.4S160.8 157.2 163.6 154.4L182.8 134.8H64.8C60.8 134.8 57.6 131.6 57.6 127.6S60.8 120.4 64.8 120.4H182.8L163.6 100.8C160.8 98 160.8 93.6000000000001 163.6 90.8C164.8 89.6000000000001 166.8 88.8 168.4 88.8C170.4 88.8 172 89.6000000000001 173.2000000000001 90.8L195.2000000000001 113.2000000000001C202.8000000000001 120.8000000000001 202.8000000000001 133.2000000000001 195.2000000000001 140.8000000000001L173.6000000000001 164.4zM128 250.8C60 250.8 4.8 196 4.8 128S60 4.8 128 4.8S251.2 60 251.2 128S196 250.8 128 250.8zM128 18.8C68 18.8 18.8 68 18.8 128S68 236.8 128 236.8S237.2 188 237.2 128S188 18.8 128 18.8z" />
    <glyph glyph-name="arrow-right"
      unicode="&#xEA21;"
      horiz-adv-x="256" d="M246 142L218.4 174.8C216 177.6 211.6 178 208.4 175.6C205.6 173.2 205.2 168.8 207.6 165.6L233.6 134.8H12C8 134.8 4.8 131.6 4.8 127.6S8 120.4 12 120.4H233.6L207.6 89.6C205.2 86.8 205.6 82.4 208.4 79.6C209.6 78.4 211.2 78 212.8 78C214.8 78 216.8 78.8 218 80.4L245.6 113.2C252.8 122 252.8 134 246 142z" />
    <glyph glyph-name="arrow-top-left"
      unicode="&#xEA22;"
      horiz-adv-x="256" d="M244 4.8C242.4 4.8 240.4 5.6 239.2 6.8L24.4 222C24 221.2 24 220.8 24 220L18.8 162.8C18.4 158.8 15.2 156 11.2 156.4C7.2 156.8 4.4 160 4.8 164L10 221.2C11.2 234.4 21.6 244.8 34.8 246L92 250.8C96 251.2 99.2 248.4 99.6 244.4C100 240.4 97.2 237.2 93.2 236.8L36 232C35.2 232 34.8 232 34 231.6L248.8 16.8C251.6 14 251.6 9.6 248.8 6.8C247.6 5.6 245.6 4.8 244 4.8z" />
    <glyph glyph-name="arrow-top-right"
      unicode="&#xEA23;"
      horiz-adv-x="256" d="M12 4.8C10.4 4.8 8.4 5.6 7.2 6.8C4.4 9.6 4.4 14 7.2 16.8L222 231.6C221.2 232 220.8 232 220 232L162.8 237.2C158.8 237.6 156 240.8 156.4 244.8C156.8 248.8 160 251.6 164 251.2L221.6 246.4C234.8 245.2 245.2 234.8 246.4 221.6L250.8 164C251.2 160 248.4 156.8 244.4 156.4C240.4 156 237.2 158.8 236.8 162.8L232 220C232 220.4 232 221.2 231.6 221.6L16.8 7.2C15.6 5.6 13.6 4.8 12 4.8z" />
    <glyph glyph-name="arrow-up-circle"
      unicode="&#xEA24;"
      horiz-adv-x="256" d="M142 195.6C134.4 203.2 122 203.2 114.4 195.6L92 173.6C89.2 170.8 89.2 166.4 92 163.6S99.2 160.8 102 163.6L121.6 182.8V64.8C121.6 60.8 124.8 57.6 128.8 57.6S136 60.8 136 64.8V182.8L155.6 163.6C156.8 162.4 158.8 161.6 160.4 161.6C162.4 161.6 164 162.4 165.2 163.6C168 166.4 168 170.8 165.2 173.6L142 195.6zM128 251.2C60 251.2 5.2 196 5.2 128S60 4.8 128 4.8S251.2 60 251.2 128S196 251.2 128 251.2zM128 18.8C68 18.8 19.2 68 19.2 128S68 237.2 128 237.2S237.2 188 237.2 128S188 18.8 128 18.8z" />
    <glyph glyph-name="arrow-up"
      unicode="&#xEA25;"
      horiz-adv-x="256" d="M174.8 218.4L142 246C134 252.8 122 252.8 114 246L81.2 218.4C78.4 216 78 211.6 80.4 208.4C82.8 205.6 87.2 205.2 90.4 207.6L121.2 233.6V12C121.2 8 124.4 4.8 128.4 4.8S135.6 8 135.6 12V233.6L166.4 207.6C167.6 206.4 169.2 206 170.8 206C172.8 206 174.8 206.8 176 208.4C178 211.6 177.6 216 174.8 218.4z" />
    <glyph glyph-name="arrows-horizontal"
      unicode="&#xEA26;"
      horiz-adv-x="256" d="M213.2 78.8C211.6 78.8 210 79.2 208.8 80.4C206 82.8 205.6 87.2 208 90.4L233.6 120.8H22.4L48 90.4C50.4 87.6 50 83.2 47.2 80.4C44.4 78 40 78.4 37.2 81.2L10 113.6C3.2 121.6 3.2 133.6 10 141.6L37.2 174C39.6 176.8 44 177.2000000000001 47.2 174.8C50 172.4 50.4 168 48 164.8L22.4 134.4H233.6L208 165.6C205.6 168.4 206 172.8 208.8 175.6C211.6 178 216 177.6 218.8 174.8L246 142.4C252.8 134.4 252.8 122.4 246 114.4L218.8 82C217.2 80 215.2 78.8 213.2 78.8z" />
    <glyph glyph-name="arrows-vertical"
      unicode="&#xEA27;"
      horiz-adv-x="256" d="M128 4.8C123.2 4.8 118 6.4 114 10L81.6 37.2C78.8 39.6 78.4 44 80.8 47.2S87.6 50.4 90.8 48L121.2 22.4V233.6L90.4 208C87.6 205.6 83.2 206 80.4 208.8C78 211.6 78.4 216 81.2 218.8L113.6 246C121.6 252.8 133.6 252.8 141.6 246L174 218.8C176.8 216.4 177.2 212 174.8 208.8C172.4 206 168 205.6 164.8 208L134.4 233.6V22.4L164.8 48C167.6 50.4 172 50 174.8 47.2S176.8 40 174 37.2L141.6 10C138 6.8 132.8 4.8 128 4.8z" />
 <glyph glyph-name="backward"
      unicode="&#xEA2B;"
      horiz-adv-x="256" d="M224.4 241.2C216.4 245.6 206.4 245.2 198.8 240L32.4 131.6V244C32.4 248 29.2 251.2 25.2 251.2S18.4 248 18.4 244V12C18.4 8 21.6 4.8 25.6 4.8S32.4 8 32.4 12V124.4L198.8 16C202.8 13.2 207.6 12 212.4 12C216.4 12 220.8 13.2 224.4 15.2C232.4 19.6 237.6 28 237.6 37.2V219.2C237.6 228.4 232.8 236.8 224.4 241.2zM223.6 36.8C223.6 32.8 221.6 29.2 218 27.2C214.4 25.2 210 25.2 206.4 27.6L52.8 128L206.4 228.4C210 230.8 214 230.8 218 228.8C221.6 226.8 223.6 223.2 223.6 219.2V36.8z" />
    <glyph glyph-name="bi-cycle"
      unicode="&#xEA32;"
      horiz-adv-x="256" d="M49.2 108.4C24.8 108.4 5.2 88.4 5.2 64.4S25.2 20.4 49.2 20.4S93.2 40.4 93.2 64.4S73.6 108.4 49.2 108.4zM49.2 34.4C32.4 34.4 19.2 48 19.2 64.4S32.8 94.4 49.2 94.4S79.2 80.8 79.2 64.4S65.6 34.4 49.2 34.4zM207.2 108.4C182.8 108.4 163.2 88.8 163.2 64.4S182.8 20.4 207.2 20.4S251.2 40 251.2 64.4S231.2 108.4 207.2 108.4zM207.2 34.4C190.8 34.4 177.2 48 177.2 64.4S190.8 94.4 207.2 94.4S237.2 80.8 237.2 64.4S223.6 34.4 207.2 34.4zM188.8 135.6C191.2 132.4 195.6 132 198.8 134.4C202 136.8 202.4 141.2 200 144.4L164.8 189.2L164 189.6C160.8 192.8 156 193.6 151.6 191.6L103.6 163.6C100.8 162 98.8 159.2 98.4 156C98 153.2 99.2 150 101.2 148L117.2 129.6C120 126.4 121.2 122.8 121.2 118.8V91.2C121.2 87.2 124.4 84 128.4 84S135.6 87.2 135.6 91.2V118.8C135.6 126 132.8 133.2 128 138.8L115.2 154L156 177.6L188.8 135.6zM196.8 189.6C209.6 189.6 220 200 220 212.8S209.6 236 196.8 236C184 236 173.6 225.6 173.6 212.8S184 189.6 196.8 189.6zM196.8 221.6C201.6 221.6 206 217.6 206 212.4C206 207.6 202 203.2 196.8 203.2C192 203.2 187.6 207.2 187.6 212.4C187.6 217.6 191.6 221.6 196.8 221.6z" />
    <glyph glyph-name="cake"
      unicode="&#xEA4C;"
      horiz-adv-x="256" d="M236 135.2H229.6V213.2C229.6 228.4 217.2 241.2 201.6 241.2H53.6C38.4 241.2 25.6 228.8 25.6 213.2V135.2H20C12 135.2 5.2 128.8 5.2 120.4V43.2C5.2 28 17.6 15.2 33.2 15.2L223.6 14.8C231.2 14.8 238.0000000000001 17.6 243.2 22.8C248.4 28 251.2 35.2 251.2 42.4V120.4C251.2 128.4 244.4 135.2 236.0000000000001 135.2zM54 227.2H202C209.6 227.2 216 220.8 216 213.2V193.6C206.4 192.4 200.8 188.8 195.6 185.6C190 182 185.6 179.2 175.6 179.2S161.2 182 155.6 185.6C149.2 189.6 142 194 128 194C114 194 106.8 189.6 100.4 185.6C94.8 182 90.4 179.2 80.4 179.2S66 182 60.4 185.6C55.2 188.8 49.6 192.4 40 193.6V213.2C40 220.8 46.4 227.2 54 227.2zM40 179.6C45.2 178.4 48.8 176.4 53.2 174C59.6 170 66.8 165.6 80.8 165.6C94.8 165.6 102 170 108.4 174C114 177.6 118.4 180.4 128.4 180.4S142.8 177.6 148.4 174C154.8 170 162 165.6 176 165.6S197.2 170 203.6 174C207.6 176.4 211.2 178.8 216.8 179.6V135.2H40V179.6zM20 121.2H236C236.4 121.2 236.8 120.8 236.8 120.4V92C224.8 90.8 217.6 86.4 211.2 82.4C204.4 78 198.4 74.4 186 74.4C173.6 74.4 167.6 78 160.8000000000001 82.4C153.2000000000001 87.2 144.4 92.4 128.0000000000001 92.4S102.8000000000001 87.2 95.2000000000001 82.4C88.4000000000001 78 82.4000000000001 74.4 70.0000000000001 74.4S51.6000000000001 78 44.8000000000001 82.4C38.4000000000001 86.4 31.2000000000001 90.8 19.2000000000001 92V120.4C19.2000000000001 120.8 19.2000000000001 121.2 20.0000000000001 121.2zM232.8 33.2C230 30.4 226.8 29.2 223.2 29.2H32.8C25.2 29.2 18.8 35.6 18.8 43.2V78.4C26.8 77.2 31.6 74.4 37.2 70.8C44.8 66 53.6 60.8 70 60.8S95.2 66 102.8 70.8C109.6 75.2 115.6 78.8 128 78.8S146.4 75.2 153.2 70.8C160.8 66 169.6 60.8 186 60.8S211.2 66 218.8 70.8C224.4 74.4 229.2 77.2 237.2 78.4V43.2C237.2 39.2 235.6 35.6 232.8 33.2z" />
    <glyph glyph-name="calendar"
      unicode="&#xEA4E;"
      horiz-adv-x="256" d="M71.2 104.8H58C55.6 104.8 54 103.2 54 100.8V88C54 85.6 55.6 84 58 84H71.2C73.6 84 75.2 85.6 75.2 88V100.8C75.2 103.2 73.6 104.8 71.2 104.8zM113.6 104.8H100.4C98 104.8 96.4 103.2 96.4 100.8V88C96.4 85.6 98 84 100.4 84H113.6C116 84 117.6 85.6 117.6 88V100.8C117.6 103.2 115.6 104.8 113.6 104.8zM155.6 104.8H142.4C140 104.8 138.4 103.2 138.4 100.8V88C138.4 85.6 140 84 142.4 84H155.6C158 84 159.6 85.6 159.6 88V100.8C159.6 103.2 158 104.8 155.6 104.8zM198 104.8H184.8C182.4 104.8 180.8 103.2 180.8 100.8V88C180.8 85.6 182.4 84 184.8 84H198C200.4 84 202 85.6 202 88V100.8C202 103.2 200 104.8 198 104.8zM71.2 63.2H58C55.6 63.2 54 61.6 54 59.2V46.4C54 44 55.6 42.4 58 42.4H71.2C73.6 42.4 75.2 44 75.2 46.4V59.2C75.2 61.6 73.6 63.2 71.2 63.2zM113.6 63.2H100.4C98 63.2 96.4 61.6 96.4 59.2V46.4C96.4 44 98 42.4 100.4 42.4H113.6C116 42.4 117.6 44 117.6 46.4V59.2C117.6 61.6 115.6 63.2 113.6 63.2zM155.6 63.2H142.4C140 63.2 138.4 61.6 138.4 59.2V46.4C138.4 44 140 42.4 142.4 42.4H155.6C158 42.4 159.6 44 159.6 46.4V59.2C159.6 61.6 158 63.2 155.6 63.2zM198 63.2H184.8C182.4 63.2 180.8 61.6 180.8 59.2V46.4C180.8 44 182.4 42.4 184.8 42.4H198C200.4 42.4 202 44 202 46.4V59.2C202 61.6 200 63.2 198 63.2zM228 193.6H134V206.8C143.2 209.2 150.4 218 150.4 228C150.4 240 140.4 250 128 250C115.6 250 105.6 240 105.6 228C105.6 218 112.4 209.6 122 206.8V193.6H28C16 193.6 6 183.6 6 171.6V28C6 16 16 6 28 6H228C240 6 250 16 250 28V171.6C250 183.6 240 193.6 228 193.6zM117.6 228C117.6 233.6 122 238 128 238C133.6 238 138.4 233.6 138.4 228S134 218 128 218C122.4 218 117.6 222.8 117.6 228zM28 181.6H228C233.6 181.6 238 177.2 238 171.6V142H18V171.6C18 177.2 22.4 181.6 28 181.6zM228 18H28C22.4 18 18 22.4 18 28V130H238V28C238 22.4 233.6 18 228 18z" />
    <glyph glyph-name="candy-cane"
      unicode="&#xEA50;"
      horiz-adv-x="256" d="M227.2 196.8C196.8 226.4 148.4 227.6 119.2 199.2L12.8 95.6C7.6 90.4 4.8 84 4.8 76.4S8 61.6 13.6 56C24.8 45.2 42.8 44.8 53.6 55.2L158.4 157.6C165.6 164.8 178 165.2 186 158.4C190.4 154.4 193.2 149.2 193.2 143.6C193.2 138.8 191.6 134 188 130.4L140.4 84C135.2 78.8 132.4 72.4 132.4 64.8S135.6 50 141.2 44.4C146.8 38.8 154.4 36 162 36C169.2 36 176 38.4 181.2 43.6L230 91.2C244 105.2 251.6 123.6 251.2 143.6C250.4 163.6 242 182.4 227.2 196.8zM44 65.2C38.4 60 29.6 60.4 23.6 66C20.8 68.8 19.2 72.4 19.2 76.4C19.2 80 20.4 83.2 22.8 85.6L50 112.4L78.4 99.2L44 65.2zM89.2 109.6L60.8 122.8L89.2 150.4L117.6 137.2L89.2 109.6zM171.2 54C165.6 48.8 156.8 49.2 150.8 54.8C148 57.6 146.4 61.2 146.4 65.2C146.4 68.8 147.6 72 150 74.4L162.4 86.4L190.8 73.2L171.2 54zM220 101.2L202 83.6L173.6 96.8L198 120.8C204.4 126.8 207.6 135.2 207.6 144C207.2 153.6 202.8 162.8 195.6 169.2C182 180.8 162 180 149.2 168L128.8 148L100 160.8L129.2 189.2C152.8 212.4 192.4 211.2 217.6 186.8C229.6 174.8 236.8 159.6 237.2 143.2C237.6 127.2 231.2 112.4 220 101.2z" />
    <glyph glyph-name="candy"
      unicode="&#xEA51;"
      horiz-adv-x="256" d="M241.6 230L229.6 242C222.8 248.8 213.6 252 204.4 250.8C194.8 249.6 186.8 244.8 181.6 236.8L166.8 214.4C141.2 222.4 111.6 216.4 91.6 196L60 164.4C46 150.4 38.4 132 38.4 112C38.4 104 39.6 96 42.4 88.4L20.4 74.4C12.4 69.2 7.2 60.8 6 51.2C4.8 41.6 8.4 32.4 15.2 25.6L27.2 13.6C33.2 7.6 41.2 4.4 49.2 4.4H52.4C61.6 5.2 70 10.4 75.2 18.4L90 41.2C97.2 38.8 104.8 37.6000000000001 112.8 37.6000000000001C132 37.6000000000001 150.8 44.8 165.2 59.2000000000001L176.8 70.8L196.4 90.4C210.4 104.4 218 122.8000000000001 218 142.8000000000001C218 150.8000000000001 216.8 158.8000000000001 214 166.4L236 180.4C244 185.6 249.6 194 250.4 203.6S248.4 223.2000000000001 241.6 230.0000000000001zM62.8 26.8C60 22.4 55.2 19.6 50 19.2C44.8 18.8 39.6 20.4 36 24L24 36C20.4 39.6 18.4 44.8 19.2 50C19.6 55.2 22.8 60 27.2 62.8L47.6 75.6000000000001C50.8 70.0000000000001 54.8 64.4000000000001 59.6 59.6000000000001C64.8 54.4000000000001 70.4 50.4000000000001 76.4 47.2L62.8 26.8zM69.6 70C58.4 81.2 52 96.4 52 112.4S58.4 143.6 69.6 154.8L76.8 162C82 158.4 86.8 157.6 90.8 156.8C95.2 156 98.8 155.2 103.2 150.8S108.4 143.2 109.2 138.4C110.4 133.2 111.6 126.4 119.2 118.8C126.8 111.2 133.2 110 138.8 109.2C143.2 108.4 146.8 107.6 151.2 103.2S156.4 95.6 157.2 90.8C158 86.8 158.8 82 162.4 76.8L155.2 69.6C131.2 46.4 93.2 46.4 69.6 70zM186.4 101.6L172.4 87.6C171.6 89.6 171.2 91.6 170.8 94C169.6 99.2 168.4 106 161.2 113.6C153.6 121.2 147.2 122.4 141.6 123.2C137.2 124 133.6 124.8 129.2 129.2S124 136.8 123.2 141.6C122 146.8 120.8 153.6 113.2 161.2C105.6 168.8 99.2 170 93.6 170.8C91.2 171.2 89.2 171.6 87.2 172.4L101.2 186.4C113.2 198 128.4 204 144 204C159.6 204 174.8 198 186.8 186.4C198 174.8 204 160 204 144S198 112.8 186.4 101.6zM228.8 193.2L208.4 180.4C205.2 186 201.2 191.6 196.4 196C191.2 201.2 185.6 205.2 180 208.4L193.2 228.8C196 233.2 200.8 236 206 236.4C211.2 237.6 216.4 235.6 220 232L232 220C235.6 216.4 237.6 211.2 236.8 206C236.4 200.8 233.2 196 228.8 193.2z" />
    <glyph glyph-name="car-alt"
      unicode="&#xEA53;"
      horiz-adv-x="256" d="M58.4 104H84.8C88.8 104 92 107.2 92 111.2S88.8 118.4 84.8 118.4H58.4C54.4 118.4 51.2 115.2 51.2 111.2S54.4 104 58.4 104zM167.6 104H194C198 104 201.2 107.2 201.2 111.2S198 118.4 194 118.4H167.6C163.6 118.4 160.4 115.2 160.4 111.2S164 104 167.6 104zM244 169.6H230.4L210.4 220.4C208 227.2 201.2 232 194 232H60.4C53.2 232 46.8 227.6 44 220.8L24 169.6H12C8 169.6 4.8 166.4 4.8 162.4S8 155.6 12 155.6H17.6V84.4C17.6 74 26 65.6 36 65.6V43.2C36 32.8 44.4 24 55.2 24H72.8C83.2 24 92 32.4 92 43.2V65.6H161.2V43.2C161.2 32.8 169.6 24 180.4 24H198C208.4 24 217.2 32.4 217.2 43.2V65.6H218.8C229.2 65.6 238 74 238 84.8V155.6H244C248 155.6 251.2 158.8 251.2 162.8S248 169.6 244 169.6zM57.2 215.6C57.6 217.2 59.2 218 60.4 218H194C195.6 218 196.8 217.2 197.2 215.6L219.6 159.2H34.8L57.2 215.6zM77.6 42.8C77.6 40 75.2 37.6 72.4 37.6H54.8C52 37.6 49.6 40 49.6 42.8V65.2H77.2V42.8zM202.4 42.8C202.4 40 200 37.6 197.2 37.6H179.6C176.8 37.6 174.4 40 174.4 42.8V65.2H202V42.8zM223.2 84.4C223.2 81.6 220.8 79.2 218 79.2H36.4C33.6 79.2 31.2 81.6 31.2 84.4V145.6H222.8V84.4z" />
    <glyph glyph-name="car"
      unicode="&#xEA54;"
      horiz-adv-x="256" d="M68.4 133.2C53.6 133.2 41.6 121.2 41.6 106.8C41.6 92.4 53.6 80.4 68.4 80.4S95.2 92.4 95.2 106.8C95.2 121.6 83.2 133.2 68.4 133.2zM68.4 94.8C61.2 94.8 55.6 100.4 55.6 107.2S61.2 119.6 68.4 119.6S81.2 114 81.2 107.2S75.6 94.8 68.4 94.8zM187.2 134C172.4 134 160.4 122 160.4 107.6S172.4 81.2 187.2 81.2S214 93.2 214 107.6S202 134 187.2 134zM187.2 94.8C180 94.8 174.4 100.4 174.4 107.2S180 119.6 187.2 119.6C194.4 119.6 200 114 200 107.2S194.4 94.8 187.2 94.8zM138 114.4H118C114 114.4 110.8 111.2 110.8 107.2S114 100 118 100H138C142 100 145.2 103.2 145.2 107.2S141.6 114.4 138 114.4zM232.8 162.4L228.8 204.8C227.2 226.8 207.2 244 183.2 244H72.8C48.8 244 28.8 226.8 27.2 204.8L23.2 162.4C12.8 160 4.8 150.8 4.8 140V74.4C4.8 61.6 15.2 51.2 28 51.2H31.6V30.4C31.6 20 40 11.2 50.8 11.2H66.4C76.8 11.2 85.6 19.6 85.6 30.4V51.2H170.8V30.4C170.8 20 179.2 11.2 190 11.2H205.6C216 11.2 224.8 19.6 224.8 30.4V51.2H228C240.8 51.2 251.2 61.6 251.2 74.4V140C251.2 151.2 243.2 160.4 232.8 162.4zM40.8 203.6C42 218.4 56 230 72.8 230H183.2C200 230 213.6 218.4 215.2 203.6L218.8 162.8H37.2L40.8 203.6zM71.6 30.8C71.6 28 69.2 25.6 66.4 25.6H50.8C48 25.6 45.6 28 45.6 30.8V51.6H71.2V30.8zM210.4 30.8C210.4 28 208 25.6 205.2000000000001 25.6H189.6000000000001C186.8000000000001 25.6 184.4000000000001 28 184.4000000000001 30.8V51.6H210.0000000000001V30.8zM237.2000000000001 74.4C237.2000000000001 69.6 233.2000000000001 65.2 228.0000000000001 65.2H28C23.2 65.2 18.8 69.2 18.8 74.4V140C18.8 144.8 22.8 149.2 28 149.2H228C232.8 149.2 237.2 145.2 237.2 140V74.4z" />
 
    <glyph glyph-name="cart-full"
      unicode="&#xEA56;"
      horiz-adv-x="256" d="M148.4 63.2C132.4 63.2 119.6 50 119.6 34S132.4 4.8 148.4 4.8S177.2 18 177.2 34S164.4 63.2 148.4 63.2zM148.4 18.8C140 18.8 133.6 25.6 133.6 34S140.4 49.2 148.4 49.2C156.8 49.2 163.2 42.4 163.2 34S156.8 18.8 148.4 18.8zM71.6 63.2C55.6 63.2 42.8 50 42.8 34S55.6 4.8 71.6 4.8S100.4 18 100.4 34S87.6 63.2 71.6 63.2zM71.6 18.8C63.2 18.8 56.8 25.6 56.8 34S63.6 49.2 71.6 49.2C80 49.2 86.4 42.4 86.4 34S80 18.8 71.6 18.8zM233.6 250.8H212C203.2 250.8 195.6 244.4 194.4 235.6L187.6 187.2H166.8V219.2C166.8 225.2 162 230 156 230H124.4C124 236 119.6 240.4 114 240.4H79.2C73.2 240.4 68.4 235.2 68.4 228.8V219.2H36.8C30.8 219.2 26 214.8 26 208.8V187.2C22.8 186.8 19.6 185.6 17.6 182.8C15.6 180 14.8 176.4 15.6 173.2V172.8L40.4 97.2C41.6 92.4 46.4 88.8 51.6 88.8H163.2C177.2 88.8 189.2 99.2 191.2 113.2L208.4 233.6C208.8 235.2 210 236.8 212 236.8H233.6C237.6 236.8 240.8 240 240.8 244S237.6 250.8 233.6 250.8zM152.8 187.6H124.4V216H152.8V187.6zM82.4 226.4H110.8V187.6H82.4V226.4zM40 205.2H68.4V187.6H40V205.2zM177.2 115.2C176.4 108.4 170 102.8 163.2 102.8H53.6L30.4 173.6H186L177.2 115.2z" />
    <glyph glyph-name="cart"
      unicode="&#xEA57;"
      horiz-adv-x="256" d="M163.6 63.2C148 63.2 135.2 50 135.2 34S148 4.8 163.6 4.8S192 18 192 34C192.4 50 179.6 63.2 163.6 63.2zM163.6 18.8C155.6 18.8 149.2 25.6 149.2 34C149.2 42.4 155.6 49.2 163.6 49.2S178 42.4 178 34C178.4 25.6 171.6 18.8 163.6 18.8zM72.8 63.2C57.2 63.2 44.4 50 44.4 34S57.2 4.8 72.8 4.8S101.2 18 101.2 34C101.6 50 88.8 63.2 72.8 63.2zM72.8 18.8C64.8 18.8 58.4 25.6 58.4 34C58.4 42.4 64.8 49.2 72.8 49.2S87.2 42.4 87.2 34C87.6 25.6 80.8 18.8 72.8 18.8zM231.2 250.8H205.6C199.6 250.8 194.4 246.4 193.6 240.4L186.4 187.6H29.2C25.6 187.6 22.4 186 20.4 183.2C18.4 180.4 17.6 176.8 18.4 173.6V173.2L42.8 97.6C44 92.8 48.4 89.2 54 89.2H172C180.8 89.2 188 95.6 189.2 104.4L207.6 237.2H231.6C235.6 237.2 238.8 240.4 238.8 244.4S235.2 250.8 231.2 250.8zM174.8 106.4C174.4 104.8 173.2 103.2 171.2 103.2H55.2L32.4 173.6H184L174.8 106.4z" />
  
    <glyph glyph-name="check-box"
      unicode="&#xEA59;"
      horiz-adv-x="256" d="M248.8 222.4C246 225.2 241.6 225.2 238.8 222.4L220 203.6V216.4C220 226.8 211.6 235.6 200.8 235.6H24C13.6 235.6 4.8 227.2 4.8 216.4V39.2C4.8 28.8 13.2 20 24 20H201.2C211.6 20 220.4 28.4 220.4 39.2V183.6L249.2 212.4C251.6 215.2 251.6 220 248.8 222.4zM206 39.6C206 36.8 203.6 34.4 200.8 34.4H24C21.2 34.4 18.8 36.8 18.8 39.6V216.4C18.8 219.2 21.2 221.6 24 221.6H201.2C204 221.6 206.4 219.2 206.4 216.4V189.2L161.6 144.8L134.4 172C131.6 174.8 127.2 174.8 124.4 172S121.6 164.8 124.4 162L156.8 129.6C157.2 129.2 157.2 129.2 157.6 129.2L158 128.8C158.4 128.8 158.4 128.4 158.8000000000001 128.4L159.2000000000001 128C159.6000000000001 128 159.6000000000001 128 160.0000000000001 127.6H163.2C163.6 127.6 163.6 127.6 164 128C164.4 128 164.4 128.4 164.4 128.4C164.8 128.4 164.8 128.8 165.2 128.8L165.6 129.2C166 129.2 166 129.6 166.4 129.6L206 169.6V39.6z" />
    <glyph glyph-name="checkmark-circle"
      unicode="&#xEA5A;"
      horiz-adv-x="256" d="M128 4.8C60 4.8 5.2 60 5.2 128S60 250.8 128 250.8S251.2 196 251.2 128S196 4.8 128 4.8zM128 236.8C68 236.8 19.2 188 19.2 128S68 18.8 128 18.8S237.2 68 237.2 128S188 236.8 128 236.8zM114.4 100C111.6 100 109.2 100.8 106.8 102.8L80.4 128.4C77.6 131.2 77.6 135.6 80.4 138.4S87.6 141.2 90.4 138.4L114.4 114.8L165.6 164.4C168.4 167.2 172.8 167.2 175.6 164.4S178.4 157.2 175.6 154.4L122.4 102.4C119.6 100.8 116.8 100 114.4 100z" />
    <glyph glyph-name="checkmark"
      unicode="&#xEA5B;"
      horiz-adv-x="256" d="M249.2 205.2C246.4 208 242 208 239.2 205.2L93.2 63.6C92 62.4 90.4 62.4 89.2 63.6L16.8 134C14 136.8 9.6 136.8 6.8 134S4 126.8 6.8 124L79.2 53.6C82.4 50.4 86.8 48.8 90.8 48.8C95.2 48.8 99.2 50.4 102.4 53.6L248.4 195.2C251.6 198 251.6 202.4 249.2 205.2z" />
 
    <glyph glyph-name="chevron-down-circle"
      unicode="&#xEA5D;"
      horiz-adv-x="256" d="M187.2 154.8L128 114.4L68.8 154.8C65.6 156.8 61.2 156 59.2 152.8S58 145.2 61.2 143.2L122.8 101.6C124 100.4 126 100 128 100S132 100.4 134 101.6L195.2 143.2C198.4 145.2 199.2 149.6 197.2 152.8C194.8 156.4 190.4 157.2 187.2 154.8zM128 250.8C60 250.8 5.2 196 5.2 128S60 4.8 128 4.8S251.2 60 251.2 128S196 250.8 128 250.8zM128 18.8C68 18.8 19.2 68 19.2 128S68 236.8 128 236.8S237.2 188 237.2 128S188 18.8 128 18.8z" />
    <glyph glyph-name="chevron-down"
      unicode="&#xEA5E;"
      horiz-adv-x="256" d="M128 68.8C123.2 68.8 118.4 70.4 114.4 74L7.2 174.8C4.4 177.6 4.4 182 6.8 184.8C9.6 187.6 14 187.6 16.8 185.2L124 84.4C126 82.4 129.6 82.4 132 84.4L239.2 185.2C242 188 246.4 187.6 249.2 184.8S251.6 177.6 248.8 174.8L141.6 74.4C137.6 70.8 132.8 68.8 128 68.8z" />
    <glyph glyph-name="chevron-left-circle"
      unicode="&#xEA5F;"
      horiz-adv-x="256" d="M114.4 128L154.8 187.6C156.8 190.8 156 195.2 152.8 197.2S145.2 198.4 143.2 195.2L101.6 133.6C99.2 130.4 99.2 125.2 101.6 122L143.2 60.8C144.4 58.8 146.8 57.6 148.8 57.6C150 57.6 151.6 58 152.8 58.8C156 60.8 156.8 65.2 154.8 68.4L114.4 128zM128 250.8C60 250.8 5.2 196 5.2 128S60 4.8 128 4.8S251.2 60 251.2 128S196 250.8 128 250.8zM128 18.8C68 18.8 19.2 68 19.2 128S68 236.8 128 236.8S237.2 188 237.2 128S188 18.8 128 18.8z" />
    <glyph glyph-name="chevron-left"
      unicode="&#xEA60;"
      horiz-adv-x="256" d="M180 4.8C178 4.8 176.4 5.6 174.8 7.2L74.4 114.4C67.6 122 67.6 134 74.4 141.2L174.8 248.8C177.6 251.6 182 251.6 184.8 249.2C187.6 246.4 187.6 242 185.2 239.2L84.4 132C82.4 130 82.4 126.4 84.4 124L185.2 16.8C188 14 187.6 9.6 184.8 6.8C183.6 5.6 181.6 4.8 180 4.8z" />
    <glyph glyph-name="chevron-right-circle"
      unicode="&#xEA61;"
      horiz-adv-x="256" d="M112.8 195.2C110.8 198.4 106.4 199.2 103.2 197.2C100 195.2 99.2 190.8 101.2 187.6L141.6 128L101.2 68.8C99.2 65.6 100 61.2 103.2 59.2C104.4 58.4 105.6 58 107.2 58C109.6 58 111.6 59.2 112.8 61.2L154.4 122.8C156.8 126 156.8 131.2 154.4 134.4L112.8 195.2zM128 250.8C60 250.8 5.2 196 5.2 128S60 4.8 128 4.8S251.2 60 251.2 128S196 250.8 128 250.8zM128 18.8C68 18.8 19.2 68 19.2 128S68 236.8 128 236.8S237.2 188 237.2 128S188 18.8 128 18.8z" />
    <glyph glyph-name="chevron-right"
      unicode="&#xEA62;"
      horiz-adv-x="256" d="M76 4.8C74.4 4.8 72.4 5.6 71.2 6.8C68.4 9.6 68.4 14 70.8 16.8L171.6 124C173.6 126 173.6 129.6 171.6 132L70.8 239.2C68 242 68.4 246.4 71.2 249.2S78.4 251.6 81.2 248.8L182 141.6C188.8 134 188.8 122 182 114.8L81.2 7.2C79.6 5.6 78 4.8 76 4.8z" />
    <glyph glyph-name="chevron-up-circle"
      unicode="&#xEA63;"
      horiz-adv-x="256" d="M195.2 112.8L133.6 154.4C130.4 156.8 125.2 156.8 122 154.4L60.8 112.8C57.6 110.8 56.8 106.4 58.8 103.2C60.8 100 65.2 99.2 68.4 101.2L128 141.6L187.6 101.2C188.8 100.4 190 100 191.6 100C194 100 196 101.2 197.6 103.2C199.2 106 198.4 110.4 195.2 112.8zM128 250.8C60 250.8 5.2 196 5.2 128S60 4.8 128 4.8S251.2 60 251.2 128S196 250.8 128 250.8zM128 18.8C68 18.8 19.2 68 19.2 128S68 236.8 128 236.8S237.2 188 237.2 128S188 18.8 128 18.8z" />
    <glyph glyph-name="chevron-up"
      unicode="&#xEA64;"
      horiz-adv-x="256" d="M244 68.8C242.4 68.8 240.4 69.6 239.2 70.8L132 171.6C130 173.6 126.4 173.6 124 171.6L16.8 70.8C14 68 9.6 68.4 6.8 71.2S4.4 78.4 7.2 81.2L114.4 182C122 188.8 134 188.8 141.2 182L248.4000000000001 81.2C251.2000000000001 78.4 251.2000000000001 74 248.8000000000001 71.2C247.6000000000001 69.6 246.0000000000001 68.8 244.0000000000001 68.8z" />
 
    <glyph glyph-name="circle-minus"
      unicode="&#xEA67;"
      horiz-adv-x="256" d="M170.4 135.2S170 135.2 170.4 135.2H86C82 135.2 79.2 132 79.2 128S82.4 121.2 86.4 121.2H170.8C174.8 121.2 177.6 124.4 177.6 128.4C177.2 132 174 135.2 170.4 135.2zM128 250.8C60 250.8 5.2 196 5.2 128S60 4.8 128 4.8S251.2 60 251.2 128S196 250.8 128 250.8zM128 18.8C68 18.8 19.2 68 19.2 128S68 236.8 128 236.8S237.2 188 237.2 128S188 18.8 128 18.8z" />
    <glyph glyph-name="circle-plus"
      unicode="&#xEA68;"
      horiz-adv-x="256" d="M170.4 135.2S170 135.2 170.4 135.2H135.2V170.4C135.2 174.4 132 177.2 128 177.2S121.2 174 121.2 170V134.8H86C82 134.8 79.2 131.6 79.2 127.6S82.4 120.8 86.4 120.8H121.6V85.6C121.6 81.6 124.8 78.8 128.8 78.8S135.6 81.9999999999999 135.6 85.9999999999999V121.1999999999999H170.8C174.8 121.1999999999999 177.6 124.3999999999999 177.6 128.3999999999999C177.2 132 174 135.1999999999999 170.4 135.1999999999999zM128 250.8C60 250.8 5.2 196 5.2 128S60 4.8 128 4.8S251.2 60 251.2 128S196 250.8 128 250.8zM128 18.8C68 18.8 19.2 68 19.2 128S68 236.8 128 236.8S237.2 188 237.2 128S188 18.8 128 18.8z" />
    <glyph glyph-name="clipboard"
      unicode="&#xEA69;"
      horiz-adv-x="256" d="M184 219.2H175.2V226C175.2 234 168.8 240.8 160.8 240.8H134.8V244C134.8 248 131.6 251.2 128 251.2S120.8 248 120.8 244V240.4H94.8C86.8 240.4 80.4 234 80.4 225.6V219.2H72C60 219.2 50.4 209.2 50.4 196.8V26.8C50.4 14.4 60 4.4 72 4.4H184C196 4.4 205.6 14.4 205.6 26.8V197.2C205.6 209.6 196 219.2 184 219.2zM94.4 226C94.4 226.4 94.8 226.4 94.8 226.8H161.2S161.6 226.4 161.6 226V199.6C161.6 199.2 161.2 199.2 161.2 198.8H95.2S94.8 199.2 94.8 199.6V226zM191.6 27.2C191.6 22.8 188.4 18.8 184 18.8H72C68 18.8 64.4 22.4 64.4 27.2V197.2C64.4 201.6 67.6 205.6 72 205.6H80.8V199.2C80.8 191.2 87.2 184.4 95.2 184.4H161.6C169.6 184.4 176 190.8 176 199.2V205.6H184C188 205.6 191.6 202 191.6 197.2V27.2z" />
    <glyph glyph-name="close"
      unicode="&#xEA6A;"
      horiz-adv-x="256" d="M138 128L248.8 239.2C251.6 242 251.6 246.4 248.8 249.2S241.6 252 238.8 249.2L128 138L16.8 248.8C14 251.6 9.6 251.6 6.8 248.8S4 241.6 6.8 238.8L118 128L7.2 16.8C4.4 14 4.4 9.6 7.2 6.8C8.4 5.6 10.4 4.8 12 4.8S15.6 5.6 16.8 6.8L128 118L238.8 6.8C240 5.6 242 4.8 243.6 4.8C245.2 4.8 247.2 5.6 248.4000000000001 6.8C251.2000000000001 9.6 251.2000000000001 14 248.4000000000001 16.8L138 128z" />
    <glyph glyph-name="coffee-cup"
      unicode="&#xEA76;"
      horiz-adv-x="256" d="M220 151.6C213.6 151.6 207.2 149.6 202.4 146V161.6C202.4 167.2 198.4 171.2 192.8 171.2H20.8C15.2 171.2 11.2 167.2 11.2 161.6V109.2C11.2 65.2 44.8 28.8 87.6 24.4H12C8 24.4 4.8 21.2 4.8 17.2S8 10.4 12 10.4H201.6C205.6 10.4 208.8 13.6 208.8 17.6S205.6 24.8 201.6 24.8H126C159.6 28.4 187.6 51.6 198 82.8C203.6 77.2 211.6 73.6 220 73.6C228.8 73.6 236.8 77.2 242.8 83.2C248.4 89.2 251.2 96.8 250.8 104.4V121.6C250.8 138 237.2 151.6 220 151.6zM188.4 109.2C188.4 70 156.4 38 116.8 38H96.4C57.2 38 25.2 70 25.2 109.2V157.6H188.4V109.2zM232.8 92C229.6 88.8 225.2 86.8 220.4 86.8C211.2 86.8 203.6 94.4 203.6 103.6V120.8C203.6 130 211.2 137.6 220.4 137.6C229.6 137.6 237.2 130 237.2 120.8V103.6C237.2 99.2 235.6 95.2 232.8 92zM52.4 194.8C56.4 194.8 59.6 198 59.6 202V238.4C59.6 242.4 56.4 245.6 52.4 245.6S45.2 242.4 45.2 238.4V201.6C45.6 198 48.8 194.8 52.4 194.8zM106.8 194.8C110.8 194.8 114 198 114 202V238.4C114 242.4 110.8 245.6 106.8 245.6S100 242.4 100 238.4V201.6C100 198 102.8 194.8 106.8 194.8zM161.2 194.8C165.2 194.8 168.4 198 168.4 202V238.4C168.4 242.4 165.2 245.6 161.2 245.6S154 242.4 154 238.4V201.6C154 198 157.2 194.8 161.2 194.8z" />
    <glyph glyph-name="credit-cards"
      unicode="&#xEA86;"
      horiz-adv-x="256" d="M238.4 184.4V209.2C238.4 216 235.6 222 230.4 226S218.4 231.6 212 230.4L31.2 186.8H28C15.2 186.8 4.8 176.4 4.8 163.6V48C4.8 35.2 15.2 24.8 28 24.8H228C240.8 24.8 251.2 35.2 251.2 48V164C251.2 172.8 246 180.4 238.4 184.4zM214.8 216.4C217.2 216.8 219.6 216.4 221.2 214.8C223.2 213.2 224 211.2 224 208.8V186.8H91.2L214.8 216.4zM28 172.8H228C232.8 172.8 237.2 168.8 237.2 163.6V144.4H19.2V164C19.2 168.8 23.2 172.8 28 172.8zM237.2 130.8V107.6H19.2V130.8H237.2zM228 39.2H28C23.2 39.2 18.8 43.2 18.8 48.4V93.6H236.8V48.4C237.2 43.2 232.8 39.2 228 39.2z" />
  <glyph glyph-name="cross-circle"
      unicode="&#xEA88;"
      horiz-adv-x="256" d="M128 250.8C60 250.8 5.2 196 5.2 128S60 4.8 128 4.8S251.2 60 251.2 128S196 250.8 128 250.8zM128 18.8C68 18.8 19.2 68 19.2 128S68 236.8 128 236.8S237.2 188 237.2 128S188 18.8 128 18.8zM164.8 164.8C162 167.6 157.6 167.6 154.8 164.8L128 138L101.2 164.8C98.4 167.6 94 167.6 91.2 164.8S88.4 157.6 91.2 154.8L118 128L91.2 101.2C88.4 98.4 88.4 94 91.2 91.2C92.4 90 94.4 89.2 96 89.2S99.6 90 100.8 91.2L127.6 118L154.4 91.2C155.6 90 157.6 89.2 159.2 89.2C160.8 89.2 162.8 90 164 91.2C166.8000000000001 94 166.8000000000001 98.4 164 101.2L138 128L164.8 154.8C167.2 157.6 167.2 162 164.8 164.8z" />
   <glyph glyph-name="delivery"
      unicode="&#xEA90;"
      horiz-adv-x="256" d="M232.8 210H107.6C97.6 210 89.2 201.6 89.2 191.6V188.8H34.4C30.8 188.8 27.6 186.8 26 183.6L6 143.2C5.2 142 5.2 140.4 5.2 138.8V76.4C5.2 72.4 8.4 69.2 12.4 69.2H24C26 54.8 38.4 44 53.2 44S80.4 55.2 82.4 69.2H168C170 54.8 182.4 44 197.2 44S224.4 55.2 226.4 69.2H241.2C246.8 69.2 251.2 73.6 251.2 79.2V192C251.2 202 242.8 210 232.8 210zM37.2 175.2H89.6V147.2H23.2L37.2 175.2zM52.8 58.4C44 58.4 37.2 65.6 37.2 74S44.4 89.6 52.8 89.6S68.4 82.4 68.4 74S61.6 58.4 52.8 58.4zM52.8 103.6C40 103.6 28.8 95.2 24.8 83.6H19.2V132.8H89.6V83.6H81.2C76.8 95.2 66 103.6 52.8 103.6zM197.2 58.4C188.4 58.4 181.6 65.6 181.6 74S188.8 89.6 197.2 89.6S212.8 82.4 212.8 74S205.6 58.4 197.2 58.4zM237.2 83.6H225.2C221.2 95.2 210 103.6 197.2 103.6S173.2 95.2 169.2 83.6H103.2V192C103.2 194.4 105.2 196.4 107.6 196.4H232.8C235.2 196.4 237.2 194.4 237.2 192V83.6z" />
  <glyph glyph-name="envelope"
      unicode="&#xEAAE;"
      horiz-adv-x="256" d="M228 212.4H28C15.2 212.4 4.8 202 4.8 189.2V66.4C4.8 53.6 15.2 43.2 28 43.2H228C240.8 43.2 251.2 53.6 251.2 66.4V189.2C251.2 202 240.8 212.4 228 212.4zM228 198.4C230 198.4 231.6 198 233.2 196.8L133.6 136.4C130 134.4 126 134.4 122.4 136.4L22.8 196.8C24.4 197.6 26 198.4 28 198.4H228zM228 57.6H28C23.2 57.6 18.8 61.6 18.8 66.8V182.8L114.8 124.4C118.8 122 123.2 120.8 127.6 120.8S136.4 122 140.4 124.4L236.4 182.8V66.8C237.2 61.6 232.8 57.6 228 57.6z" />
    <glyph glyph-name="exit-down"
      unicode="&#xEAB1;"
      horiz-adv-x="256" d="M117.2 93.2C119.6 90.8 123.2 89.2 126.4 89.2C130 89.2 133.2 90.4 135.6 93.2L165.2 122.8C168 125.6 168 130 165.2 132.8S158 135.6 155.2 132.8L133.2 110.8V212.4C133.2 216.4 130 219.6 126 219.6S118.8 216.4 118.8 212.4V110.8L96.8 132.8C94 135.6 89.6 135.6 86.8 132.8S84 125.6 86.8 122.8L117.2 93.2zM233.6 135.2H196.8C192.8 135.2 189.6 132 189.6 128S192.8 120.8 196.8 120.8H233.6C235.6 120.8 237.2 119.2 237.2 117.2V70.4C237.2 59.2000000000001 228.0000000000001 50.4 217.2 50.4H39.2C28 50.4 19.2 59.6 19.2 70.4V117.6C19.2 119.6 20.8 121.2 22.8 121.2H59.6C63.6 121.2 66.8 124.4 66.8 128.4S63.6 135.6 59.6 135.6H22.4C12.8 135.6 4.8 127.6 4.8 118V71.2C4.8 52.4 20 37.2 38.8 37.2H216.4C235.2 37.2 250.4 52.4 250.4 71.2V117.6C251.2 127.2 243.2 135.2 233.6 135.2z" />
    <glyph glyph-name="exit-up"
      unicode="&#xEAB2;"
      horiz-adv-x="256" d="M92.8 173.6C94.4 173.6 96.4 174.4 97.6 175.6L120.8 198.8V96C120.8 92 124 88.8 128 88.8S135.2 92 135.2 96V196.8L156 175.6C158.8 172.8 163.2 172.8 166 175.6S168.8 182.8 166 185.6L136.4 215.2C134 217.6 130.4 219.2 127.2 219.2C123.6 219.2 120.4 218 118 215.2L88 185.6C85.2 182.8 85.2 178.4 88 175.6C89.6 174.4 91.2 173.6 92.8 173.6zM233.6 135.2H196.8C192.8 135.2 189.6 132 189.6 128S192.8 120.8 196.8 120.8H233.6C235.6 120.8 237.2 119.2 237.2 117.2V70.4C237.2 59.2000000000001 228.0000000000001 50.4 217.2 50.4H39.2C28 50.4 19.2 59.6 19.2 70.4V117.6C19.2 119.6 20.8 121.2 22.8 121.2H59.6C63.6 121.2 66.8 124.4 66.8 128.4S63.6 135.6 59.6 135.6H22.4C12.8 135.6 4.8 127.6 4.8 118V71.2C4.8 52.4 20 37.2 38.8 37.2H216.4C235.2 37.2 250.4 52.4 250.4 71.2V117.6C251.2 127.2 243.2 135.2 233.6 135.2z" />
    <glyph glyph-name="exit"
      unicode="&#xEAB3;"
      horiz-adv-x="256" d="M56.8 120.8H159.6C163.6 120.8 166.8 124 166.8 128S163.6 135.2 159.6 135.2H59.2L80.4 156C83.2 158.8 83.2 163.2 80.4 166S73.2 168.8 70.4 166L40.8 136.4C38.4 134 36.8 130.4 36.8 127.2C36.8 123.6 38 120.4 40.8 118L70.4 88.4C71.6 87.2000000000001 73.6 86.4 75.2 86.4C76.8 86.4 78.8 87.2000000000001 80 88.4C82.8 91.2000000000001 82.8 95.6 80 98.4L56.8 120.8000000000001zM185.2 250.8H138.4C128.8 250.8 120.8 242.8 120.8 233.2V196.4C120.8 192.4 124 189.2 128 189.2S135.2 192.4 135.2 196.4V233.6C135.2 235.6 136.8 237.2 138.8 237.2H185.6C196.8 237.2 205.6 228 205.6 217.2V39.6C205.6 28.4 196.4 19.6 185.6 19.6H138.4C136.4 19.6 134.8 21.2 134.8 23.2V60C134.8 64 131.6 67.2 127.6 67.2S120.4 64 120.4 60V23.2C120.4 13.6 128.4 5.6 138 5.6H184.8C203.6 5.6 218.8 20.8 218.8 39.6V216.8C219.2 235.6 204 250.8 185.2 250.8z" />
    <glyph glyph-name="eye"
      unicode="&#xEAB4;"
      horiz-adv-x="256" d="M128 156C112.4 156 100 143.2 100 128S112.8 100 128 100S156 112.8 156 128S143.6 156 128 156zM128 114C120.4 114 114 120.4 114 128S120.4 142 128 142S142 135.6 142 128S135.6 114 128 114zM249.6 132.8C223.2 174.4 177.6 199.2 128 199.2C78.4 199.2 32.8 174.4 6.4 132.8C4.8 130 4.8 126.4 6.4 123.6C32.8 82 78.4 57.2 128 57.2C177.6 57.2 223.2 82 249.6 123.6C251.6 126.4 251.6 130 249.6 132.8zM128 71.2C84.4 71.2 44 92.4 20 128.4C44 164 84.4 185.2 128 185.2C171.6 185.2 212 164 236 128.4C212 92.4 171.6 71.2 128 71.2z" />
    <glyph glyph-name="facebook-filled"
      unicode="&#xEAB5;"
      horiz-adv-x="256" d="M189.6 152.8H159.2V193.6H184C188.4 193.6 192 196.8 192 201.6V244C192 248.4 188.8 252 184 252H154.8C123.2 252 101.2 229.6 101.2 196.4V153.6H66C60.4 153.6 55.2 149.2 55.2 142.8V114C55.2 108.4 59.6 103.2 66 103.2H100.4V14.8C100.4 9.2 104.8 4 111.2 4H148.8C151.2 4 153.2 5.2 154.8 6.8S157.6 11.2 157.6 13.6V102.8H184C189.2 102.8 193.2 106 194 110.8V111.6L199.6 139.2C200 142 199.6 145.2 197.2 148.4C196.4 150.4 192.8 152.4 189.6 152.8z" />
    <glyph glyph-name="facebook-messenger"
      unicode="&#xEAB6;"
      horiz-adv-x="256" d="M127.6 251.6C58 251.6 4 200.4 4 131.6C4 95.2 18.8 64 42.8 42.8C44.4 41.2 45.6 38.4 46 36L46.4 14C46.8 7.2 53.6 2 60.4 5.2L85.2 16C86.8 16.4 89.6 17.2 92 16.4C103.2 13.6 115.2 11.2 128 11.2C198 11.6 252 62.8 252 131.2S197.6 251.6 127.6 251.6zM202 159.2L165.6 102C160 93.2 147.6 90 139.2 96.8L110.4 118.8C107.6 120.4 104.4 120.4 101.6 118.8L62.4 89.6C57.2 85.6 50.4 92 54 97.6L90.4 154.8C96 163.6 108.4 166.8 116.8 160L145.6 138C148.4 136.4 151.6 136.4 154.4 138L193.2 168C199.2 170.4 205.2 164.4 202 159.2000000000001z" />
    <glyph glyph-name="facebook-original"
      unicode="&#xEAB7;"
      horiz-adv-x="256" d="M238 252H18C10 252 4 245.6 4 238V18C4 10 10.4 4 18 4H136.4V100.4H104.4V137.6H136.4V165.2C136.4 197.2 155.6 214.8 184.4 214.8C194 214.8 203.6 214.4 213.2 213.2V180H194C178.8000000000001 180 175.6 172.8 175.6 162V138.4H212L206.8 100.8H174.8V5.6H238C246 5.6 252 11.6 252 19.6V238C251.6 246 245.2 252 238 252z" />
    <glyph glyph-name="facebook-oval"
      unicode="&#xEAB8;"
      horiz-adv-x="256" d="M128 252C59.2 252 4 196.8 4 128S59.2 4 128 4S252 59.2 252 128S196.8 252 128 252zM160.8 176.4H148.4C142.8 176.4 139.2 173.6 139.2 168.4C138.8 164 139.2 159.2 139.2 155.6C139.2 154 139.6 154 140.8 154H159.2C160.8 154 161.6 153.6 161.6 151.6C161.2 144.4 160 136.8 160 129.6C160 128 159.6 128 157.6 128H142.8C139.6 128 140 128.4 140 125.2V56.8C140 54.4 139.6 54 137.2 54H112C109.6 54 109.2 54.4 109.2 56.8V91.2V126C109.2 127.6 108.8 128.8 106.8 128.4H96C93.6 127.2 93.6 128 93.6 129.6V151.6C93.6 153.2 94 153.2 95.2 153.2H106.4C108.8 153.2 109.2 153.6 109.2 156V172.8C109.2 179.6 110.8 185.6 114.8 191.2C120 198 127.2 201.2 135.2 202C143.6 202.4 152 202 160.4 202.4C161.6 202.4 162 202 162 200.8V178.8C162.4 177.2 162 176.4 160.8 176.4z" />
    <glyph glyph-name="facebook"
      unicode="&#xEAB9;"
      horiz-adv-x="256" d="M144.8 0.8H113.6C105.6 0.8 99.2 7.6 99.2 16V111.2H73.6C65.6 111.2 59.2 118 59.2 126.4V154C59.2 162.4 65.6 169.2 73.6 169.2H98.4V194.4C98.4 230.8 120 255.2 152 255.2H176C184 255.2 190.4 248.4 190.4 240V207.6C190.4 199.2 184 192.4 176 192.4H158.8V169.6H181.6C186.4 169.2 190.4 167.2 193.2 164C196 160.4 197.2 155.6 196.4 151.2L191.6 124C190.8 116.8 184.8 111.6 177.2 111.6H158.8V16C158.8 8 152.4 0.8 144.8 0.8zM106 125.2C110 125.2 113.2 122 113.2 118V16C113.2 15.2 113.6 14.8 113.6 14.8H144.8S145.2 15.2 145.2 16V118.8C145.2 122.8 148.4 126 152.4 126H177.6S178 126 178 126.4V126.8L182.8 153.6C182.8 154.4 182.8 154.8 182.4 155.2C182.4 155.2 182 155.6 181.6 155.6H152C148 155.6 144.8 158.8 144.8 162.8V191.2C144.8 198.4 146 206.4 159.6 206.4H176S176.4 206.8 176.4 207.6V239.6C176.4 240.4000000000001 176 240.8 176 240.8H152.4C128.4 240.8 112.8 222.4 112.8 194V161.6C112.8 157.6 109.6 154.4 105.6 154.4H73.6S73.2 154 73.2 153.2V125.6C73.2 124.8 73.6 124.4 73.6 124.4L106 125.2000000000001z" />
    <glyph glyph-name="forward"
      unicode="&#xEAC6;"
      horiz-adv-x="256" d="M230.8 250.8C226.8 250.8 223.6 247.6 223.6 243.6V131.2L57.2 240C49.6 245.2 39.6 245.6 31.6 241.2C23.6 236.8 18.4 228.4 18.4 219.2V36.8C18.4 27.6 23.2 19.2 31.6 14.8C35.2 12.8 39.6 11.6 43.6 11.6C48.4 11.6 53.2 12.8 57.2 15.6L223.6 124V12C223.6 8 226.8 4.8 230.8 4.8S238 8 238 12V244C237.6 248 234.4 250.8 230.8 250.8zM49.6 27.6C46 25.2 42 25.2 38 27.2C34.4 29.2 32.4 32.8 32.4 36.8V219.2C32.4 223.2 34.4 226.8 38 228.8C39.6 229.6 41.6 230 43.2 230C45.2 230 47.6 229.2 49.2 228L203.2 128L49.6 27.6z" />
    <glyph glyph-name="frame-expand"
      unicode="&#xEAC7;"
      horiz-adv-x="256" d="M75.2 250.8H23.2C13.2 250.8 5.2 242.8 5.2 232.8V180.8C5.2 176.8 8.4 173.6 12.4 173.6S19.6 176.8 19.6 180.8V232.8C19.6 235.2 21.6 236.8 23.6 236.8H75.6C79.6 236.8 82.8 240 82.8 244S79.2 250.8 75.2 250.8zM232.8 250.8H180.8C176.8 250.8 173.6 247.6 173.6 243.6S176.8 236.4 180.8 236.4H232.8C235.2 236.4 236.8 234.4 236.8 232.4V180.4C236.8 176.4 240 173.2 244 173.2S251.2 176.4 251.2 180.4V232.4C251.2 242.8 242.8 250.8 232.8 250.8zM244 82.4C240 82.4 236.8 79.2 236.8 75.2V23.2C236.8 20.8 234.8 19.2 232.8 19.2H180.8C176.8 19.2 173.6 16 173.6 12S176.8 4.8 180.8 4.8H232.8C242.8 4.8 250.8 12.8 250.8 22.8V74.8C251.2 79.2000000000001 248 82.4 244 82.4zM75.2 18.8H23.2C20.8 18.8 19.2 20.8 19.2 22.8V74.8C19.2 78.8 16 82 12 82S4.8 78.8 4.8 74.8V22.8C4.8 12.8 12.8 4.8 22.8 4.8H74.8C78.8 4.8 82 8 82 12S79.2 18.8 75.2 18.8z" />
    <glyph glyph-name="fresh-juice"
      unicode="&#xEAC8;"
      horiz-adv-x="256" d="M226.8 124C219.2 125.2 211.6 123.6 205.2 118.8C203.2 117.2 201.2 116.4 199.2 115.6C202 124.4 211.2 136.8 218 144.4C220.8000000000001 147.2 220.4 151.6 217.6 154.4S210.4 156.8 207.6 154C204 150 187.6 131.6 184.8 115.6C182.4 116.4 180 117.6 177.6 119.2C170.8 123.6 163.2 125.6 156.4 124C140.4 121.2 130 106.4 132.4 90.4C138.4 51.2 149.6 36 158.4 30C162.4 27.2 166.8000000000001 25.6 172 25.6C173.2 25.6 174.8000000000001 25.6 176.4 26H176.8000000000001C180.8000000000001 26.8 183.6000000000001 28.4 186 30.8C189.2 34 194.4 34 197.6 30.8C198.8 29.6000000000001 202 26.8 207.2 26C214.4 25.2 220 26.4 225.2 30C233.6 36 244.8 51.6 250.8 90C253.2 106.4 242.4 121.2 226.8 124zM236.8 92.8C230.8 54.8 220 44 216.8 42C214.8 40.8 212.8 40 208.8 40.4C208 40.4 208 40.4 207.2 41.2C202.8 45.2 197.2 47.6 191.6 47.6S180.4 45.2 176 41.2C175.6 40.8 175.6 40.8 174 40.4C170.4 40 168.4 40.8 166.4 42C163.2000000000001 44.4 152 54.4 146.4 92.8C145.2000000000001 101.2 150.4 108.8 159.2000000000001 110.4H161.2000000000001C165.2000000000001 110.4 168.4 108.8 170.0000000000001 107.6C176.8000000000001 102.8 184.0000000000001 100.4 192.0000000000001 100.4H194.0000000000001C201.6000000000001 100.8 208.4000000000001 103.2 214.4000000000001 107.6C217.6000000000001 110 221.2000000000001 110.8 225.2000000000001 110C232.4000000000001 108.8 238.0000000000001 100.8 236.8000000000001 92.8zM117.6 230H82.8C73.2 230 64.4 223.2 62.4 213.6L56.4 188H24.4C18.8 188 13.6 185.6 10 181.6C6.4 177.6 4.4 172.4 4.8 166.8L15.2 43.6C16 33.6 24.4 26 34.4 26H91.2C101.2 26 109.6 33.6 110.4 43.6L120.8 166.8C121.2 172 119.6 177.6 115.6 181.6C112 185.6 106.8 188 101.2 188H70L75.2 210.8C76 214 78.8 216 82 216H116.8C120.8 216 124 219.2 124 223.2S121.6 230 117.6 230zM91.6 40H34.8C32 40 29.6 42 29.6 44.8L22 136.8H104.8L97.2 44.8C96.8 42.4 94.4 40 91.6 40zM106 172C107.2 170.8 107.6 169.6 107.2 168L105.6 150.8H20.4L19.2 168C19.2 169.6 19.6 170.8 20.4 172C21.6 173.2 22.8 173.6 24.4 173.6H102C103.6 174 104.8 173.2 106 172z" />
 
    <glyph glyph-name="gift"
      unicode="&#xEACF;"
      horiz-adv-x="256" d="M221.2 198.4H191.6C199.6 202 205.6 206.8 208 213.2C211.2 221.6 208 230.4 198.4 239.6C188 249.6 177.2 253.2 166.4 250.4C147.6 245.6 135.2 221.2 129.2 206.8C123.6 221.2 111.2 245.6 92 250.4C81.2 253.2 70.4 249.6 60 239.6C50.4 230.4 47.2 221.6 50.4 213.2C52.8 206.8 59.2 202 66.8 198.4H34.8C24.8 198.4 16.8 190.4 16.8 180.4V150C16.8 140 24.8 132 34.8 132H38V28.4C38 15.6 48.4 4.8 61.6 4.8H197.6C210.4 4.8 221.2 15.2 221.2 28.4V132C231.2 132 239.2 140 239.2 150V180.4C238.8 190.4 230.8 198.4 221.2 198.4zM170 236.4C171.2 236.8 172.4 236.8 173.2 236.8C178 236.8 183.2 234.4 188.4 228.8C190.8 226.4 196 221.2 194.8 217.6C192 210 167.2 203.6 142.4 201.6C148 214.8 158.4 233.6 170 236.4zM64 218C62.8 221.6 68 226.8 70.4 229.2C76 234.4 80.8 237.2 85.6 237.2C86.8 237.2 88 237.2 88.8 236.8C100.8 233.6 110.8 215.2 116.4 202C91.6 204 66.8 210.4 64 218zM206.8 28.4C206.8 23.2 202.4 18.8 197.2 18.8H61.2C56 18.8 51.6 23.2 51.6 28.4V132H206.4V28.4zM224.8 150C224.8 147.6 223.2 146 220.8 146H34.8C32.8 146 30.8 147.6 30.8 150V180.4C30.8 182.4 32.8 184.4 34.8 184.4H220.8C222.8 184.4 224.8 182.8 224.8 180.4V150z" />

    <glyph glyph-name="grid-alt"
      unicode="&#xEADA;"
      horiz-adv-x="256" d="M78.8 151.2H28C15.2 151.2 4.8 161.6 4.8 174.4V225.2C4.8 238 15.2 248.4 28 248.4H78.8C91.6 248.4 102 238 102 225.2V174.4C102 161.6 91.6 151.2 78.8 151.2zM28 234.4C23.2 234.4 18.8 230.4 18.8 225.2V174.4C18.8 169.6 22.8 165.2 28 165.2H78.8C83.6 165.2 88 169.2 88 174.4V225.2C88 230 84 234.4 78.8 234.4H28zM228 151.2H177.2C164.4 151.2 154 161.6 154 174.4V225.2C154 238 164.4 248.4 177.2 248.4H228C240.8 248.4 251.2 238 251.2 225.2V174.4C251.2 161.6 240.8 151.2 228 151.2zM177.2 234.4C172.4 234.4 168 230.4 168 225.2V174.4C168 169.6 172 165.2 177.2 165.2H228C232.8 165.2 237.2 169.2 237.2 174.4V225.2C237.2 230 233.2 234.4 228 234.4H177.2zM78.8 7.6H28C15.2 7.6 4.8 18 4.8 30.8V81.6C4.8 94.4 15.2 104.8 28 104.8H78.8C91.6 104.8 102 94.4 102 81.6V30.8C102 18 91.6 7.6 78.8 7.6zM28 90.8C23.2 90.8 18.8 86.8 18.8 81.6V30.8C18.8 26 22.8 21.6 28 21.6H78.8C83.6 21.6 88 25.6 88 30.8V81.6C88 86.4 84 90.8 78.8 90.8H28zM228 7.6H177.2C164.4 7.6 154 18 154 30.8V81.6C154 94.4 164.4 104.8 177.2 104.8H228C240.8 104.8 251.2 94.4 251.2 81.6V30.8C251.2 18 240.8 7.6 228 7.6zM177.2 90.8C172.4 90.8 168 86.8 168 81.6V30.8C168 26 172 21.6 177.2 21.6H228C232.8 21.6 237.2 25.6 237.2 30.8V81.6C237.2 86.4 233.2 90.8 228 90.8H177.2z" />
	<glyph glyph-name="headphone-alt"
      unicode="&#xEAE3;"
      horiz-adv-x="256" d="M250.8 124.4C250.4 154.8 237.6 183.6 215.6 205.6C191.6 229.2 159.6 241.6 125.6 241.2C60.4 239.6 7.2 188 5.2 124.4V68.4C5.2 62.8 9.6 58 14.8 57.6L103.6 15.2H128C132 15.2 135.2 18.4 135.2 22.4S132 29.2 128 29.2H106.8L44.8 58.8C48.4 60.8 50.8 64.4 50.8 68.4V113.2C50.8 119.2 46 124.4 39.6 124.4H19.2C21.6 180.4 68.4 226 126 226.8C156 227.2 184.4 216.4 206 195.2C225.6 176 236.4 150.8 237.2 124H216.8C210.8 124 205.6 119.2 205.6 112.8V68C205.6 62 210.4 56.8 216.8 56.8H240C246 56.8 251.2 61.6 251.2 68V122L250.8 124.4zM36.8 71.6H19.2V110H36.8V71.6zM237.2 71.6H219.6V110.4H237.2V71.6z" />
    <glyph glyph-name="headphone"
      unicode="&#xEAE4;"
      horiz-adv-x="256" d="M215.6 184.4C191.6 208 159.6 220.4 125.6 220C59.2 218.8 5.2 164.8 5.2 99.2V51.2C5.2 42.8 11.6 36 20 36H46C54.4 36 61.2 42.8 61.2 51.2V88C61.2 96.4 54.4 103.2 46 103.2H19.2C21.2 159.2 68.4 205.2 126 206C156.4 206.4 184.8 195.6 206 174.4C225.6 155.2 236.8 130 237.2 103.2H210.4C202 103.2 195.2 96.4 195.2 88V51.2C195.2 42.8 202 36 210.4 36H236C244.4 36 251.2 42.8 251.2 51.2V101.2C251.2 132.4 238.4 162 215.6 184.4zM20 89.2H46C46.4 89.2 47.2 88.8 47.2 88V51.2C47.2 50.8 46.8 50 46 50H20C19.6 50 18.8 50.4 18.8 51.2V88C19.2 88.8 19.6 89.2 20 89.2zM237.2 51.2C237.2 50.8 236.8 50 236 50H210C209.6 50 208.8 50.4 208.8 51.2V88C208.8 88.4 209.2 89.2 210 89.2H236C236.4 89.2 237.2 88.8 237.2 88V51.2z" />
    <glyph glyph-name="heart-filled"
      unicode="&#xEAE5;"
      horiz-adv-x="256" d="M128 25.6C124.8 25.6 121.6 26.8 119.2 28.8C110 36.8 100.8 44.4 92.8 51.2C69.6 70.8 49.2 88 35.2 104.8C19.2 124 12 141.6 12 161.2C12 180 18.4 197.6 30.4 210.4C42.4 223.2 58.8 230.4 76.8 230.4C90 230.4 102.4 226 113.2 218C117.6 214.8 121.2 210.8 124.8 206.4C126.4 204.4 129.2 204.4 130.8 206.4C134.4 210.8 138.4 214.4 142.4 218C153.2 226.4 165.6 230.4 178.8 230.4C196.8 230.4 213.2 223.2 225.2 210.4S243.6 180 243.6 161.2C243.6 141.6 236.4 124 220.4 105.2C206.4 88.4 186 71.2 162.8 51.6C154.8 44.8 145.6 37.2 136.4 29.2C134.4 26.8 131.2 25.6 128 25.6z" />
 
    <glyph glyph-name="heart"
      unicode="&#xEAE7;"
      horiz-adv-x="256" d="M128 18.4C123.2 18.4 118 20 114.4 23.6C105.2 31.6 96 39.2 88 46C64.4 66 44 83.2 29.6 100.4C12.8 120.4 4.8 139.6 4.8 160.8C4.8 181.6 12 200.8 25.2 214.8C38.4 229.2 56.8 237.2 76.8 237.2C91.6 237.2 105.6 232.4 117.6 223.2C121.2 220.4 124.8 217.2 128 213.6C131.2 217.2 134.8 220.4 138.4 223.2C150.4 232.4 164 237.2 179.2 237.2C199.2 237.2 217.2 229.2 230.8 214.8C244 200.8 251.2 181.6 251.2 160.8C251.2 139.6 243.2 120.4 226.4 100.4C212 83.2 191.6 66 168 46C160 39.2 150.8 31.6 141.6 23.6C138 20.4 132.8 18.4 128 18.4zM76.8 223.6C60.8 223.6 46 217.2 35.6 205.6C24.8 194 19.2 178.4 19.2 161.2C19.2 143.6 26 127.2 40.4 109.6C54 93.2 74 76.4 97.2 56.8C105.2 50 114.4 42.4 123.6 34C126 32 130 32 132.4 34C142 42 150.8 50 158.8 56.8C182 76.4 202 93.2 215.6 109.6C230.0000000000001 127.2 236.8 143.6 236.8 161.2C236.8 178.4 230.8 194 220.4 205.6C209.6 217.2 195.2 223.6 179.2 223.6C167.2 223.6 156.4 220 147.2 212.4C143.2 209.6 140 206 136.4 202C134.4 199.6 131.2 198 128 198S121.6 199.6 119.6 202C116.4 206 112.8 209.6 108.8 212.4C99.6 219.6 88.8 223.6 76.8 223.6z" />
    <glyph glyph-name="helicopter"
      unicode="&#xEAE8;"
      horiz-adv-x="256" d="M244 166.8C240 166.8 236.8 163.6 236.8 159.6V156H145.6V166.8C145.6 172.4 140.8 177.2 135.2 177.2H92.4V205.2H148.4C152.4 205.2 155.6 208.4 155.6 212.4S152 219.2 148.4 219.2H22.4C18.4 219.2 15.2 216 15.2 212S18.4 204.8 22.4 204.8H78.4V176.8H36C18.8 176.8 5.2 162.8 5.2 146V88.8C5.2 83.2 10 78.4 15.6 78.4H36.8V50.4H24C22.8 50.4 21.6 51.2 21.6 51.6C21.6 55.6 18.4 58.8 14.4 58.8S8 56 8 52C8 43.6 15.2 36.8 24.4 36.8H128.4C132.4 36.8 135.6 40 135.6 44S132 50.8 128 50.8H103.2V78.8H135.2C140.8 78.8 145.6 83.6 145.6 89.2V99.6L237.2 109.6V106.8C237.2 102.8 240.4 99.6 244.4 99.6S251.6 102.8 251.6 106.8V159.6C251.2 163.6 248 166.8 244 166.8zM89.2 50.8H50.4V78.8H89.2V50.8zM131.6 92.8H19.2V146.4C19.2 155.6 26.8 163.2 36 163.2H131.6V92.8zM145.6 113.6V142H237.2V123.6L145.6 113.6z" />
 
    <glyph glyph-name="help"
      unicode="&#xEAEA;"
      horiz-adv-x="256" d="M180.4 202C178 226.8 157.6 247.2 132 250.8C108.8 253.2 86.8 241.6 76 221.2C74.4 217.6 75.6 213.6 78.8 211.6C82.4 210 86.4 211.2 88.4 214.4C96.4 230 112.8 238.4 130.4 236.8C149.6 234.4 164.8 219.2 166.8 200.4C168.8 182.8 159.6 166.4 143.6 158.8C128.4 151.6 118.4 135.2 118.4 118V62.8C118.4 58.8 121.6 55.6 125.6 55.6S132.8 58.8 132.8 62.8V118C132.8 130 139.6 141.2 150 146.4C170.8 156 183.2 178.8 180.4 202zM125.2 32.4C119.6 32.4 115.2 28 115.2 22.4S119.6 12.4 125.2 12.4S135.2 16.8 135.2 22.4C135.6 27.6 130.8 32.4 125.2 32.4z" />
 
    <glyph glyph-name="home"
      unicode="&#xEAED;"
      horiz-adv-x="256" d="M228.8 4.8H174.8C162.8 4.8 152.8 14.8 152.8 26.8V70.8C152.8 75.2 149.2 78.8 144.8 78.8H111.6C107.2 78.8 103.6 75.2 103.6 70.8V27.2C103.6 15.2 93.6 5.2 81.6 5.2H26.8C14.8 5.2 4.8 15.2 4.8 27.2V166.8C4.8 172.8 8 178.4 13.2 181.6L118.8 248.4C124.4 252 132 252 137.6 248.4L243.2 181.6C248.4 178.4 251.2 172.8 251.2 166.8V27.6C251.2 14.8 241.2 4.8 228.8 4.8zM111.2 92.8H144.4C156.4 92.8 166.4 82.8 166.4 70.8V27.2C166.4 22.8 170 19.2 174.4 19.2H228.8000000000001C233.2000000000001 19.2 236.8000000000001 22.8 236.8000000000001 27.2V166.4C236.8000000000001 167.6 236.0000000000001 168.8 235.2000000000001 169.6L130 236.4C128.8 237.2 127.2 237.2 126.4 236.4L20.8 169.6C19.6 168.8 19.2 167.6 19.2 166.4V26.8C19.2 22.4 22.8 18.8 27.2 18.8H81.6C86 18.8 89.6 22.4 89.6 26.8V70.8C89.2 82.8 99.2 92.8 111.2 92.8z" />
    <glyph glyph-name="image"
      unicode="&#xEAF1;"
      horiz-adv-x="256" d="M34.558 249.519C29.245 247.612 26.079 245.131 22.5 240.07L19.5 235.828L19.203 130.164C18.992 55.131 19.227 23.395 20.012 20.688C21.434 15.785 27.39 9.193 32.5 6.866C36.275 5.146 41.644 5.043 128.054 5.022L219.607 5L224.824 7.6C230.842 10.598 235.402 16.443 236.945 23.135C238.393 29.418 238.359 225.229 236.908 231.994C235.543 238.357 230.787 244.725 224.953 248L220.5 250.5L129.5 250.717C53.163 250.899 37.865 250.706 34.558 249.519M220.728 233.728L223.5 230.956L223.781 174.68L224.063 118.403L215.748 112.756C211.176 109.649 202.049 102.513 195.467 96.897C181.249 84.766 173.434 79.503 166.643 77.486C155.85 74.281 147.538 76.351 137.594 84.72C101.661 114.962 83.822 116.388 45.615 92.073C40.289 88.684 35.273 85.658 34.466 85.349C33.186 84.857 33 94.043 33 157.671C33 236.807 32.791 233.749 38.357 236.017C39.536 236.497 80.427 236.802 129.228 236.695L217.955 236.5L220.728 233.728M151.5 197.132C142.182 194.684 133.435 187.621 129.306 179.214C126.896 174.306 126.501 172.301 126.51 165C126.521 154.893 128.534 149.631 135.121 142.485C141.424 135.647 147.742 132.752 157.5 132.232C168.345 131.655 175.137 134.181 182.478 141.522C191.454 150.497 194.381 163.398 190.305 176.018C188.122 182.777 180.638 191.052 173.586 194.502C167.889 197.289 157.021 198.583 151.5 197.132M168.634 181.081C170.358 180.03 173.058 177.479 174.634 175.413C177.171 172.087 177.5 170.835 177.5 164.505C177.5 155.591 174.924 151.183 167.554 147.483C160.044 143.713 152.782 144.618 146.538 150.101C136.949 158.52 138.673 175.084 149.748 180.931C154.839 183.618 164.349 183.694 168.634 181.081M223 62.923L223 24.846L220.077 21.923L217.154 19L128.154 19L39.153 19L36.077 21.589L33 24.178L33 45.977L33 67.775L49.25 77.776C68.438 89.585 71.655 91.262 79.458 93.531C91.808 97.121 103.193 93.431 120.337 80.279C136.866 67.599 139.446 65.926 144.974 64.299C153.144 61.894 164.295 62.375 172.567 65.489C180.899 68.625 188.239 73.557 203 85.936C216.68 97.408 221.24 100.974 222.25 100.989C222.662 100.995 223 83.865 223 62.923" />
    <glyph glyph-name="information"
      unicode="&#xEAF7;"
      horiz-adv-x="256" d="M109.2 228.4A15.600000000000001 15.600000000000001 0 0 1 140.4 228.4A15.600000000000001 15.600000000000001 0 0 1 109.2 228.4M154.8 18.8H134.8V174C134.8 182.8 127.6 190 118.8 190H100.8C96.8 190 93.6 186.8 93.6 182.8S96.8 175.6 100.8 175.6H118.8C120 175.6 120.8 174.8 120.8 173.6V18.8H100.8C96.8 18.8 93.6 15.6 93.6 11.6S96.8 4.4 100.8 4.4H154.8C158.8 4.4 162 7.6 162 11.6S158.8 18.8 154.8 18.8z" />
    <glyph glyph-name="instagram-filled"
      unicode="&#xEAF8;"
      horiz-adv-x="256" d="M82 128A46.4 46.4 0 0 1 174.8 128A46.4 46.4 0 0 1 82 128M178.8 252H77.2C36.8 252 4 219.2 4 178.8V78C4 36.8 36.8 4 77.2 4H178C219.2 4 252 36.8 252 77.2V178.8C252 219.2 219.2 252 178.8 252zM128.4 67.2C94.4 67.2 67.6 94.8 67.6 128S94.8 188.8 128.4 188.8C161.6 188.8 188.8 161.2 188.8 128S162 67.2 128.4 67.2zM212.4 183.2C208.4 178.8 202.4 176.4 195.6 176.4C189.6 176.4 183.6 178.8 178.8 183.2C174.4 187.6 172 193.2 172 200S174.4 212 178.8 216.8C183.2 221.6 188.8 224 195.6 224C201.6 224 208 221.6 212.4 217.2C216.4 212 219.2 206 219.2 199.6C218.8 193.2 216.4 187.6 212.4 183.2zM196 209.6C190.8 209.6 186.4 205.2 186.4 200S190.8 190.4 196 190.4C201.2 190.4 205.6 194.8 205.6 200S201.6 209.6 196 209.6z" />
    <glyph glyph-name="instagram-original"
      unicode="&#xEAF9;"
      horiz-adv-x="256" d="M251.6 179.2C251.2 192 248.8 201.2 246 209.6S238.8 224.8 232 231.6S218.4 242.4 210.4 245.6C202.4 248.8 193.6 250.8 180 251.2C166 252 162 252 128 252S90.4 252 76.8 251.6S54.8 248.8 46.4 246S31.2 238.4 24.4 231.6S13.2 218 10.4 209.6C7.2 201.6 5.2 192.8 4.8 179.2S4 162 4 128S4 90.4 4.4 76.8C4.8 63.2 7.2 54.8 10 46.4C12.8 38 17.2 31.2 24 24.4S38 13.2 46 10.4C54 7.6 62.8 5.2 76.4 4.8C90 4 93.6 4 127.6 4S165.2 4 178.8 4.4S200.8 7.2 209.2 10C217.6 12.8 224.4 17.2 231.2 24S242.4 38 245.2 46C248.0000000000001 54 250.4 62.8 250.8 76.4C251.2 89.2 251.2 93.2 251.2 127.2S252.0000000000001 165.6 251.6 179.2zM229.2 78C228.8 66 226.4 59.6 224.8 54.8C222.4 49.2 219.6 44.8 215.2 40.8C210.8 36.4 206.8 34 201.2 31.2C196.8 29.6 190.4 27.2 178 26.8H128.4C95.6 26.8 91.2 26.8 78.4 27.2C66.4 27.6 60 30 55.2 31.6C49.6 34 45.2 36.8 41.2 41.2C36.8 45.6 34.4 49.6 31.6 55.2C30 59.6 27.6 66 27.2 78.4V128C27.2 161.2 27.2 165.2 27.6 178C28 190 30.4 196.4 32 201.2C34.4 206.8 37.2 211.2 41.2 215.2C45.6 219.6 49.6 222 55.2 224.4C59.6 226 66 228.4 78.4 228.8C91.2 229.2 95.2 229.2 128.4 229.2S165.6 229.2 178.4 228.8C190.4 228.4 196.8 226 201.6 224.4C207.2 222 211.6 219.2 215.6 215.2C220 210.8 222.4 206.8 225.2 201.2C226.8 196.8 229.2 190.4 229.6 178C230 165.2 230 161.2 230 128S229.6 90.8 229.2 78zM128 191.6C92.4 191.6 64.4 162.8 64.4 128C64.4 92.4 93.2 64.4 128 64.4S192 92.4 192 128S163.6 191.6 128 191.6zM128 86.4C104.8 86.4 86.4 105.2 86.4 128S105.2 169.6 128 169.6C151.2 169.6 169.6 151.2 169.6 128S151.2 86.4 128 86.4zM180 194.4A14.799999999999999 14.799999999999999 0 0 1 209.6 194.4A14.799999999999999 14.799999999999999 0 0 1 180 194.4" />
    <glyph glyph-name="instagram"
      unicode="&#xEAFA;"
      horiz-adv-x="256" d="M128 186.8C95.6 186.8 69.2 160.4 69.2 128S95.6 69.2 128 69.2S186.8 95.6 186.8 128S160.4 186.8 128 186.8zM128 83.2C103.2 83.2 83.2 103.2 83.2 128C83.2 152.8 103.2 172.8 128 172.8C152.8 172.8 172.8 152.8 172.8 128C172.8 103.2 152.8 83.2 128 83.2zM192.4 215.6C184 215.6 177.2 208.8 177.2 200.4S184 185.2 192.4 185.2C200.8 185.2 207.6 192 207.6 200.4S200.8 215.6 192.4 215.6zM192 254.8H64C29.2 254.8 1.2 226.8 1.2 192V64C1.2 29.2 29.6 1.2 64.4 1.2H192.4C227.2 1.2 255.2 29.6 255.2 64.4V192C255.2 226.8 226.8 254.8 192 254.8zM241.2 64C241.2 36.8 219.2 14.8 192.4 14.8H64C37.2 14.8 15.2 36.8 15.2 64V192C15.2 218.8 37.2 240.8 64 240.8H192C219.2 240.8 241.2 218.8 241.2 191.6V64z" />

    <glyph glyph-name="keyword-research"
      unicode="&#xEB09;"
      horiz-adv-x="256" d="M246.4 48L191.2 103.6C187.6 107.2 182.8 109.2 177.6 109.2C172.4 109.2 167.6 107.2 164 103.6L163.2 102.8L138.8 127.2C163.6 157.2 162 201.6 134 230C104.4 259.6 56 259.6 26 230C-3.6 200.4 -3.6 152 26 122C40.8 107.2 60.4 99.6 80 99.6C97.2 99.6 114.8 105.6 128.8 117.2L153.2 92.8L152.4 92C148.8 88.4 146.8 83.6 146.8 78.4C146.8 73.2 148.8 68.4 152.4 64.8L208 9.6C211.6 6 216.4 4 221.6 4C226.8 4 231.6 6 235.2 9.6L246.8 21.2C250.4 24.8 252.4 29.6 252.4 34.8C252 39.6 250 44.4 246.4 48zM36 132C12 156 12 195.6 36 220C48 232 64 238.4 80 238.4S112 232 124 220C148.4 195.6 148.4 156.4 124 132C100 107.6 60.4 107.6 36 132zM236.8 31.2L225.2 19.6C223.2 17.6 220 17.6 218 19.6L162.4 74.8C161.6 75.6 160.8 77.2 160.8 78.4C160.8 79.6 161.2 80.8 162.4 82L174 93.6C174.8 94.4 176 95.2 177.6 95.2C178.8 95.2 180 94.8 181.2 93.6L236.8 38C237.6 37.2 238.4 35.6 238.4 34.4C238 33.2 237.6 32 236.8 31.2zM59.2 184H79.6C83.6 184 86.8 187.2 86.8 191.2S83.6 198.4 79.6 198.4H59.2C55.2 198.4 52 195.2 52 191.2S55.6 184 59.2 184zM102 166.8H59.2C55.2 166.8 52 163.6 52 159.6S55.2 152.4 59.2 152.4H102C106 152.4 109.2 155.6 109.2 159.6S105.6 166.8 102 166.8z" />
    <glyph glyph-name="line-dashed"
      unicode="&#xEB13;"
      horiz-adv-x="256" d="M244 134.8H202C198 134.8 194.8 131.6 194.8 127.6S198 120.4 202 120.4H244C248 120.4 251.2 123.6 251.2 127.6C251.2 132 248 134.8 244 134.8zM149.2 134.8H106.8C102.8 134.8 99.6 131.6 99.6 127.6S102.8 120.4 106.8 120.4H148.8C152.8 120.4 156 123.6 156 127.6C156 132 152.8 134.8 149.2 134.8zM54 134.8H12C8 134.8 4.8 131.6 4.8 127.6S8 120.4 12 120.4H54C58 120.4 61.2 123.6 61.2 127.6C61.2 132 58 134.8 54 134.8z" />
    <glyph glyph-name="line-dotted"
      unicode="&#xEB14;"
      horiz-adv-x="256" d="M31.2 134.8H12C8 134.8 4.8 131.6 4.8 127.6S8 120.4 12 120.4H31.2C35.2 120.4 38.4 123.6 38.4 127.6C38.4 132 35.2 134.8 31.2 134.8zM137.6 134.8H118.4C114.4 134.8 111.2 131.6 111.2 127.6S114.4 120.4 118.4 120.4H137.6C141.6 120.4 144.8 123.6 144.8 127.6C144.8 132 141.6 134.8 137.6 134.8zM244 134.8H224.8C220.8 134.8 217.6 131.6 217.6 127.6S220.8 120.4 224.8 120.4H244C248 120.4 251.2 123.6 251.2 127.6C251.2 132 248 134.8 244 134.8z" />
    <glyph glyph-name="line-double"
      unicode="&#xEB15;"
      horiz-adv-x="256" d="M12 152.8H244C248 152.8 251.2 156 251.2 160S248 166.8 244 166.8H12C8 166.8 4.8 163.6 4.8 159.6S8 152.8 12 152.8zM244 103.2H12C8 103.2 4.8 100 4.8 96S8 89.2 12 89.2H244C248 89.2 251.2 92.4 251.2 96.4S248 103.2 244 103.2z" />
    <glyph glyph-name="line-spacing"
      unicode="&#xEB16;"
      horiz-adv-x="256" d="M149.6 230.4H242.8C246.8 230.4 250 233.6 250 237.6S246.8 244.8 242.8 244.8H149.6C145.6 244.8 142.4 241.6 142.4 237.6S145.6 230.4 149.6 230.4zM242.8 171.6H149.6C145.6 171.6 142.4 168.4 142.4 164.4S145.6 157.2 149.6 157.2H242.8C246.8 157.2 250 160.4 250 164.4S246.4 171.6 242.8 171.6zM242.8 98.4H149.6C145.6 98.4 142.4 95.2 142.4 91.2S145.6 84 149.6 84H242.8C246.8 84 250 87.2 250 91.2S246.4 98.4 242.8 98.4zM242.8 25.6H149.6C145.6 25.6 142.4 22.4 142.4 18.4S145.6 11.2 149.6 11.2H242.8C246.8 11.2 250 14.4 250 18.4S246.4 25.6 242.8 25.6zM91.6 202C92.8 200.8 94.8 200 96.4 200C98 200 100 200.8 101.2 202C104 204.8 104 209.2 101.2 212L68 245.6C60.8 252.8 49.6 252.8 42.4 245.6L8.4 212C5.6 209.2 5.6 204.8 8.4 202S15.6 199.2 18.4 202L48 231.6V24L18.4 54C15.6 56.8 11.2 56.8 8.4 54S5.6 46.8 8.4 44L42 10C45.6 6.4 50 4.8 54.8 4.8C59.6 4.8 64 6.8 67.6 10L101.6 44C104.4 46.8 104.4 51.2 101.6 54S94.4 56.8 91.6 54L62 24.4V231.6L91.6 202z" />
    <glyph glyph-name="list"
      unicode="&#xEB1D;"
      horiz-adv-x="256" d="M63.2 201.2H244C248 201.2 251.2 204.4 251.2 208.4S248 215.2 244 215.2H63.2C59.2 215.2 56 212 56 208S59.6 201.2 63.2 201.2zM244 134.8H63.2C59.2 134.8 56 131.6 56 127.6S59.2 120.4 63.2 120.4H244C248 120.4 251.2 123.6 251.2 127.6S248 134.8 244 134.8zM244 54.8H63.2C59.2 54.8 56 51.6 56 47.6S59.2 40.4 63.2 40.4H244C248 40.4 251.2 43.6 251.2 47.6S248 54.8 244 54.8zM23.2 219.6C16.8 219.6 12 214.4 12 208.4S16.8 197.2 23.2 197.2S34.4 202 34.4 208.4S29.2 219.6 23.2 219.6zM23.2 139.2C16.8 139.2 12 134 12 128C12 122 16.8 116.8 23.2 116.8S34.4 121.6 34.4 128C34.4 134 29.2 139.2 23.2 139.2zM23.2 58.8C17.2 58.8 12 54 12 47.6S16.8 36.4 23.2 36.4S34.4 41.2 34.4 47.6S29.2 58.8 23.2 58.8z" />
    <glyph glyph-name="magnifier"
      unicode="&#xEB22;"
      horiz-adv-x="256" d="M244 50.4L196 98.4C187.6 106.8 174.4 107.6 164.8 100.8L140.4 125.2C152 138.8 158 156 158 174C158 194.4 150 213.6 135.6 228C105.6 258 57.2 258 27.2 228S-2.8 149.6 27.2 119.6C41.6 105.2 60.8 97.2 81.2 97.2C99.2 97.2 116.4 103.6 130 114.8L154.4 90.4C147.6 80.8 148.4 67.6 156.8 59.2L204.8 11.2C209.2 6.8 215.6 4 222 4C228.4 4 234.4 6.4 239.2 11.2L243.6 15.6C248 20 250.8 26.4 250.8 32.8C251.2 40 248.4 46 244 50.4zM37.2 130.4C12.8 154.8 12.8 194.4 37.2 218.8C49.2 230.8 65.6 237.2 81.6 237.2S113.6 231.2 126 218.8C138 206.8 144.4 191.2 144.4 174.4C144.4 157.6 138 142 126 130S98.4 112 81.6 112C64.8 112 49.2 118.4 37.2 130.4zM234 26.4L229.6 22C225.6 18 219.2 18 215.2 22L167.2 70C163.2 74 163.2 80.4 167.2 84.4L171.6 88.8C173.6 90.8 176 91.6 178.8 91.6C181.2 91.6 184 90.8 186 88.8L234 40.8C238 36.8 238 30.4 234 26.4zM99.2 206.4C96.4 203.6 96.4 199.2 99.2 196.4C110 185.6 110 167.6 99.2 156.8C96.4 154 96.4 149.6 99.2 146.8C100.4 145.6 102.4 144.8 104 144.8S107.6 145.6 108.8 146.8C125.2 163.2 125.2 190 108.8 206.4C106.4 209.2 102 209.2 99.2 206.4z" />
 
    <glyph glyph-name="map-marker"
      unicode="&#xEB24;"
      horiz-adv-x="256" d="M128 250.8C72.4 250.8 26.8 206.8 26.8 153.2C26.8 110.4 88 39.6 114.4 10.8C118 6.8 122.8 4.8 128 4.8C133.2 4.8 138 6.8 141.6 10.8C168 39.2 229.2 110.4 229.2 153.2C229.2 207.2 183.6 250.8 128 250.8zM131.2 20.4C129.2 18.4 126.4 18.4 124.8 20.4C105.2 41.6 40.8 114.4 40.8 153.2C40.8 199.6 80 236.8 128 236.8S215.2 199.2 215.2 153.2C215.2 114.4 150.8 42 131.2 20.4zM128 193.2C104.4 193.2 84.8 174 84.8 150C84.8 126.4 104 106.8 128 106.8S171.2 126 171.2 150C171.2 174 151.6 193.2 128 193.2zM128 121.2C112 121.2 98.8 134.4 98.8 150.4S112 179.6 128 179.6S157.2 166.4 157.2 150.4S144 121.2 128 121.2z" />
    <glyph glyph-name="map"
      unicode="&#xEB25;"
      horiz-adv-x="256" d="M122.8 204.4A8 8 0 0 1 138.8 204.4A8 8 0 0 1 122.8 204.4M232.8 184.4L165.2 200C165.6 201.6 165.6 202.8 165.6 204C165.6 223.6 150.4 239.2 130.8 239.2C111.6 239.2 96 223.6 96 204C96 199.2 98 192.8 100.8 186L89.6 183.6L34.8 199.2C27.6 201.2 20 200 14 195.2C8 190.8 4.8 184 4.8 176.4V58C4.8 47.6 12 38 22 35.2L89.2 16.4L166.8 32.4L222 20C223.6 19.6 225.6 19.2 227.2 19.2C232.4 19.2 237.6 20.8 242 24.4C247.6 28.8 250.8 35.6 250.8 42.8V161.6C251.2 172.8 243.6 182 232.8 184.4zM131.2 225.2C142.8 225.2 152 216 152 204C152 197.6 144 181.2 131.2 161.6C118.4 180.8 110.4 197.2 110.4 204C110 215.6 119.6 225.2 131.2 225.2zM107.6 173.2C112.4 164.8 117.6 156.4 122.8 148.8C124.8 146 127.6 144.4 130.8 144.4S137.2 146 138.8 148.8C146 159.6 154.4 172.4 159.6 184V45.2L96.4 32V170.8L107.6 173.2zM19.2 58.4V176.4C19.2 179.6 20.4 182.4 22.8 184C25.2 186 28.4 186.4 31.2 185.6L82.4 171.2V32.8L26 48.8C22 50 19.2 54 19.2 58.4zM237.2 42.8C237.2 40 236 37.2 233.6 35.2C231.2 33.2 228.4 32.8 225.6 33.2L174 45.2V184L229.6 171.2C234 170 237.2 166.4 237.2 162V42.8z" />
    <glyph glyph-name="mastercard"
      unicode="&#xEB28;"
      horiz-adv-x="256" d="M224.4 206H31.6C14.8 206 1.2 192.4 1.2 175.6V80.4C1.2 63.6 14.8 50 31.6 50H224.8C241.6 50 255.2 63.6 255.2 80.4V175.6C255.2 192.4 241.2 206 224.4 206zM241.2 80.4C241.2 71.2 234.0000000000001 64 224.8 64H31.6C22.4 64 15.2 71.2 15.2 80.4V175.6C15.2 184.8 22.8 192 31.6 192H224.8C234 192 241.2 184.4 241.2 175.6V80.4zM147.6 166.4C139.6 166.4 132 164 126 159.6C120.4 163.6 113.6 165.2 106.4 165.2C86 165.2 69.2 148.4 69.2 128S86 90.8 106.4 90.8C113.2 90.8 120 92.8 126 96.4C132.4 92 139.6 89.6 147.6 89.6C168.8 89.6 186 106.8 186 128S168.8 166.4 147.6 166.4zM148.4 99.2C143.2 99.2 138.4 100.8 134.4 102.8C140.4 109.6 144.4 118 144.4 128C144 138 140.4 146.8 134.4 153.2C138.8 155.6 143.2 156.8 148.4 156.8C164 156.8 177.2 144 177.2 128C176.8 112 164 99.2 148.4 99.2z" />
    <glyph glyph-name="menu"
      unicode="&#xEB2A;"
      horiz-adv-x="256" d="M244 134.8H12C8 134.8 4.8 131.6 4.8 127.6S8 120.8 12 120.8H244C248 120.8 251.2 124 251.2 128S248 134.8 244 134.8zM244 64.4H12C8 64.4 4.8 61.2 4.8 57.2S8 50.4 12 50.4H244C248 50.4 251.2 53.6 251.2 57.6S248 64.4 244 64.4zM12 191.6H244C248 191.6 251.2 194.8 251.2 198.8S248 205.6 244 205.6H12C8 205.6 4.8 202.4 4.8 198.4S8 191.6 12 191.6z" />
    <glyph glyph-name="minus"
      unicode="&#xEB30;"
      horiz-adv-x="256" d="M244 120.8H12C8 120.8 4.8 124 4.8 128S8 135.2 12 135.2H244C248 135.2 251.2 132 251.2 128S248 120.8 244 120.8z" />	  
    <glyph glyph-name="mobile"
      unicode="&#xEB31;"
      horiz-adv-x="256" d="M128 62.8C120 62.8 114 56.4 114 48.8C114 40.8 120.4 34.8 128 34.8S142 41.2 142 48.8S136 62.8 128 62.8zM140 218.8H116C112 218.8 108.8 215.6 108.8 211.6S112 204.4 116 204.4H140C144 204.4 147.2 207.6 147.2 211.6S144 218.8 140 218.8zM180 250.8H76C63.2 250.8 52.8 240.4 52.8 227.6V27.6C52.8 14.8 63.2 4.4 76 4.4H180C192.8 4.4 203.2 14.8 203.2 27.6V228C203.2 240.8 192.8 250.8 180 250.8zM189.2 28C189.2 23.2 185.2 18.8 180 18.8H76C71.2 18.8 66.8 22.8 66.8 28V228C66.8 232.8 70.8 237.2 76 237.2H180C184.8 237.2 189.2 233.2 189.2 228V28z" />
    <glyph glyph-name="more-alt"
      unicode="&#xEB34;"
      horiz-adv-x="256" d="M12 128A29.200000000000006 29.200000000000006 0 0 1 70.4 128A29.200000000000006 29.200000000000006 0 0 1 12 128M99.2 128A28.799999999999997 28.799999999999997 0 0 1 156.8 128A28.799999999999997 28.799999999999997 0 0 1 99.2 128M186 128A29.200000000000006 29.200000000000006 0 0 1 244.4 128A29.200000000000006 29.200000000000006 0 0 1 186 128" />
    <glyph glyph-name="more"
      unicode="&#xEB35;"
      horiz-adv-x="256" d="M128 156C112.4 156 100 143.2 100 128C100 112.4 112.8 100 128 100C143.6 100 156 112.8 156 128C156 143.6 143.6 156 128 156zM128 114C120.4 114 114 120.4 114 128S120.4 142 128 142S142 135.6 142 128S135.6 114 128 114zM222.8 156C207.2 156 194.8 143.2 194.8 128C194.8 112.4 207.6 100 222.8 100C238.4 100 250.8 112.8 250.8 128C251.2 143.6 238.4 156 222.8 156zM222.8 114C215.2 114 208.8 120.4 208.8 128S215.2 142 222.8 142S236.8 135.6 236.8 128S230.8 114 222.8 114zM33.2 156C17.6 156 5.2 143.2 5.2 128C5.2 112.4 18 100 33.2 100C48.8 100 61.2 112.8 61.2 128C61.2 143.6 48.4 156 33.2 156zM33.2 114C25.6 114 19.2 120.4 19.2 128S25.6 142 33.2 142S47.2 135.6 47.2 128S40.8 114 33.2 114z" />
    <glyph glyph-name="move"
      unicode="&#xEB37;"
      horiz-adv-x="256" d="M245.2 141.2L216 170.4C213.2 173.2 208.8 173.2 206 170.4S203.2 163.2 206 160.4L231.2 134.8H135.2V232L160.4 206.4C163.2 203.6 167.6 203.6 170.4 206.4S173.2 213.6 170.4 216.4L141.2 245.6C137.6 249.2 132.8 251.2 128 251.2C122.8 251.2 118.4 249.2 114.8 245.6L85.6 216.4C82.8 213.6 82.8 209.2 85.6 206.4C86.8 205.2 88.8 204.4 90.4 204.4C92 204.4 94 205.2 95.2 206.4L121.2 232V135.2H24.4L49.6 160.8C52.4 163.6 52.4 168 49.6 170.8S42.4 173.6 39.6 170.8L10.4 141.6C3.2 134.4 3.2 122.4 10.4 115.2L39.6 86C40.8 84.8 42.8 84 44.4 84C46 84 48 84.8 49.2 86C52 88.8 52 93.2 49.2 96L23.6 121.6H120.4V24L94.8 49.6C92 52.4 87.6 52.4 84.8 49.6S82 42.4 84.8 39.6L114 10.4C117.6 6.8 122.4 4.8 127.2 4.8C132.4 4.8 136.8 6.8 140.4 10.4L169.6 39.6C172.4 42.4 172.4 46.8 169.6 49.6S162.4 52.4 159.6 49.6L135.2 24V121.2H231.6L206 95.6C203.2 92.8 203.2 88.4 206 85.6C207.2 84.4 209.2 83.6 210.8 83.6C212.4 83.6 214.4 84.4 215.6 85.6L244.8 114.8C252.4 122 252.4 134 245.2 141.2z" />
    <glyph glyph-name="music"
      unicode="&#xEB38;"
      horiz-adv-x="256" d="M244.8 224.4C240.8 228 235.2 230 229.6 229.6L86.8 218.8C76.4 218 68.4 209.2 68.4 198.8V76C61.6 80 53.2 82.4 43.6 82.4C22 82.4 4.8 70 4.8 54.4S21.6 26.4 43.6 26.4S82.4 38.8 82.4 54.4V148L237.2 160V87.2C230.4 91.2 222 93.6 212.4 93.6C190.8 93.6 173.6 81.2 173.6 65.6S190.4 37.6 212.4 37.6S251.2000000000001 50 251.2000000000001 65.6V210.4C251.2000000000001 215.2 248.8000000000001 220.8 244.8000000000001 224.4zM43.6 40.4C29.2 40.4 18.8 48 18.8 54.4S28.8 68.4 43.6 68.4S68.4 60.8 68.4 54.4S58 40.4 43.6 40.4zM212.4 50.8C198 50.8 187.6 58.4 187.6 64.8S197.6 78.8 212.4 78.8S237.2000000000001 71.2 237.2000000000001 64.8S226.8000000000001 50.8 212.4 50.8zM82.4 198.8C82.4 202 84.8 204.4 88 204.8L230.8000000000001 215.6H231.2000000000001C232.8000000000001 215.6 234.0000000000001 215.2 235.2000000000001 214C236.4000000000001 212.8 237.2000000000001 211.2 237.2000000000001 209.6V173.6L82.4 161.6V198.8z" />
    <glyph glyph-name="offer"
      unicode="&#xEB40;"
      horiz-adv-x="256" d="M241.6 146.8L232 154.4C228.8 156.8 227.6 160.8 228.4 164.4L231.6 176.4C233.6 183.2 232 190.4 228 196.4C223.6 202.4 216.8 206.4 208.8 206.8L196 207.6C191.6 208 188 210.4 186.4 214L181.6 225.2C178.8 231.6 173.2 236.8 166.4 239.2C159.2 241.6 151.2 240.8 144.8 236.8L134 230.4C130.4 228 125.6 228 122 230.4L111.2 236.8C104.8 240.8 96.8 241.6 89.6 239.2C82.8 236.8 77.2 232 74.4 225.2L69.6 214C68 210.4 64.4 207.6 60 207.6L47.2 206.8C39.6 206.4 32.4 202.4 28 196.4C24 190.4 22.4 183.2 24.4 176.4L27.6 164.4C28.8 160.8 27.2 156.8 24 154.4L14 146.8C8 142 4.8 135.2 4.8 128C4.8 120.8 8 114 14 109.2L24 101.6C27.2 99.2 28.4 95.2 27.6 91.6L24.4 79.6C22.4 72.8 24 65.6 28 59.6C32.4 53.6 39.2 49.6 47.2 49.2L60 48.4C64.4 48 68 45.6 69.6 42L74.4 30.8C77.2 24.4 82.8 19.2 89.6 16.8C92.4 16 94.8 15.6 97.6 15.6C102.4 15.6 106.8 16.8 110.8 19.2L121.6 25.6C125.2 28 130 28 133.6 25.6L144.4 19.2C150.8 15.2 158.8 14.4 166 16.8C172.8 19.2 178.4 24 181.2 30.8L186 42C187.6 45.6 191.2 48.4 195.6 48.4L208.4 49.2C216 49.6 223.2 53.6 227.6 59.6C231.6 65.6 233.2 72.8 231.2 79.6L228 91.6C226.8 95.2 228.4 99.2 231.6 101.6L241.6 109.2C247.6 114 250.8 120.8 250.8 128S247.6 142 241.6 146.8zM233.2 120.4L223.2 112.8C215.6 106.8 212.4 97.2 214.8 88L218 76C218.8 73.2 218.4 70.4 216.4 68C214.4 65.2 211.2 63.6 208 63.6L195.2 62.8C185.6 62.4 177.2 56.4 173.6 47.6L168.8 36C167.6 33.2 165.2 31.2 162 30C158.8 28.8 155.2 29.2 152 31.2L141.2 37.6C133.2 42.4 122.8 42.4 114.4 37.6L104 31.2C101.2 29.6 97.6 29.2 94 30C90.8 31.2 88.4 33.2 87.2 36L82.4 47.2C78.8 56 70.4 61.6 60.8 62.4L48 63.2C44.4 63.6 41.2 65.2 39.6 67.6C38 70 37.2 72.8 38 75.6L41.2 87.6C43.6 96.8 40.4 106.4 32.8 112.4L22.8 120C20.4 122 18.8 124.8 18.8 127.6C18.8 130.8 20 133.2 22.8 135.2L32.8 142.8C40.4 148.8 43.6 158.4 41.2 167.6L38 179.6C37.2 182.4 37.6 185.2 39.6 187.6C41.6 190.4 44.8 192 48 192L60.8 192.8C70.4 193.2 78.8 199.2 82.4 208L87.2 220C88.4 222.8 90.8 224.8 94 226C95.2 226.4 96.4 226.8 97.6 226.8C99.6 226.8 102 226.4 103.6 225.2L114.4 218.8C122.4 214 132.8 214 141.2 218.8L152 224.8C154.8 226.4 158.4 226.8 162 226C165.2 224.8 167.6 222.8 168.8 220L173.6 208.8C177.2 200 185.6 194.4 195.2 193.6L208 192.8C211.6 192.4 214.8000000000001 190.8 216.4 188.4C218 186 218.8000000000001 183.2 218 180.4L214.8000000000001 168.4C212.4 159.2 215.6000000000001 149.6 223.2000000000001 143.6L233.2000000000001 136C235.6000000000001 134 237.2000000000001 131.2 237.2000000000001 128.4C237.2000000000001 124.8 235.6000000000001 122.4 233.2000000000001 120.4zM164.4 164.8C161.6 167.6 157.2 167.6 154.4 164.8L91.6 101.6C88.8 98.8 88.8 94.4 91.6 91.6C92.8 90.4 94.8 89.6 96.4 89.6S100 90.4 101.2 91.6L164.4 154.8C167.2 157.6 167.2 162 164.4 164.8zM86 154.4A15.600000000000001 15.600000000000001 0 0 1 117.2 154.4A15.600000000000001 15.600000000000001 0 0 1 86 154.4M138.8 102A15.600000000000001 15.600000000000001 0 0 1 170 102A15.600000000000001 15.600000000000001 0 0 1 138.8 102" />
    <glyph glyph-name="package"
      unicode="&#xEB42;"
      horiz-adv-x="256" d="M250 171.6L231.2 229.6C228 239.6 218.8 246.4 208.4 246.4H49.6C39.6 246.4 30.4 240 27.2 230.4L6.4 172C5.6 169.6 5.2 167.6 5.2 165.2V39.6C5.2 23.2 18.4 10 34.8 10H221.6C238.0000000000001 10 251.2 23.2 251.2 39.6V165.2C251.2 167.2 250.8 169.2 250.0000000000001 171.6zM218 225.2L234.4 174H135.2V232.4H208.8C212.8 232.4 216.8 229.6 218 225.2zM40.4 225.6C42 229.6 45.6 232.4 50 232.4H121.2V174.4H22L40.4 225.6zM221.2 23.6H34.8C26 23.6 19.2 30.8 19.2 39.2V160.4H237.2V39.6C237.2 30.8 230 23.6 221.2 23.6z" />
    <glyph glyph-name="pagination"
      unicode="&#xEB44;"
      horiz-adv-x="256" d="M248 134.8L204.8 178.4C202 181.2 197.6 181.2 194.8 178.4S192 171.2 194.8 168.4L235.2 128L194.8 87.6C192 84.8 192 80.4 194.8 77.6C196 76.4 198 75.6 199.6 75.6C201.2 75.6 203.2 76.4 204.4 77.6L247.6 121.2C252.0000000000001 124.8 252.0000000000001 131.2 248.0000000000001 134.8zM61.2 178.4C58.4 181.2 54 181.2 51.2 178.4L8 134.8C4 131.2 4 124.8 8 121.2L51.2 77.6C52.4 76.4 54.4 75.6 56 75.6C57.6 75.6 59.6 76.4 60.8 77.6C63.6 80.4 63.6 84.8 60.8 87.6L20.8 128L61.2 168.4C63.6 171.2 63.6 175.6 61.2 178.4zM86 139.2C79.6 139.2 74.8 134 74.8 128S80 116.8 86 116.8C92.4 116.8 97.2 122 97.2 128S92.4 139.2 86 139.2zM118 128A11.199999999999998 11.199999999999998 0 0 1 140.4 128A11.199999999999998 11.199999999999998 0 0 1 118 128M162 128A11.199999999999998 11.199999999999998 0 0 1 184.4 128A11.199999999999998 11.199999999999998 0 0 1 162 128" />
	 
    <glyph glyph-name="pause"
      unicode="&#xEB4A;"
      horiz-adv-x="256" d="M70 230H28C15.2 230 4.8 219.6 4.8 206.8V48.8C4.8 36 15.2 25.6 28 25.6H70C82.8 25.6 93.2 36 93.2 48.8V206.8C92.8 219.6 82.4 230 70 230zM78.8 49.2C78.8 44.4 74.8 40 69.6 40H28C23.2 40 18.8 44 18.8 49.2V206.8C19.2 212 23.2 216 28 216H70C74.8 216 79.2 212 79.2 206.8V49.2zM228 230H186C173.2 230 162.8 219.6 162.8 206.8V48.8C162.8 36 173.2 25.6 186 25.6H228C240.8 25.6 251.2 36 251.2 48.8V206.8C251.2 219.6 240.8 230 228 230zM237.2 49.2C237.2 44.4 233.2 40 228 40H186C181.2 40 176.8 44 176.8 49.2V206.8C176.8 211.6 180.8 216 186 216H228C232.8 216 237.2 212 237.2 206.8V49.2z" />
    <glyph glyph-name="paypal-original"
      unicode="&#xEB4B;"
      horiz-adv-x="256" d="M222.8 180.4L222.4 180.8C211.6 129.6 177.6 102 122.4 102H100L87.2 19.2H75.2L73.6 10.4C73.2 7.2 76 3.6 79.2 3.6H119.2C123.6 3.6 128 6.8 128.8 11.6L129.2 13.2L136.4 61.2L136.8 64C137.2 68.4 141.2 72 146.4 72H152.4C191.2 72 221.6 87.6 230.4 133.2C234.8 153.2 232.4 168.8 222.8 180.4zM100 102.8zM89.2 106.8L88.8 104.4C89.2 110 94.4 114 99.6 114H122C166.4 114 200.8 132 211.6 184.4C212 186 212 187.2 212 188.8C214.8 208 212 221.6 201.2 233.2C198.4 236.4 194.4 239.2 190.4 242C184.8 245.2 179.2 247.6 172.4 248.8C168 250 162.4 250.4 156.8 251.2C152 251.6 147.6 252 142.4 252H66C60.4 252 56 248 55.2 243.2L23.2 39.6C22.8 35.2 25.6 31.6 30 31.6H77.2L89.2 106.8z" />
    <glyph glyph-name="paypal"
      unicode="&#xEB4C;"
      horiz-adv-x="256" d="M211.2 212.4C207.2 238 188 254.8 161.2 254.8H74C70.8 254.8 68 252.8 67.2 249.6L17.2 46.8C16.8 44.8 17.2 42.4 18.4 40.8C20 39.2 22 38 24 38H51.6L44.8 9.6C44.4 7.6 44.8 5.2 46 3.6C47.2 2 49.2 0.8 51.6 0.8H113.6C116.8 0.8 119.6 3.2 120.4 6.4L139.2 88H160.8C177.6 88 194.8 94.8 208.8 106.4C222.8 118 232.8 134 236.8 151.2C243.2 178 232.4 202.4 211.2 212.4zM79.6 240.8H161.2C181.6 240.8 196 227.6 197.2 207.6C197.6 201.2 197.2 196.4 196 191.6C192.8 178 184.4 164.4 172.4 154.4C160.8 144.4 146.8 139.2 133.2 139.2H106.8C103.6 139.2 100.8 136.8 100 134L80.4 52H33.2L79.6 240.8zM223.6 154.4C220.4 140.4 212 127.2 200 117.2C188.4 107.2 174.4 102 160.8 102H133.6C130.4 102 127.6 99.6 126.8 96.4L108 14.8H60.4L66 38H85.6C88.8 38 91.6 40.4 92.4 43.2L112 124.8H133.2C150 124.8 167.2 131.6 181.6 143.2C196 155.2 205.6 171.2 209.6 187.6C210.4 190 210.8 192.8 210.8 195.6C222.4 187.6 227.6 171.6 223.6 154.4z" />
    <glyph glyph-name="phone-set"
      unicode="&#xEB4F;"
      horiz-adv-x="256" d="M230.8 108.4C230 117.6 222.4 124 213.2 124H42.8C33.6 124 26.4 117.2 25.2 108.4L16.8 24.4C16.4 19.6 18 14.4 21.2 10.8C24.4 7.2 29.2 5.2 34.4 5.2H222C226.8 5.2 231.6 7.2 235.2 10.8C238.4 14.4 240 19.2 239.6 24.4L230.8 108.4zM224.4 20C224 19.6 223.2 18.8 221.6 18.8H34.4C33.2 18.8 32 19.6 31.6 20C31.2 20.4 30.4 21.2 30.8 22.8L39.2 107.2C39.2 109.2 40.8 110.4 42.8 110.4H213.6C215.6 110.4 216.8 109.2 217.2 107.2L225.6 22.8C225.2 21.6 224.8 20.4 224.4 20zM128 92.8C112.4 92.8 100 80.4 100 64.8S112.4 36.8 128 36.8S156 49.2 156 64.8S143.6 92.8 128 92.8zM128 50.8C120.4 50.8 114 57.2 114 64.8S120.4 78.8 128 78.8S142 72.4 142 64.8S135.6 50.8 128 50.8zM26.4 177.6C27.2 160 42.8 152.8 50.8 152.8H79.2C91.2 153.6 103.2 161.6 103.2 177.6V187.2H160V177.6C160 161.6 172 153.6 184 152.8H212C220 152.8 235.6 160 236.4 177.6V187.2V193.6V194.4C235.2 205.6 231.2 214.8 224.4 222L224 222.4C214 231.6 202 236.8 192.8 240C166 250.4 132.4 250.4 130.8 250.4C107.2 250 92 248 69.2 240C60.4 237.2 48.4 232 38.4 222.8L38 222.4C31.2 215.2 27.2 206 26 194.8V187.6C26.4 184 26.4 179.2 26.4 177.6zM48 212.8C56 220 66 224.4 74.4 227.6C95.2 235.2 108.8 236.8 131.6 237.2C133.2 237.2 164.4 236.8 188.4 227.6C196.8000000000001 224.4 206.8000000000001 220.4 214.8000000000001 212.8C219.2000000000001 208 222 201.6 222.8000000000001 194V178C222.4 168.8 213.6000000000001 166.8 212.4 166.8H184.8000000000001C180.8000000000001 167.2 174.4 168.8 174.4 177.6V194C174.4 197.2 172.4 199.6 169.6 200.8C167.2 201.6 97.2 201.6 94.8 200.8C92 200 90 197.2 90 194V177.6C90 168.8 83.6 167.2 79.6 166.8H52C50.8 166.8 42 168.8 41.6 178V187.6V193.6C40.8 201.6 43.6 208 48 212.8z" />
    <glyph glyph-name="phone"
      unicode="&#xEB50;"
      horiz-adv-x="256" d="M196.4 10.8C163.6 10.8 116.4 34.4 73.2 75.6C14.4 131.6 -10.8 194 14.8 221.2C16 222.4 17.2 223.2 18.8 224L52.4 242.8C60 246.8 69.6 244.8 74.4 238.0000000000001L98.8 203.2C101.2 199.6 102.4 195.2 101.6 191.2C100.8 186.8 98.4 183.2 94.8 180.8L80 171.2C79.2 170.8 79.2 170.4 79.2 170C79.2 169.6 79.2 169.2 79.6 168.8C90.4 152.8 121.2 112 170 82.8C171.2 82 173.2 82.4 174 83.2L184.4 97.2C189.6 104.4 199.6 106 207.2 101.2L243.6 78C251.2 73.2 253.6 63.6 248.8 56L228.8 24C228 22.4 226.8 21.2 225.6 20.4C218 13.6 208 10.8 196.4 10.8zM60.8 231.2C60.4 231.2 60 231.2 59.2 230.8L25.6 212C25.2 211.6 25.2 211.6 24.8 211.6C8 193.6 27.2 138.8 83.2 85.6S197.2 14 216.4 30.4L216.8 30.8L236.8 62.8C237.2 63.6 237.2 64.8 236 65.6L199.6 88.8C198.4 89.6 196.4 89.2 195.6 88.4L185.2 74.4C180 67.6 170.4 65.6 162.8 70C111.2 100.8 79.2 143.6 68 160.8C65.6 164.4 64.8 168.4 65.6 172.8C66.4 176.8 68.8 180.8 72.4 182.8L87.2 192.8C88 193.2 88 193.6 88 194C88 194.4 88 194.8 87.6 195.6L63.2 230.4C62.8 230.8 61.6 231.2 60.8 231.2zM222.8 27.6z" />
    <glyph glyph-name="pin"
      unicode="&#xEB54;"
      horiz-adv-x="256" d="M187.6 191.2C187.6 224 160.8 250.8 128 250.8S68.4 224 68.4 191.2C68.4 160.8 91.6 135.6 121.2 132V12C121.2 8 124.4 4.8 128.4 4.8S135.6 8 135.6 12V132C164.8 135.6 187.6 160.8 187.6 191.2zM128 145.6C102.8 145.6 82.4 166 82.4 191.2C82.4 216.4 102.8 236.8 128 236.8S173.6 216.4 173.6 191.2C173.6 166 153.2 145.6 128 145.6zM138.4 216C130.4 216 124.4 209.6 124.4 202S130.8 188 138.4 188C146.4 188 152.4 194.4 152.4 202S146.4 216 138.4 216z" />
 
    <glyph glyph-name="plane"
      unicode="&#xEB57;"
      horiz-adv-x="256" d="M148.8 4.8C145.6 4.8 142.8 6 140.4 8.4L118.8 30C114.8 34 114.4 40 117.2 44.8L134.8 73.2L103.2 104L53.2 42.8C51.2 40 48 38.4 44.4 38.4C41.2 38.4 37.6 39.6 35.6 42L8.8 68.8C4.8 72.8 4.4 79.2 7.2 84L53.6 153.6L34.4 172C20.8 185.6 21.2 207.6 34.8 221.2C41.2 228 50 231.6 59.2 232C68.8 232 77.6 228.4 84 222L102.8 202.8L172 248.8C176.8 252 183.2 251.2 187.2 247.2L214 220.4C216.4 218 217.6 214.8 217.6 211.6C217.6 208.4 216 205.2 213.2 202.8L152 152.4L182.8 120.8L211.2 138.4C216 141.2 222 140.8 226.0000000000001 136.8L247.6 115.2C250.4000000000001 112.4 251.6 108.8 250.8 105.2C250.4 101.6 248 98 244.8 96.4L190 66L159.6 11.2C157.6 8 154.4 5.6 150.8 5.2C150 5.2 149.6 4.8 148.8 4.8zM130 38.8L148.4 20L179.6 76L235.6 107.2L217.2 126L188.8 108C184 104.8 178 105.6 174 109.6L140.4 144C138 146.4 136.8 149.6 137.2 152.8C137.2 156 139.2 159.2 141.6 161.6L202.8 212L178.8 236L109.2 190C104.4 186.8 98 187.6 94 191.6L74 212C70.4 215.6 65.2 218 59.6 217.6C54 217.6 48.8 215.2 44.8 211.2C36.4 202.8 36.4 189.6 44.4 181.6L64.8 161.6C68.8 157.6 69.6 151.2 66.4 146.4L19.6 77.2L43.6 53.2L94 114.4C96 117.2 99.2 118.8 102.8 118.8C106 118.8 109.6 117.6 111.6 115.6L145.6 82C149.6 78 150.4 72 147.2 67.2L130 38.8z" />
 
    <glyph glyph-name="play"
      unicode="&#xEB59;"
      horiz-adv-x="256" d="M35.6 4.8C32.8 4.8 30.4 5.6 28 6.8C23.2 9.6 20 14.4 20 20V236C20 241.6 22.8 246.4 28 249.2C32.8 252 38.8 252 43.6 248.8L229.2 140.8C234 138 236.4 133.2 236.4 128C236.4 122.8 233.6 118 229.2 115.2L43.6 7.2C41.2 5.6 38.4 4.8 35.6 4.8zM35.2 236.8C34.8 236.8 34.4 236.8 34.4 236.4C34 236.4 34 236 34 236V20.4S34 19.6 34.8 19.6C35.2 19.6 35.6 19.2 36.4 19.6L222 127.6S222.4 128 222.4 128.4S222 129.2 222 129.2L36 236.8H35.2z" />

    <glyph glyph-name="plus"
      unicode="&#xEB5C;"
      horiz-adv-x="256" d="M244 134.8H135.2V244C135.2 248 132 251.2 128 251.2S121.2 248 121.2 244V134.8H12C8 134.8 4.8 131.6 4.8 127.6S8 120.8 12 120.8H121.2V12C121.2 8 124.4 4.8 128.4 4.8S135.6 8 135.6 12V120.8H244C248 120.8 251.2 124 251.2 128S248 134.8 244 134.8z" />
    <glyph glyph-name="pointer-down"
      unicode="&#xEB5D;"
      horiz-adv-x="256" d="M148 5.2C142.4 5.2 136.8 6.8 132.4 9.6C130.4 10.8 128.4 12.8 126.4 14.8C120.4 21.6 116.4 31.2 115.2 42.4C114.4 49.6 114.8 56.8 115.2 64V65.2C105.6 63.6 94.8 66.8 87.6 73.6C76 70 62.8 74 54.4 83.2C48.8 81.6 42.4 81.6 36.4 84C28 87.2 21.2 93.6 18 101.6C15.2 108.4 15.2 115.6 15.2 121.6C15.2 135.6 14.8 149.6 15.6 163.6C16.4 182.8 19.2 207.2 33.6 224.8C45.2 238.8 63.6 247.6 86.8 250C107.2 252.4 136.4 250 156 239.6C174.4 230 186.8 204.8 192.4 192.8C193.2 190.8 194.4 188.8 194.8 188.4C207.2 168.4 217.6 152.8 228 139.2C233.2 132.4 239.6 124 240 113.6C240 102 232 91.2 220.4 87.2C211.2 84 200.8 85.6 190.4 90.8C186.8 92.8 183.6 94.8 180.4 97.2C180.4 80.4 180.8 63.2 180 46.4C179.6 38.4 179.2 30.4 176 23.2C172.4 14.8 164.8 8.8 155.6 6C153.6 5.6 150.8 5.2 148 5.2zM136.8 24C138 22.8 138.8 22 140 21.2C143.6 18.8 148 18.4 152.8 19.6C158 21.2 162 24.8 164 29.2C166.4 34 166.4 40 166.8 47.2C167.6 69.2 167.2 91.6 166.8 113.2C166.8 116 168.4 118.4 170.8 119.6C173.2 120.8 176.4 120.4 178.4 118.4C184.4 112.8 190.4 107.2 197.2 103.6C201.2 101.6 208.8 98.4 216.4 100.8C221.2 102.4 226.4 107.6 226.4 113.6C226.4 119.2 222 125.2 217.6 130.4C206.8 144.4 195.6 160.4 183.2 180.8C182.4 182 181.6 184 180.4 186.4C175.6 196.4 164.4 219.2 150 226.8C133.2 235.6 106.4 237.6 88.8 236C75.2 234.4 56.4 229.6 44.8 216C33.2 201.6 30.8 180.4 30 163.2C29.6 149.6 29.6 135.6 29.6 122C29.6 116.4 29.6 111.2 31.6 106.4C33.2 102 36.8 98.8 41.6 97.2C46 95.6 50.4 96 54 98C55.6 98.8 57.6 99.2 59.2 98.8C60.8 98.4 62.4 97.2000000000001 63.6 95.6000000000001C68 87.6000000000001 79.2 84.0000000000001 86.8 88.4000000000001C90 90.0000000000001 93.6 89.2000000000001 96 86.4000000000001C101.2 79.2000000000001 112 76.8000000000001 119.6 81.6000000000001C121.6 82.8 124.4 83.2000000000001 126.8 82.0000000000001C129.2 80.8000000000001 130.4 78.4000000000001 130.4 76.0000000000001C130.4 72.0000000000001 130 68.0000000000001 130 64.0000000000001C129.6 57.2000000000001 129.2 50.8000000000001 129.6 44.8000000000001C130 35.6000000000001 132.8 28.4000000000001 136.8 24.0000000000001z" />
    <glyph glyph-name="pointer-left"
      unicode="&#xEB5E;"
      horiz-adv-x="256" d="M141.6 15.6H122C115.6 15.6 108.8 15.6 102 18.4C94 21.6 87.6 28.4 84.4 36.8C82.4 42.8 82 49.2 83.6 54.8C74.4 62.8 70.4 76.4 74 88C66.8 95.2 64 106 65.6 115.6H64.4C57.6 115.2 50.4 114.8 42.8 115.6C31.6 116.8 21.6 120.4 15.2 126.8C13.2 128.4 11.6 130.4 10 132.8C5.6 139.6 4.4 148.8 6.8 157.2C9.6 166.4 15.6 173.6 24 177.6C31.2 180.8 39.2 181.2 47.2 181.6C64 182 81.2 182 98 182C95.6 185.2 93.6 188.4 91.6 192C86.4 202 84.8 212.8 88 222C91.6 233.6 102.8 241.6 114.4 241.6C124.8 241.6 133.2 234.8 139.6 230C153.2 219.2 168.8 208.8 188.8 196.4C189.6 196 191.2 195.2 193.2 194C205.2 188 230.4000000000001 176 240 157.6C250.4 138 252.8 108.8 250.4 88.4C248 65.2 239.2 46.8 225.2 35.2C207.6 19.6 183.2 16.8 164 16C156.4 15.6 148.8 15.6 141.6 15.6zM75.2 130C77.6 130 80 128.8 81.2 126.4C82.4 124 82.4 121.2 80.8 119.2C76 112 78.4 100.8 85.6 95.6C88.4 93.6 89.6 89.6 87.6 86.4C83.6 78.4 86.8 67.6 94.8 63.2000000000001C96.4 62.4 97.6 60.8 98 58.8S98.4 55.2 97.2 53.6000000000001C95.2 50.0000000000001 94.8 45.6000000000001 96.4 41.2C98 36.4 101.6 32.8 105.6 31.2C110 29.6000000000001 115.6 29.6000000000001 120.8 29.2C134.4 29.2 148.4 28.8 162 29.6000000000001C179.2 30.4000000000001 200.8 32.8 214.8 44.4000000000001C228.8 56.0000000000001 233.6 74.8000000000001 234.8 88.4000000000001C236.8 106.0000000000001 234.8 132.8000000000001 225.6 149.6000000000001C218 164.0000000000001 194.8 175.2000000000001 185.2 180.0000000000001C182.4 181.2000000000001 180.8 182.0000000000001 179.6 182.8000000000001C159.2 195.2000000000001 143.2 206.4000000000001 129.2 217.2000000000001C123.6 221.6000000000001 118 226.0000000000001 112 226.0000000000001S100.8 221.2000000000001 99.2 216.0000000000001C96.8 208.4000000000001 100 200.8000000000001 102 196.8000000000001C105.6 190.0000000000001 111.2 184.0000000000001 116.8 178.0000000000001C118.8 176.0000000000001 119.2 172.8000000000001 118 170.4000000000001C116.8 168.0000000000001 114.4 166.4000000000001 111.6 166.4000000000001C90 166.8000000000001 67.6 166.8000000000001 45.6 166.4000000000001C38.8 166.4000000000001 32.8 166.0000000000001 27.6 163.6000000000001C23.2 161.6000000000001 19.6 157.2000000000001 18 152.4000000000001C18.4 148.0000000000001 18.8 143.6000000000001 21.2 140.0000000000001C22 138.8000000000001 22.8 137.6000000000001 24 136.8000000000001C28.4 132.8000000000001 35.2 130.0000000000001 43.6 129.2000000000001C50 128.8000000000001 56.4 129.2000000000001 62.8 129.6000000000001C66.8 129.6000000000001 71.2 130.0000000000001 75.2 130.0000000000001z" />
    <glyph glyph-name="pointer-right"
      unicode="&#xEB5F;"
      horiz-adv-x="256" d="M114.4 15.6C106.8 15.6 99.6 15.6 92 16C72.8 16.8 48.4 19.6 30.8 34C17.2 45.6 8.4 64 5.6 87.2C3.2 107.6 5.6 136.8 16 156.4C25.6 174.8 50.8 187.2 62.8 192.8C64.8 193.6 66.8 194.8 67.2 195.2C87.2 207.6 102.8 218 116.4 228.4C123.2 233.6 131.6 240 142 240.4H142.4C153.6 240.4 164.4 232.4 168.4 220.8C171.6 211.6 170 201.2 164.8 190.8C162.8 187.2 160.8 184 158.4 180.8C175.2 180.8 192.4 181.2 209.2 180.4C217.2 180 225.2 179.6 232.4 176.4C240.8 172.8 246.8 165.2 249.6 156C252 147.6 250.8 138.4 246.4 131.6C245.2 129.6 243.2 127.6 241.2 125.6C234.4 119.6 224.8 115.6 213.6 114.4C206.4 113.6 199.2 114 192 114.4H190.8C192.4 104.4 189.2 94 182.4 86.8C186 75.2 182 62 172.8 53.6C174.4 48 174.4 41.6 172 35.6C168.8 27.2 162.4 20.4 154.4 17.2C147.6 14.4 140.4 14.4 134.4 14.4C127.6 15.5999999999999 121.2 15.5999999999999 114.4 15.5999999999999zM142.8 226.4S142.4 226.4 142.8 226.4C136.8 226.4 131.2 222 125.6 217.6C111.6 206.8 95.6 195.6 75.2 183.2C74 182.4 72 181.6 69.6 180.4C59.6 175.6 36.8 164.4 29.2 150C20.4 133.2 18.4 106.4 20 88.8C21.6 75.2 26.4 56.4 40 44.8C54.4 33.2 75.6 30.8 92.8 30C106.4 29.6 120.4 29.6 134 29.6C139.2 29.6 144.8 29.6 149.2 31.6C153.6 33.2 156.8 36.8 158.4 41.6C160 46 159.6 50.4 157.6 54C156.8 55.6 156.4 57.6 156.8 59.2C157.2 60.8 158.4 62.4 160 63.6C168 68 171.5999999999999 79.2 167.1999999999999 86.8C165.5999999999999 90 166.3999999999999 93.6 169.1999999999999 96C176.3999999999999 101.2 178.7999999999999 112 174 119.6C172.8 121.6 172.4 124.4 173.5999999999999 126.8C174.7999999999999 129.2 177.1999999999999 130.4 179.5999999999999 130.4C183.5999999999999 130.4 187.5999999999999 130 191.5999999999999 130C198.4 129.5999999999999 204.7999999999999 129.1999999999999 210.7999999999999 129.5999999999999C218.7999999999999 130.3999999999999 225.9999999999999 133.1999999999999 230.3999999999999 137.1999999999999C231.5999999999999 138.3999999999999 232.3999999999999 139.1999999999999 233.2 140.3999999999999C235.6 144 236 148.3999999999999 234.8 153.1999999999999C233.2 158.3999999999999 229.6 162.3999999999999 225.2 164.3999999999999C220.3999999999999 166.8 214.3999999999999 166.8 207.1999999999999 167.1999999999999C185.1999999999999 168 162.7999999999999 167.5999999999999 141.1999999999999 167.1999999999999C138.3999999999999 167.1999999999999 136 168.7999999999999 134.7999999999999 171.1999999999999S133.9999999999999 176.7999999999999 135.9999999999999 178.7999999999999C141.5999999999999 184.7999999999999 147.1999999999999 190.7999999999999 150.7999999999999 197.5999999999999C152.7999999999999 201.5999999999999 155.9999999999999 209.1999999999999 153.5999999999999 216.7999999999999C153.5999999999999 221.5999999999999 148.4 226.3999999999999 142.7999999999999 226.3999999999999zM236.8 131.6z" />
    <glyph glyph-name="pointer-top"
      unicode="&#xEB60;"
      horiz-adv-x="256" d="M154.4 5.2C136.4 5.2 115.2 8.4 99.6 16.4C81.2 26 68.8 51.2 63.2 63.2C62.4 65.2 61.2 67.2 60.8 67.6C48.4 87.6 38 103.2 27.6 116.8C22.4 123.6 16 132 15.6 142.4C15.6 154 23.6 164.8 35.2 168.8C44.4 172 54.8 170.4 65.2 165.2C68.8 163.2 72 161.2 75.2 158.8C75.2 175.6 74.8 192.8 75.6 209.6C76 217.6 76.4 225.6 79.6 232.8C83.2 241.2 90.8 247.2 100 250C108.4 252.4 117.6 251.2 124.4 246.8C126.4 245.6 128.4 243.6 130.4 241.6C136.4 234.8 140.4 225.2 141.6 214C142.4 206.8 142 199.6 141.6 192.4V191.2C151.2 192.8 162 189.6 169.2 182.8C180.8 186.4 194 182.4 202.4 173.2C208 174.8 214.4 174.8 220.4 172.4C228.8000000000001 169.2 235.6 162.8 238.8000000000001 154.8C241.6000000000001 148 241.6000000000001 140.8 241.6000000000001 134.8C241.6000000000001 121.2 242.0000000000001 106.8 241.2000000000001 92.8C240.4000000000001 73.6 237.6000000000001 49.2 223.2000000000001 31.6C211.6000000000001 17.6 193.2000000000001 8.8 170.0000000000001 6.4C164.4000000000001 5.2 159.6000000000001 5.2 154.4000000000001 5.2zM45.2 156.4C43.2 156.4 41.2 156 39.6 155.6C34.8 154 29.6 148.8 29.6 142.8C29.6 137.2 34 131.2 38.4 126C49.2 112 60.4 96 72.8 75.6C73.6 74.4 74.4 72.4 75.6 70C80.4 60 91.6 37.2 106 29.6C122.8 20.8 149.6 18.8 167.2 20.4C180.8 22 199.6 26.8 211.2 40.4C222.8 54.8 225.2 76 226 93.2C226.4 106.8 226.4 120.8 226.4 134.4C226.4 139.6 226.4 145.2 224.4 149.6C222.8 154 219.2 157.2 214.4 158.8C210 160.4 205.6 160 202 158C200.4 157.2 198.4 156.8 196.8 157.2C195.2 157.6 193.6 158.8 192.4 160.4C188 168.4 176.8 172 169.2 167.6C166 166 162.4 166.8 160 169.6C154.8000000000001 176.8 144 179.2 136.4 174.4C134.4 173.2 131.6 172.8 129.2000000000001 174C126.8000000000001 175.2 125.6000000000001 177.6 125.6000000000001 180C125.6000000000001 184 126.0000000000001 188 126.0000000000001 192C126.4000000000001 198.8 126.8000000000001 205.2 126.4000000000001 211.2C125.6000000000001 219.2 122.8000000000001 226.4 118.8000000000001 230.8C117.6000000000001 232 116.8000000000001 232.8 115.6000000000001 233.6C112.0000000000001 236 107.6000000000001 236.4 102.8000000000001 235.2C97.6000000000001 233.6 93.6000000000001 230 91.6000000000001 225.6C89.2000000000001 220.8 89.2000000000001 214.8 88.8000000000001 207.6C88.0000000000001 185.6 88.4000000000001 163.2 88.8000000000001 141.6C88.8000000000001 138.8 87.2000000000001 136.4 84.8000000000001 135.2C82.4000000000001 134 79.2000000000001 134.4 77.2000000000001 136.4C71.2000000000001 142 65.2000000000001 147.6 58.4000000000001 151.2C55.6000000000001 154 50.4000000000001 156.4 45.2000000000001 156.4z" />
    <glyph glyph-name="pointer"
      unicode="&#xEB61;"
      horiz-adv-x="256" d="M133.2 4.8C127.2 4.8 122 8 119.2 13.2L6.8 227.6C3.6 234 4.8 241.2 9.6 246.4C14.8 251.6 22 252.4 28.4 249.2L242.4 137.2C248 134.4 251.2 128.4 250.8 122C250.4 115.6 246.4 110.4 240.8 108L174 82L148 15.2C145.6 9.2 140.4 5.6 134 5.2C133.6 5.2 133.2 4.8 133.2 4.8zM20.8 236.8C20.4 236.8 20 236.8 19.6 236.4C18.8 235.6 18.8 234.8 19.2 234L131.2 20C131.6 19.2 132.4 18.8 133.2 18.8C133.6 18.8 134.4 19.2 134.8 20L162 89.6C162.8 91.6 164 92.8 166 93.6L235.6 120.8C236.4 121.2 236.8 122 236.8 122.4C236.8 122.8 236.8 123.6 235.6 124.4L22 236.8H20.8z" />
    <glyph glyph-name="popup"
      unicode="&#xEB62;"
      horiz-adv-x="256" d="M220.8 239.6H35.2C18.8 239.6 5.2 226 5.2 209.6V86.8C5.2 70.4 18.8 56.8 35.2 56.8H90.4L114 28A18.4 18.4 0 0 1 128.4 21.2C134 21.2 139.2 23.6 142.8 28L166.4 56.8H221.6C238 56.8 251.6 70.4 251.6 86.8V209.6C251.2 226 237.6 239.6 220.8 239.6zM237.2 86.8C237.2 78 230.0000000000001 70.8 221.2 70.8H166.4C162.4 70.8 158.8 69.2 155.6 66.4L155.2 66L131.6 36.8C130.4 35.2 128.8 35.2 128 35.2C127.2 35.2 125.6 35.6 124.4 36.8L100.8 66L100.4 66.4C97.6 69.2 93.6 70.8 89.6 70.8H35.2C26.4 70.8 19.2 78 19.2 86.8V209.6C19.2 218.4 26.4 225.6 35.2 225.6H221.2C230 225.6 237.2 218.4 237.2 209.6V86.8zM66.8 183.2H180.8C184.8 183.2 188 186.4 188 190.4S184.8 197.6 180.8 197.6H66.8C62.8 197.6 59.6 194.4 59.6 190.4S62.8 183.2 66.8 183.2zM66.8 141.2H149.2C153.2 141.2 156.4 144.4 156.4 148.4S153.2 155.6 149.2 155.6H66.8C62.8 155.6 59.6 152.4 59.6 148.4S62.8 141.2 66.8 141.2zM191.2 112.8H66.8C62.8 112.8 59.6 109.6 59.6 105.6S62.8 98.4 66.8 98.4H191.2C195.2 98.4 198.4 101.6 198.4 105.6S195.2 112.8 191.2 112.8z" />
    <glyph glyph-name="protection"
      unicode="&#xEB68;"
      horiz-adv-x="256" d="M217.2 227.2L132.8 250.4C129.6 251.2 126.4 251.2 123.6 250.4L38.8 227.2C31.2 225.2 26 218 26 210V148.4C26 85.2 63.6 29.2 121.2 6C123.2 5.2 125.6 4.8 128 4.8C130.4 4.8 132.4 5.2 134.8 6C192.8 29.6 230 85.6 230 148.8V210.4C230 218 224.8 225.2 217.2 227.2zM216 149.2C216 92.4 181.2 40.4 129.6 19.6C128.8 19.2 127.6 19.2 126.8 19.6C74 40.4 40 91.2 40 148.8V210.4C40 212 41.2 213.6 42.8 214L127.2 237.2H128.8L213.2 214C214.8 213.6 216 212 216 210.4V149.2zM176.4 165.2L117.6 116L90.4 138.8C87.6 141.2 83.2 140.8 80.4 138S78.4 130.8 81.2 128L112.8 101.6C114 100.4 115.6 100 117.2 100S120.4 100.4 121.6 101.6L184.8 154.8C187.6 157.2 188 161.6 185.6 164.8C183.6 167.2 179.2 167.6 176.4 165.2z" />
    <glyph glyph-name="question-circle"
      unicode="&#xEB6C;"
      horiz-adv-x="256" d="M128 250.8C60 250.8 5.2 196 5.2 128S60 4.8 128 4.8S251.2 60 251.2 128S196 250.8 128 250.8zM128 18.8C68 18.8 19.2 68 19.2 128S68 236.8 128 236.8S237.2 188 237.2 128S188 18.8 128 18.8zM134.8 208.4C123.2 210.4 111.6 207.2 103.2 200C94.4 192.8 89.2 182 89.2 170.4C89.2 166 90 161.6 91.6 157.6C92.8 154 96.8 152 100.4 153.2C104 154.4 106 158.4 104.8 162C104 164.8 103.2 167.2 103.2 170.4C103.2 177.6 106.4 184.4 112 189.2C117.6 194 124.8 196 132.4 194.4C142.4 192.8 150.4 184.4 152 174.8C154 163.2 148 152 137.2 147.6C127.2 143.6 120.8 133.6 120.8 122V96.4C120.8 92.4 124 89.2 128 89.2S135.2 92.4 135.2 96.4V122C135.2 127.6 138.4 132.8 142.8 134.4C159.6 141.2 169.2 158.8 166 177.2C163.2 192.8 150.4 205.6 134.8 208.4zM128.4 68.8H127.2C123.2 68.8 120 65.6 120 61.6S123.2 54.4 127.2 54.4H128.4C132.4 54.4 135.6 57.6 135.6 61.6S132.4 68.8 128.4 68.8z" />
    <glyph glyph-name="rain"
      unicode="&#xEB70;"
      horiz-adv-x="256" d="M231.2 182C220 194 204.8 202 188.8 204.8C180 219.2 166.8 230 151.6 235.2C144.8 238 136.8 239.2 128.4 239.2C89.6 239.2 58.4 208.4 56.8 170.4C27.6 167.6 5.2 143.6 5.2 114C5.2 93.6 15.6 75.2 33.2 65.2C34 64.4 35.2 64 36.4 64C38.8 64 41.2 65.2 42.4 67.6C44.4 70.8 43.2 75.2 40 77.2C26.8 84.8 19.2 98.8 19.2 114C19.2 138 38 156.4 62 156.4H64C68 156.4 71.2 159.6 71.2 163.6V168C71.2 199.6 97.2 225.6 128.8 225.6C135.6 225.6 141.6 224.4 147.2 222.4C160.8 217.6 172 208 178.8 195.2C180 193.2 182 191.6 184.4 191.6C198.4 190 212 183.2 221.6 172.8C232 161.6 237.6 146.8 237.6 131.6C237.6 110.8 226.8 91.6 209.2 80.4C206 78.4 204.8 74 206.8 70.8C208.8 67.6 213.2 66.4 216.4 68.4C238.4 82 251.6 105.6 251.6 131.6C251.2 150.4 244 168.4 231.2 182zM86.4 91.6C82.4 91.6 79.2 88.4 79.2 84.4V24C79.2 20 82.4 16.8 86.4 16.8S93.6 20 93.6 24V84.8C93.2 88.4 90.4 91.6 86.4 91.6zM128 112C124 112 120.8 108.8 120.8 104.8V44C120.8 40 124 36.8 128 36.8S135.2 40 135.2 44V104.8C135.2 108.8 132 112 128 112zM169.6 91.6C165.6 91.6 162.4 88.4 162.4 84.4V24C162.4 20 165.6 16.8 169.6 16.8S176.8 20 176.8 24V84.8C176.8 88.4 173.6 91.6 169.6 91.6z" />

    <glyph glyph-name="reply"
      unicode="&#xEB75;"
      horiz-adv-x="256" d="M120.8 27.2C118 27.2 115.2 28 112.8 30L14 109.2C8.4 113.6 5.2 120.4 5.2 128S8.4 142 14 146.8L112.8 226C116.8 229.2 121.6 229.6 126 227.6C130.4 225.6 133.2 221.2 133.2 216.4V172C167.2 167.2 198 152 221.2 129.2C236.8 113.2 244.8 98 249.2 75.6C250 70.4 250.8 62 250.8 50C250.8 45.2 248.4 40.8 244.4 38.8C240.4 36.4 235.2 36.8 231.6 39.2C195.6 62.4 162 76.4 133.6 80V40C133.6 35.2 130.8 30.8 126.4 28.8C124.4 27.6 122.8 27.2 120.8 27.2zM119.6 213.2L22.8 135.6C20.4 133.6 19.2 130.8 19.2 128C19.2 124.8 20.4 122 22.8 120.4L119.6 42.8V87.2C119.6 89.2 120.4 90.8 122 92.4C123.6 93.6 125.2 94.4 127.2 94.4C166.8 92 208.4 70.4 237.2 52C236.8 61.6 236.4 68.8 235.6 72.4C231.6 92.4 225.2 104.8 211.6 119.2C189.6 141.2 158.8 155.2 126 158.8C122.4 159.2 119.6 162 119.6 165.6V213.2z" />
    <glyph glyph-name="sad"
      unicode="&#xEB7F;"
      horiz-adv-x="256" d="M128 250.8C60 250.8 5.2 196 5.2 128S60 4.8 128 4.8S251.2 60 251.2 128S196 250.8 128 250.8zM128 18.8C68 18.8 19.2 68 19.2 128S68 236.8 128 236.8S237.2 188 237.2 128S188 18.8 128 18.8zM128 103.2C106.8 103.2 86.4 95.2 70.8 80.8C68 78 67.6 73.6 70.4 70.8C73.2 68 77.6 67.6 80.4 70.4C93.2 82.4 110 88.8 128 88.8C145.6 88.8 162.4 82.4 175.6 70.4C176.8 69.2 178.8 68.4 180.4 68.4C182.4 68.4 184 69.2 185.6 70.8C188.4 73.6 188 78 185.2 80.8C169.6 95.2 149.2 103.2 128 103.2zM80.4 149.2C89.2 149.2 96.4 156.4 96.4 165.2S89.2 181.2 80.4 181.2S64.4 174 64.4 165.2S71.6 149.2 80.4 149.2zM175.6 180.8C166.8 180.8 159.6 173.6 159.6 164.8S166.8 148.8 175.6 148.8S191.6 156 191.6 164.8S184 180.8 175.6 180.8z" />
    </font>
</defs>
</svg>
